<?xml version="1.0" encoding="utf-8"?>
<!-- Generator: Adobe Illustrator 22.0.1, SVG Export Plug-In . SVG Version: 6.00 Build 0)  -->
<svg version="1.1" id="Layer_1" xmlns="http://www.w3.org/2000/svg" xmlns:xlink="http://www.w3.org/1999/xlink" x="0px" y="0px"
	 viewBox="0 0 207.1 175.1" style="enable-background:new 0 0 207.1 175.1;" xml:space="preserve">
<style type="text/css">
	.st0{fill:#37BA9A;}
	.st1{fill:#FFFFFF;}
	.st2{fill:#B92025;}
	.st3{fill:#8F191C;}
	.st4{fill:#048D5F;}
	.st5{fill:#EE5125;}
	.st6{fill:#D53A27;}
	.st7{fill:#E5E6E7;}
	.st8{fill:#077950;}
</style>
<title>bulbaicon</title>
<path class="st0" d="M10.2,59.8c0.8-1.6,1.6-3.1,2.4-4.7c1.3-18.4,5-52.6,13.6-54.8c8.1-2,25.2,5.8,35.1,11.1
	c27.1-11.1,57.5-11.1,84.6,0c9.9-5.2,27-13.1,35.1-11.1c8.6,2.1,12.3,36.5,13.6,54.8c0.8,1.5,1.6,3.1,2.4,4.7
	C268.1,213.5-61.1,213.5,10.2,59.8L10.2,59.8z"/>
<g>
	<path class="st1" d="M30.8,111.2c11,5,23.1,7.2,35.2,6.2c2.3-0.1,4.8-2.7,5.4-4.8c3.2-12.5-9.2-51.3-21.6-52.8
		C38,58.3,19.6,86,27.6,107.2C28.1,108.9,29.3,110.3,30.8,111.2z"/>
	<path class="st2" d="M36.7,113.6c9.4,3.3,19.4,4.6,29.3,3.8c2.3-0.1,4.8-2.7,5.4-4.8c2.3-8.8-3.3-30.9-11.1-43.6
		c-14.1,1.3-25.2,15.6-25.2,33.3C35.1,106.1,35.6,109.9,36.7,113.6z"/>
	<path class="st1" d="M56.6,104.7c1.8,0,3.2-3.8,3.2-8.5s-1.4-8.6-3.2-8.6s-3.3,3.8-3.3,8.6S54.7,104.7,56.6,104.7z"/>
</g>
<path class="st1" d="M176.2,111.2c-11,5-23.1,7.2-35.2,6.2c-2.3-0.1-4.8-2.7-5.4-4.8c-3.1-12.5,9.2-51.3,21.6-52.8
	c11.8-1.4,30.2,26.2,22.2,47.5C178.9,108.9,177.8,110.3,176.2,111.2z"/>
<path class="st3" d="M170.4,113.6c-9.4,3.3-19.4,4.6-29.4,3.8c-2.3-0.1-4.8-2.7-5.4-4.8c-2.3-8.8,3.3-30.9,11.1-43.5
	c14.1,1.3,25.2,15.6,25.2,33.3C172,106.1,171.5,109.9,170.4,113.6L170.4,113.6z"/>
<path class="st1" d="M150.5,104.7c1.9,0,3.3-3.8,3.3-8.5s-1.4-8.6-3.3-8.6s-3.2,3.8-3.2,8.6S148.7,104.7,150.5,104.7z"/>
<path class="st4" d="M122.9,40.1c-4.4-3.3-15.4-12-27.1-14.7c-13.7-3.1-16.5,6.8-13.8,17s11.2,12.5,19.3,13.3s12.1-1.3,17.3-5.7
	C121.7,47.5,127.1,43.2,122.9,40.1z M129.7,66.7c-0.6-0.1-10,8.3-9.9,9.9s3.8,3.8,6.2,3.9c2.4,0.1,4-1.5,4.2-5.4
	S130.2,66.7,129.7,66.7z M87.6,68.3c5.7,3.1,15.2,14.3,8.7,19.6c-2.9,2.4-6,1.4-9.1-0.2s-8-6.7-7.9-8.6
	C79.5,76.8,84.7,66.8,87.6,68.3z"/>
<g>
	<path class="st5" d="M24.4,123.6c0,0,6.7,2.9,25.2,5.2s23,3.7,31.4,6.9c29.6,11.3,15.6,11.3,45.2,0c8.5-3.2,12.9-4.4,31.4-6.9
		s25.2-5.2,25.2-5.2C161.2,179.2,45.8,179.2,24.4,123.6z"/>
	<path class="st6" d="M103.6,144.2c3.8,0,7.8-2.9,22.6-8.5c8.5-3.2,12.9-4.4,31.4-6.9s25.2-5.2,25.2-5.2
		c-10.7,27.8-45,41.8-79.1,41.8L103.6,144.2L103.6,144.2z"/>
	<path class="st2" d="M51.8,129.2c16.7,2.3,21.1,3.5,29.1,6.6c29.6,11.3,15.6,11.3,45.2,0c8.1-3.1,12.4-4.3,29.1-6.6
		c5.1,4.3,9.2,9.7,11.8,15.9c-31.7,27-95.3,27-127.1,0C42.6,138.9,46.7,133.5,51.8,129.2z"/>
	<path class="st3" d="M103.6,144.2c3.8,0,7.8-2.9,22.6-8.5c8.1-3.1,12.4-4.3,29.1-6.6c5.1,4.3,9.2,9.7,11.8,15.9
		c-15.9,13.5-39.7,20.3-63.5,20.3C103.6,165.3,103.6,144.2,103.6,144.2z"/>
	<path class="st1" d="M45,128.2c1.4,0.2,3,0.4,4.5,0.6s2.9,0.5,4.3,0.6c-1,1.7-3.7,6.4-6,6.2C45.8,135.4,45.1,131.1,45,128.2
		L45,128.2z M153.2,129.4c1.4-0.1,2.7-0.4,4.3-0.6s3.1-0.4,4.5-0.6c-0.1,2.9-0.8,7.2-2.9,7.4C156.9,135.9,154.2,131.1,153.2,129.4
		L153.2,129.4z"/>
	<path class="st7" d="M153.2,129.4c1.4-0.1,2.7-0.4,4.3-0.6s3.1-0.4,4.5-0.6c-0.1,2.9-0.8,7.2-2.9,7.4
		C156.9,135.9,154.2,131.1,153.2,129.4L153.2,129.4z"/>
</g>
<path class="st4" d="M97.4,129.2c0.7,0,1.3,0.8,1.3,2s-0.6,2-1.3,2s-1.3-1-1.3-2S96.7,129.2,97.4,129.2z"/>
<path class="st8" d="M109.7,129.2c0.7,0,1.3,0.8,1.3,2s-0.6,2-1.3,2s-1.3-1-1.3-2S108.9,129.2,109.7,129.2z"/>
</svg>
