<?xml version="1.0" encoding="utf-8"?>
<!-- Generator: Adobe Illustrator 22.0.1, SVG Export Plug-In . SVG Version: 6.00 Build 0)  -->
<svg version="1.1" id="Layer_1" xmlns="http://www.w3.org/2000/svg" xmlns:xlink="http://www.w3.org/1999/xlink" x="0px" y="0px"
	 viewBox="0 0 366 342.3" style="enable-background:new 0 0 366 342.3;" xml:space="preserve">
<style type="text/css">
	.st0{fill:#37BA9A;stroke:#10424A;stroke-width:0.8938;stroke-miterlimit:10;}
	.st1{fill:#048D5F;}
	.st2{fill:#71B353;stroke:#418132;stroke-width:0.8938;stroke-miterlimit:10;}
	.st3{fill:none;stroke:#418132;stroke-width:3.5752;stroke-miterlimit:10;}
</style>
<path class="st0" d="M175.6,116.1c0.7-1.4,1.4-2.9,2.1-3.9c1.1-16.1,4.3-46.1,11.8-47.9c7.2-1.8,22.2,5,30.7,9.7
	c24-9.7,50.4-9.7,74.4,0c8.6-4.6,23.6-11.4,30.7-9.7c7.5,1.8,10.7,32.2,11.8,47.9c0.7,1.4,1.4,2.9,2.1,3.9
	C402.3,251.2,113,251.2,175.6,116.1L175.6,116.1z"/>
<path class="st0" d="M289.3,204.1c0,0,35,53.6,29.3,68.6c-5.7,15-53.6,13.6-56.5,0c-2.9-13.6-20.7-60.1-20.7-60.1
	s30.4,60.8,11.4,78.7c-12.2,11.8-32.9,7.5-47.2,1.4c-7.2-2.9-12.2-9.7-12.9-17.5c-0.4-2.9-0.7-6.8-1.8-11.8c0,0-57.9,31.8-102.6,6.4
	c0,0,20.4,25.4-9.3,28.6c-39.3,4.6-45-37.2-30.7-84.4"/>
<path class="st1" d="M149.8,256.3c-3.9-3.2-14.3-11.1-25-13.6c-12.9-2.9-15.4,6.4-12.9,15.7c2.5,9.3,10.4,11.4,17.9,12.5
	c7.5,0.7,11.1-1.1,16.1-5.4C148.8,263.4,153.8,259.1,149.8,256.3z"/>
<path class="st1" d="M283.6,229.8c-0.7,0-11.8,10-11.8,11.8s4.6,4.6,7.2,4.6c2.9,0,4.6-1.8,5-6.4
	C284.3,235.2,284.3,229.8,283.6,229.8z"/>
<path class="st1" d="M220.3,252c6.8,3.6,17.9,16.8,10.4,23.2c-3.2,2.9-7.2,1.8-10.7-0.4c-3.6-2.1-9.3-7.9-9.3-10
	C210.6,262,216.7,250.2,220.3,252z"/>
<path class="st1" d="M260,188c3.2-7.2,15.7-18.9,22.5-11.8c2.9,3.2,2.1,6.8,0.4,10.7c-1.8,3.9-7.2,10-9.7,10
	C270.3,196.9,258.2,191.2,260,188z"/>
<path class="st2" d="M238.2,190.5c-72.6,65.1-141.2,57.9-182.3,35.8s-48.3-72.6-25-94.7C48.3,115,54.7,75,72.6,58.2
	c10-9.3,24.7-15,31.5-14.7l35.8,11.8l87.2,32.2c2.1,0.7,4.3,2.1,6.4,3.6C246.7,101.1,292.5,141.5,238.2,190.5z"/>
<path class="st3" d="M179.5,229.1c10.7-80.1-88-179.8-88-179.8s-35.8,102.3-25,182"/>
<path class="st3" d="M90.9,46.7c0,0,168.8,61.5,170.9,109.8"/>
<path class="st3" d="M88.7,46.7c6.1,4.6-78.3,126.9-65.1,145.5"/>
</svg>
