<?xml version="1.0" encoding="utf-8"?>
<!-- Generator: Adobe Illustrator 22.0.1, SVG Export Plug-In . SVG Version: 6.00 Build 0)  -->
<svg version="1.1" id="Layer_1" xmlns="http://www.w3.org/2000/svg" xmlns:xlink="http://www.w3.org/1999/xlink" x="0px" y="0px"
	 viewBox="0 0 366 342.3" style="enable-background:new 0 0 366 342.3;" xml:space="preserve">
<style type="text/css">
	.st0{fill:#37BA9A;stroke:#10424A;stroke-width:0.3549;stroke-miterlimit:10;}
	.st1{fill:#71B353;stroke:#418132;stroke-width:0.3549;stroke-miterlimit:10;}
	.st2{fill:none;stroke:#418132;stroke-width:1.4197;stroke-miterlimit:10;}
	.st3{fill:#FFFFFF;}
	.st4{fill:#B92025;}
	.st5{fill:#EE5125;}
	.st6{fill:#D53A27;}
	.st7{fill:#8F191C;}
	.st8{fill:#E5E6E7;}
	.st9{fill:#048D5F;}
	.st10{fill:#077950;}
</style>
<g>
	<path class="st0" d="M188,286.7c0,0-70.1,0-71.5-31c-0.3-7-27.2,30.5-58,21.3c-30.8-9.2-17.7-44,0-56.1
		C76.2,208.9,99,189.7,99,189.7l135.7,29.8L188,286.7z"/>
	<path class="st0" d="M223.4,143.3c0,0,70.7,40.8,79.8,77.7c8.9,36.9,12.5,64.7,11.7,73.8c-0.6,7.1-41.2,28.5-66.8-14.1
		c0,0-22.4,7-34.4,7.5c-3.7,0.2-7-6.7-6.6-10.4L223.4,143.3z"/>
	<path class="st1" d="M239.3,32.7c0,0-21.7,16.5-58.6,17.2s-61,35.5-58.9,49s76.1,59.9,91.3,66.7c10.4,4.7,65,40.5,85.9,29.8
		s36.2-37.6,30.4-69.6c0,0-25.3-50.3-26.8-77.4C300.8,20.1,239.3,32.7,239.3,32.7z"/>
	<path class="st2" d="M276.5,30.3c0,0-85.2,75.1-47.7,143.9"/>
	<path class="st2" d="M264.2,30.3c0,0-116.4,32.1-126,86.5"/>
	<path class="st0" d="M255.4,225.2c0,0-8.1,59.1-72.8,74.2c-64.7,15.2-28.4-37.2-28.4-37.2s18.5-20.6,39.8-29.5"/>
	<path class="st0" d="M77.3,127.7c1-1.3,2-2.6,3-3.8c4.4-16.2,13.8-46.4,21.7-47.3c7.5-0.9,21.2,8.1,29.1,13.9
		c26-6.8,52.8-3.3,74.8,9.8c9.7-3.5,26.3-8.5,32.9-5.8c7.2,2.8,4.4,33.9,2.3,50.4c0.4,1.4,0.9,3,1.3,4.4
		C278.1,294.6-13,256.6,77.3,127.7L77.3,127.7z"/>
	<g>
		<path class="st3" d="M78.5,172.4c9.9,4.5,20.7,6.5,31.6,5.6c2.1-0.1,4.3-2.4,4.8-4.3c2.9-11.2-8.3-46-19.4-47.4
			c-10.6-1.3-27.1,23.5-19.9,42.5C76,170.3,77.1,171.6,78.5,172.4z"/>
		<path class="st4" d="M83.8,174.5c8.4,3,17.4,4.1,26.3,3.4c2.1-0.1,4.3-2.4,4.8-4.3c2.1-7.9-3-27.7-10-39.1
			c-12.6,1.2-22.6,14-22.6,29.9C82.3,167.8,82.8,171.2,83.8,174.5z"/>
		<path class="st3" d="M101.6,166.5c1.6,0,2.9-3.4,2.9-7.6s-1.3-7.7-2.9-7.7c-1.6,0-3,3.4-3,7.7S99.9,166.5,101.6,166.5z"/>
	</g>
	<g>
		<path class="st3" d="M208.8,176.4c7.2-19-9.3-43.9-19.9-42.5c-11.1,1.3-22.2,36.1-19.4,47.4c0.5,1.9,2.8,4.2,4.8,4.3
			c10.9,0.9,21.7-1.1,31.6-5.6C207.3,179.2,208.3,178,208.8,176.4z"/>
		<path class="st4" d="M202.1,172c0-15.9-10-28.7-22.6-29.9c-7,11.4-12,31.2-10,39.1c0.5,1.9,2.8,4.2,4.8,4.3
			c8.9,0.7,17.8-0.4,26.3-3.4C201.6,178.9,202.1,175.5,202.1,172z"/>
		<path class="st3" d="M185.7,166.6c0-4.3-1.3-7.7-3-7.7s-2.9,3.5-2.9,7.7s1.3,7.6,2.9,7.6C184.5,174.2,185.7,170.9,185.7,166.6z"/>
	</g>
	<path class="st5" d="M85.9,191.4c0,0,4.7,2.3,17.8,4.8c13.1,2.4,16.2,3.6,22.1,6.2c20.6,9.3,10.7,8.7,32.2,1.9
		c6.2-1.9,9.4-2.6,22.7-3.6s18.2-2.7,18.2-2.7C181.1,236.8,98.8,231.9,85.9,191.4z"/>
	<path class="st6" d="M141.5,209.4c2.7,0.2,5.7-1.7,16.5-5.1c6.2-1.9,9.4-2.6,22.7-3.6s18.2-2.7,18.2-2.7
		c-8.8,19.4-33.8,27.9-58.2,26.5L141.5,209.4L141.5,209.4z"/>
	<path class="st4" d="M105.2,196.5c11.8,2.3,14.9,3.4,20.5,5.9c20.6,9.3,10.7,8.7,32.2,1.9c5.9-1.9,9-2.5,21-3.5
		c3.5,3.3,6.2,7.3,7.7,11.8c-23.7,17.9-69.1,15.3-90.6-5.3C98.2,203.1,101.4,199.4,105.2,196.5z"/>
	<path class="st7" d="M141.5,209.4c2.7,0.2,5.7-1.7,16.5-5.1c5.9-1.9,9-2.5,21-3.5c3.5,3.3,6.2,7.3,7.7,11.8
		c-11.9,9-29.2,12.8-46.1,11.8C140.6,224.4,141.5,209.4,141.5,209.4z"/>
	<path class="st3" d="M100.4,195.5c1,0.2,2.1,0.4,3.2,0.6c1.1,0.2,2,0.5,3,0.6c-0.8,1.2-2.9,4.4-4.5,4.2
		C100.6,200.7,100.3,197.6,100.4,195.5L100.4,195.5z M177.5,200.9c1,0,1.9-0.2,3.1-0.2c1.1-0.1,2.2-0.2,3.2-0.2
		c-0.2,2.1-0.9,5.1-2.4,5.2C179.8,205.7,178.1,202.2,177.5,200.9L177.5,200.9z"/>
	<path class="st8" d="M177.5,200.9c1,0,1.9-0.2,3.1-0.2c1.1-0.1,2.2-0.2,3.2-0.2c-0.2,2.1-0.9,5.1-2.4,5.2
		C179.8,205.7,178.1,202.2,177.5,200.9L177.5,200.9z"/>
	<path class="st8" d="M62.5,276.8c1,0.3,1.9,0.3,3,0.6s2.2,0.4,3.2,0.6c-0.7,1.9-2.2,4.7-3.6,4.4C63.5,282,62.8,278.2,62.5,276.8
		L62.5,276.8z"/>
	<path class="st8" d="M144.4,289.1c0.2,1,0.5,1.9,0.8,3c0.3,1.1,0.5,2.2,0.8,3.1c-2.1,0.2-5.2,0-5.5-1.4
		C140.1,292.3,143.3,290,144.4,289.1L144.4,289.1z"/>
	<path class="st8" d="M150.1,298c0.8,0.6,1.7,1,2.6,1.7c1,0.6,1.9,1.2,2.7,1.8c-1.4,1.5-3.8,3.5-5,2.7
		C149.1,303.2,149.9,299.4,150.1,298L150.1,298z"/>
	<path class="st8" d="M162.7,302c1,0,1.9-0.1,3.1-0.1c1.2,0,2.2-0.1,3.2-0.1c-0.3,2.1-1,5.1-2.6,5.1
		C164.9,306.9,163.3,303.3,162.7,302L162.7,302z"/>
	<path class="st8" d="M280.5,305.4c1,0.2,1.9,0.2,3.1,0.4s2.2,0.3,3.2,0.5c-0.6,2-1.9,4.8-3.4,4.5
		C281.8,310.6,280.8,306.8,280.5,305.4L280.5,305.4z"/>
	<path class="st8" d="M293,305.7c1-0.1,1.9-0.3,3.1-0.5s2.2-0.3,3.2-0.5c0-1.7-0.6,5.2-2,5.3C295.7,310.3,293.7,306.9,293,305.7
		L293,305.7z"/>
	<path class="st8" d="M303.3,303.2c0.9-0.3,1.8-0.8,2.9-1.2c1.1-0.4,2.1-0.8,3-1.2c0.5,2,0.7,5.1-0.7,5.6
		C307,307,304.3,304.2,303.3,303.2L303.3,303.2z"/>
	<path class="st8" d="M49.3,271.4c0.7,0.7,1.5,1.2,2.4,1.9s1.7,1.4,2.5,2c-1.5,1.4-4.1,3.1-5.3,2.2
		C47.8,276.5,48.9,272.7,49.3,271.4L49.3,271.4z"/>
	<path class="st8" d="M40.7,260.4c0.6,0.8,1.2,1.5,2,2.4s1.4,1.7,2,2.5c-1.8,1-4.7,2.2-5.6,1C38.1,265.1,40,261.7,40.7,260.4
		L40.7,260.4z"/>
	<path class="st9" d="M132.3,186.9c1,0,1.7,1.1,1.4,2.8s-1.3,2.8-2.2,2.8c-1,0-1.6-1.4-1.4-2.8S131.3,186.9,132.3,186.9z"/>
	<path class="st10" d="M149.7,186.9c1,0,1.7,1.1,1.4,2.8s-1.3,2.8-2.2,2.8s-1.6-1.4-1.4-2.8S148.6,186.9,149.7,186.9z"/>
	<path class="st9" d="M167.2,118.2c-3.4-2.7-12.2-9.5-21.4-11.6c-11-2.4-13.1,5.5-11,13.4c2.1,7.9,8.9,9.8,15.3,10.7
		c6.4,0.6,9.5-0.9,13.7-4.6C166.2,124.3,170.5,120.6,167.2,118.2z"/>
	<path class="st9" d="M78.4,263.4c-3.4-2.7-12.2-9.5-21.4-11.6c-11-2.4-13.1,5.5-11,13.4c2.1,7.9,8.9,9.8,15.3,10.7
		c6.4,0.6,9.5-0.9,13.7-4.6C77.5,269.5,81.8,265.9,78.4,263.4z"/>
	<path class="st9" d="M294.5,257.4c-0.2-4.3-1.1-15.4-5.6-23.7c-5.5-9.8-12.8-6.1-17.3,0.8c-4.5,6.9-1.4,13.1,2.2,18.5
		c3.8,5.2,7,6.4,12.6,7.2C289.3,260.8,294.9,261.5,294.5,257.4z"/>
	<path class="st9" d="M160.2,145.1c-0.6-0.1-10.2,8.4-10.1,10.1c0.1,1.6,3.9,3.9,6.3,4c2.4,0.1,4.1-1.5,4.3-5.5
		S160.7,145.1,160.2,145.1z"/>
	<path class="st9" d="M64.5,218.1c-0.6-0.2-11.6,6.4-11.8,8c-0.2,1.6,3.1,4.5,5.4,5.1c2.4,0.6,4.3-0.7,5.2-4.6
		C64.4,222.7,65,218.2,64.5,218.1z"/>
	<path class="st9" d="M233.4,283.5c0.5,0.4,13.1-2.1,13.8-3.5c0.7-1.5-1.3-5.3-3.4-6.6s-4.3-0.8-6.5,2.5S233,283.2,233.4,283.5z"/>
	<path class="st9" d="M128.9,141c4.9,2.6,12.9,12.2,7.4,16.7c-2.5,2-5.1,1.2-7.7-0.2c-2.6-1.4-6.8-5.7-6.7-7.3
		C122,148.2,126.4,139.7,128.9,141z"/>
	<path class="st9" d="M174.8,275.5c-2.6,4.9-12,13.1-16.6,7.6c-2.1-2.4-1.3-5.1,0.1-7.7c1.3-2.7,5.6-6.9,7.2-6.8
		C167.4,268.7,176,273.1,174.8,275.5z"/>
	<path class="st9" d="M192.6,267.2c4.9,2.6,12.9,12.2,7.4,16.7c-2.5,2-5.1,1.2-7.7-0.2s-6.8-5.7-6.7-7.3
		C185.7,274.4,190.1,265.9,192.6,267.2z"/>
	<path class="st2" d="M286.8,32.1c0,0,32.7,120.2-4.9,163.4"/>
</g>
</svg>
