<svg xmlns="http://www.w3.org/2000/svg" viewBox="0 0 271.91 319.23"><defs><style>.cls-1,.cls-2{fill:#f7941d;}.cls-2,.cls-4{stroke:#000;stroke-miterlimit:10;stroke-width:0.25px;}.cls-3{fill:#fcca59;}.cls-4{fill:none;}.cls-5{fill:#010101;}.cls-6{fill:#b92025;}.cls-7{fill:#8f191c;}.cls-8{fill:#fff;}.cls-9{fill:#e5e6e7;}</style></defs><title>charfront</title><g id="Layer_2" data-name="Layer 2"><g id="Layer_1-2" data-name="Layer 1"><path class="cls-1" d="M152.66,26.22S192.9,63.33,181.74,120c-9.63,49-34.2,30.47-34.2,30.47" transform="translate(-28.71 -21.18)"/><path class="cls-2" d="M217.77,291.76c84-29,59.53-92.17,59.53-92.17-27.6,76.45-65.87,59.23-65.87,59.23A206.46,206.46,0,0,1,191,218.63c-9.29-24.18-29.09-20.25-29.09-20.25s19.94,6.35,46.23,2.42,28.11-28.1,11.49-30.22-68-22.36-68-22.36l-69.81,4.53s-50.18,19.73-51.9,36.46-7.29,15,45,14.58c0,0,.43,33.88,2.15,39.46S30.74,260,52.18,302.86c0,0-29.59,31.31,11.58,23.59s36.69-16.3,36.69-16.3,8.77-13.3,21.64-12.44,16.58,8.15,42.17,6c0,0,17.44,22.3,23.88,31.3,8,11.24,60,5.15,28.73-24.87Z" transform="translate(-28.71 -21.18)"/><path class="cls-3" d="M277.3,199.59s-2.74,62.42-60,84.79l.43,7.38c0,.57,31.84-12.72,44-25.19,11.06-11.34,18.25-28.83,18.85-43.44S277.3,199.59,277.3,199.59Z" transform="translate(-28.71 -21.18)"/><path class="cls-4" d="M200.83,248.18s20,26.56,16,62" transform="translate(-28.71 -21.18)"/><path class="cls-3" d="M167.11,243s-21.61-76.85-49.56-80.66S76.9,203,76.9,208.68s-1.26,68.59,45.1,85.11,46.82,9.72,46.82,9.72S149.07,319.15,167.11,243Z" transform="translate(-28.71 -21.18)"/><path class="cls-1" d="M297.15,188.58c-.24,4.37-2,9-.06,12.94a4.33,4.33,0,0,1,3.53-2.6c-2,2.74-2,6.46-3.08,9.68a16.63,16.63,0,0,1-8.6,9.14,29.64,29.64,0,0,1-12.51,2.63c-5.91.1-12.34-1.16-16.2-5.63a18.05,18.05,0,0,1-3-5.1,30.5,30.5,0,0,1,1-24.66,4.62,4.62,0,0,0,1,4.27c-.7-5.16,1.9-10.11,4.1-14.83s4.08-10.23,2-15a26,26,0,0,1,3.74,10.09c-.65-4.8,1.38-9.7,4.61-13.31s7.55-6.08,12-8a22.1,22.1,0,0,0-4.36,5,7.48,7.48,0,0,0-.73,6.41c1.15,2.8,4.27,4.14,6.43,6.26,3.95,3.89,4.34,10,4.48,15.57a5.49,5.49,0,0,0,1.91-5A18.68,18.68,0,0,1,297.15,188.58Z" transform="translate(-28.71 -21.18)"/><path class="cls-3" d="M260.12,206a31,31,0,0,1,1.26-9.52c.73-2.49,1.77-4.89,2.29-7.43l.95,1.47a4.28,4.28,0,0,1,.91-3.28c.67-1,1.54-1.75,2.27-2.66a17.51,17.51,0,0,0,3.14-7.81,8.14,8.14,0,0,1,1,4.84c.25-2.33,2.3-4,4.15-5.42s3.84-3.22,3.86-5.57a44.51,44.51,0,0,1,2.34,7.77,15.08,15.08,0,0,1-.54,8,8.23,8.23,0,0,0,3.23-5.3,20,20,0,0,1,4.35,14.55l1.92-1.7a28.14,28.14,0,0,0,1.22,4.82,27.36,27.36,0,0,1,1,6,15.36,15.36,0,0,1-1.65,8.51,13.23,13.23,0,0,1-8.17,5.84,25,25,0,0,1-10.23.21c-4.53-.71-9.35-2.42-11.66-6.38A14.37,14.37,0,0,1,260.12,206Z" transform="translate(-28.71 -21.18)"/><g id="Layer_2-2" data-name="Layer 2"><g id="Layer_1-2-2" data-name="Layer 1-2"><path class="cls-1" d="M63.44,128.54c-6.83-16.09,4.65-20.64,6.76-51.75C75,2.64,182.49,2.64,174.46,76.79c-3.49,31,7.27,35.66-2.3,51.75C148,169.12,80.45,169.12,63.44,128.54Z" transform="translate(-28.71 -21.18)"/><path class="cls-1" d="M127.11,21.2c26.49,0,51.44,18.48,47.35,55.59-3.49,31,7.27,35.66-2.3,51.75-12.09,20.33-35,30.49-57,30.49L127.19,21.2Z" transform="translate(-28.71 -21.18)"/><path class="cls-5" d="M88.14,125.15c-12.74-4.85-16.66-6.7-18.1-7-.6-.15-1.23,0-.83.77,6,10.17,28.12,30.65,45.13,30.65s42.68-20.48,50.43-30.65c.53-.77,0-.92-.71-.77-1.49.31-5.8,2.08-19.24,7-19.87,7-38.12,7-56.68,0Z" transform="translate(-28.71 -21.18)"/><path class="cls-6" d="M88.14,125.15c-1.27-.46-2.3-.92-3.35-1.31a41.44,41.44,0,0,0-5.53,6.86c9.66,9.31,23.53,18.86,35.08,18.86s27.1-9.55,38.38-18.86a35.31,35.31,0,0,0-4.32-6.86c-1.12.39-2.31.85-3.51,1.31-19.94,7-38.11,7-56.75,0Z" transform="translate(-28.71 -21.18)"/><path class="cls-7" d="M115.89,149.48c11.39-.84,26.12-9.85,36.83-18.71a35.1,35.1,0,0,0-4.33-6.85c-1.11.38-2.31.85-3.5,1.23a83.73,83.73,0,0,1-27.26,5.31l-1.66,19Z" transform="translate(-28.71 -21.18)"/><path class="cls-8" d="M93.15,141.86c1.68,1,3.21,2,4.91,2.85.06-1.62.24-6.31-1.7-6.16-1.08.08-2.22,1.62-3.21,3.31Zm38.33,2.85c1.84-.85,3.55-1.85,5.41-2.85-.71-1.62-1.57-3.23-2.64-3.31-1.83-.15-2.55,4.47-2.77,6.16Zm13.11-19.56c-1.91.69-3.82,1.31-5.79,1.85.61,1.85,2,5.31,3.61,4.54s2-4,2.18-6.39ZM93.76,127a49.44,49.44,0,0,1-5.46-1.85c-.29,2.39-.34,5.62,1,6.32,1.55.84,3.62-2.62,4.48-4.47Z" transform="translate(-28.71 -21.18)"/><path class="cls-9" d="M131.48,144.71c1.84-.85,3.55-1.85,5.41-2.85-.71-1.62-1.57-3.23-2.64-3.31-1.83-.15-2.55,4.47-2.77,6.16Zm13.11-19.56c-1.91.69-3.82,1.31-5.79,1.85.61,1.85,2,5.31,3.61,4.54s2-4,2.18-6.39Z" transform="translate(-28.71 -21.18)"/><path class="cls-5" d="M111.18,120.61a1,1,0,0,1,.91,1.08h0a1.18,1.18,0,0,1-1.18,1.07,1,1,0,0,1-1-1.07,1.15,1.15,0,0,1,1.09-1.08Z" transform="translate(-28.71 -21.18)"/><path class="cls-5" d="M125.81,120.61a.94.94,0,0,1,.91,1.08h0a1.15,1.15,0,0,1-1,1.15.93.93,0,0,1-1.08-.85l0-.23a1.17,1.17,0,0,1,1.1-1.15Z" transform="translate(-28.71 -21.18)"/><path class="cls-8" d="M80.29,104c2.43.46,10.86,1.77,14.12-2.08,3.78-4.47,4.4-40.58-5.85-41.35C77,59.7,70.07,102,80.29,104Z" transform="translate(-28.71 -21.18)"/><path class="cls-5" d="M81.27,104.21c3.34.54,10.29,1.23,13.14-2.31,3.1-3.7,4-28.49-1.3-37.89-6.41.23-12.57,10.71-13.7,23.64A38.33,38.33,0,0,0,81.27,104.21Z" transform="translate(-28.71 -21.18)"/><path class="cls-8" d="M89.6,82.11C88,82.11,87,79,87.29,75s1.94-7.16,3.55-7.16,2.65,3.24,2.3,7.16S91.29,82.11,89.6,82.11Z" transform="translate(-28.71 -21.18)"/><path class="cls-8" d="M159.61,104c-2.59.46-11.25,1.77-13.91-2.08-3-4.47,2.78-40.58,13.08-41.35C170.64,59.7,170,102,159.61,104Z" transform="translate(-28.71 -21.18)"/><path class="cls-5" d="M158.43,104.21c-3.36.54-10.5,1.23-12.73-2.31-2.45-3.7,1-28.49,7.93-37.89,6.53.16,10.77,10.63,9.64,23.64a42.64,42.64,0,0,1-4.84,16.56Z" transform="translate(-28.71 -21.18)"/><path class="cls-8" d="M154,82.11c1.7,0,3.2-3.16,3.55-7.09s-.68-7.16-2.3-7.16S152,71.1,151.67,75,152.36,82.11,154,82.11Z" transform="translate(-28.71 -21.18)"/></g></g></g></g></svg>