<svg xmlns="http://www.w3.org/2000/svg" viewBox="0 0 275.73 309.05"><defs><style>.cls-1{fill:#f7941d;}.cls-2{fill:#fcca59;}</style></defs><title>charback</title><g id="Layer_2" data-name="Layer 2"><g id="Layer_1-2" data-name="Layer 1"><path class="cls-1" d="M478.09,540.5S453.52,559,443.88,510C432.72,453.33,473,416.22,473,416.22s57.6-28.13,80.94,23.87,23.3,79.45-16.36,98.13-59.46,2.28-59.46,2.28" transform="translate(-325 -408.62)"/><path class="cls-1" d="M503.53,687.71a119.55,119.55,0,0,1,21.64,12.44s-4.48,8.58,36.69,16.3,11.58-23.59,11.58-23.59c21.44-42.89-26.59-54-24.88-59.61s2.15-39.46,2.15-39.46c52.32.43,55.92-4.2,45-14.58-12.17-11.61-58.19-41-58.19-41H474s-51.37,20.25-68,22.36-14.81,26.29,11.48,30.22,46.24-2.42,46.24-2.42-19.81-3.93-29.1,20.25a206.13,206.13,0,0,1-20.46,40.19S375.92,666,348.32,589.59c0,0-24.48,63.16,59.53,92.17h0c-31.31,30,46.87,35.91,40.2,21C448.05,702.75,476.35,676,503.53,687.71Z" transform="translate(-325 -408.62)"/><path class="cls-2" d="M348.32,589.59s2.74,62.42,60,84.79l-.43,7.38c-.05.57-31.84-12.72-44-25.19-11.06-11.34-18.25-28.83-18.85-43.44S348.32,589.59,348.32,589.59Z" transform="translate(-325 -408.62)"/><path class="cls-1" d="M328.47,578.58c.24,4.37,2,9,.06,12.94a4.32,4.32,0,0,0-3.53-2.6c2,2.74,2,6.46,3.08,9.68a16.65,16.65,0,0,0,8.61,9.14,29.56,29.56,0,0,0,12.5,2.63c5.91.1,12.34-1.16,16.2-5.63a18.05,18.05,0,0,0,3-5.1,30.46,30.46,0,0,0-1-24.66,4.61,4.61,0,0,1-1,4.27c.7-5.16-1.9-10.11-4.11-14.83s-4.08-10.23-2-15a26.13,26.13,0,0,0-3.74,10.09c.65-4.8-1.38-9.7-4.6-13.31s-7.55-6.08-12-8a22.1,22.1,0,0,1,4.36,5,7.48,7.48,0,0,1,.73,6.41c-1.15,2.8-4.27,4.14-6.42,6.26-3.95,3.89-4.34,10-4.49,15.57a5.51,5.51,0,0,1-1.91-5A18.74,18.74,0,0,0,328.47,578.58Z" transform="translate(-325 -408.62)"/><path class="cls-2" d="M365.5,596a31,31,0,0,0-1.25-9.52c-.74-2.49-1.78-4.89-2.29-7.43l-.95,1.47a4.37,4.37,0,0,0-.91-3.28c-.68-1-1.55-1.75-2.28-2.66a17.63,17.63,0,0,1-3.14-7.81,8.06,8.06,0,0,0-1,4.84c-.26-2.33-2.31-4-4.16-5.42s-3.83-3.22-3.86-5.57a46.29,46.29,0,0,0-2.34,7.77,15.18,15.18,0,0,0,.54,8,8.21,8.21,0,0,1-3.22-5.3,20,20,0,0,0-4.36,14.55l-1.92-1.7a27.24,27.24,0,0,1-1.22,4.82,27.36,27.36,0,0,0-1,6,15.28,15.28,0,0,0,1.66,8.51,13.21,13.21,0,0,0,8.16,5.84,25,25,0,0,0,10.23.21c4.53-.71,9.35-2.42,11.66-6.38A14.37,14.37,0,0,0,365.5,596Z" transform="translate(-325 -408.62)"/></g></g></svg>