<?xml version="1.0" encoding="utf-8"?>
<!-- Generator: Adobe Illustrator 22.0.1, SVG Export Plug-In . SVG Version: 6.00 Build 0)  -->
<svg version="1.1" id="Layer_1" xmlns="http://www.w3.org/2000/svg" xmlns:xlink="http://www.w3.org/1999/xlink" x="0px" y="0px"
	 viewBox="0 0 149.1 179" style="enable-background:new 0 0 149.1 179;" xml:space="preserve">
<style type="text/css">
	.st0{fill:#F7941D;}
	.st1{fill:#010101;}
	.st2{fill:#B92025;}
	.st3{fill:#8F191C;}
	.st4{fill:#FFFFFF;}
	.st5{fill:#E5E6E7;}
	.st6{fill:#FCCA59;}
	.st7{fill:none;stroke:#444341;stroke-width:0.25;stroke-miterlimit:10;}
</style>
<path class="st0" d="M-426.3,252.2c0,0,40.2,37.1,29.1,93.8c-9.6,49-34.2,30.5-34.2,30.5"/>
<title>charicon</title>
<g id="Layer_2_1_">
	<g id="Layer_1-2">
		<path class="st0" d="M4,139.4c-10.7-20.9,3.7-26.8,2.9-67.2c-2.2-96.3,137.4-96.3,135.4,0c-1,40.3,13.5,46.3,2.9,67.2
			C118.4,192.1,30.7,192.1,4,139.4z"/>
		<path class="st0" d="M74.5,0c34.4,0,68.9,24,67.8,72.2c-1,40.3,13.5,46.3,2.9,67.2c-13.4,26.4-42,39.6-70.6,39.6L74.5,0L74.5,0z"
			/>
		<path class="st1" d="M35.7,135c-17.1-6.3-22.4-8.7-24.3-9.1c-0.8-0.2-1.6,0-1,1c9,13.2,40,39.8,62.1,39.8s53.1-26.6,62-39.8
			c0.6-1-0.1-1.2-1-1c-1.9,0.4-7.3,2.7-24.2,9.1C84.3,144.1,60.6,144.1,35.7,135L35.7,135z"/>
		<path class="st2" d="M35.7,135c-1.7-0.6-3.1-1.2-4.5-1.7c-2.5,2.7-4.6,5.7-6.4,8.9c13.6,12.1,32.7,24.5,47.7,24.5
			s34.1-12.4,47.7-24.5c-1.8-3.2-4-6.2-6.4-8.9c-1.4,0.5-2.9,1.1-4.4,1.7C84.3,144.1,60.7,144.1,35.7,135L35.7,135z"/>
		<path class="st3" d="M74.5,166.6c14.7-1.1,32.8-12.8,45.7-24.3c-1.8-3.2-4-6.2-6.4-8.9c-1.4,0.5-2.9,1.1-4.4,1.6
			c-11.1,4.3-22.9,6.6-34.8,6.9L74.5,166.6L74.5,166.6z"/>
		<path class="st4" d="M44.1,156.7c2.3,1.3,4.4,2.6,6.7,3.7c-0.1-2.1-0.4-8.2-2.9-8C46.5,152.5,45.2,154.5,44.1,156.7L44.1,156.7z
			 M94.2,160.4c2.3-1.1,4.4-2.4,6.7-3.7c-1.1-2.1-2.4-4.2-3.8-4.3C94.7,152.2,94.3,158.2,94.2,160.4L94.2,160.4z M109,135
			c-2.4,0.9-4.8,1.7-7.3,2.4c1,2.4,3.2,6.9,5.2,5.9C108.8,142.2,109.1,138.1,109,135L109,135z M43.2,137.4c-2.4-0.7-4.9-1.4-7.3-2.4
			c-0.1,3.1,0.2,7.3,2,8.2C40,144.3,42.3,139.8,43.2,137.4L43.2,137.4z"/>
		<path class="st5" d="M94.2,160.4c2.3-1.1,4.4-2.4,6.7-3.7c-1.1-2.1-2.4-4.2-3.8-4.3C94.7,152.2,94.3,158.2,94.2,160.4L94.2,160.4z
			 M109,135c-2.4,0.9-4.8,1.7-7.3,2.4c1,2.4,3.2,6.9,5.2,5.9C108.8,142.2,109.1,138.1,109,135L109,135z"/>
		<path class="st1" d="M65.1,129.1c0.8,0,1.3,0.7,1.3,1.4l0,0c0,0.8-0.6,1.4-1.4,1.4s-1.4-0.6-1.4-1.4c0-0.8,0.6-1.4,1.3-1.4
			C65,129.1,65,129.1,65.1,129.1z"/>
		<path class="st1" d="M84.1,129.1c0.7,0,1.3,0.6,1.3,1.4l0,0c0.1,0.7-0.4,1.4-1.1,1.5s-1.4-0.4-1.5-1.1c0-0.1,0-0.2,0-0.3
			C82.7,129.8,83.3,129.2,84.1,129.1C84,129.1,84,129.1,84.1,129.1z"/>
		<path class="st4" d="M23.1,107.5c3.2,0.6,14.3,2.3,18.1-2.7c4.4-5.8,1.1-52.7-12.3-53.7C13.8,50,9.6,104.9,23.1,107.5z"/>
		<path class="st1" d="M24.4,107.8c4.4,0.7,13.5,1.6,16.8-3c3.6-4.8,2-37-6-49.2c-8.3,0.3-15.1,13.9-15.1,30.7
			C20.1,94.7,21.8,102.3,24.4,107.8z"/>
		<path class="st4" d="M32.7,79.1c-2.1,0-3.8-4.1-3.8-9.2s1.7-9.3,3.8-9.3s3.8,4.2,3.8,9.3S34.9,79.1,32.7,79.1z"/>
		<path class="st4" d="M126.1,107.5c-3.3,0.6-14.4,2.3-18.3-2.7c-4.4-5.8-1-52.7,12.3-53.7C135.4,50,139.4,104.9,126.1,107.5
			L126.1,107.5z"/>
		<path class="st1" d="M124.6,107.8c-4.3,0.7-13.5,1.6-16.8-3c-3.6-4.8-1.9-37,6-49.2c8.5,0.2,15.2,13.8,15.2,30.7
			C128.9,94.6,127.3,102.3,124.6,107.8L124.6,107.8z"/>
		<path class="st4" d="M116.3,79.1c2.2,0,3.8-4.1,3.8-9.2s-1.7-9.3-3.8-9.3s-3.8,4.2-3.8,9.3S114.2,79.1,116.3,79.1z"/>
	</g>
</g>
<image style="overflow:visible;enable-background:new    ;" width="602" height="563" xlink:href="../../../Desktop/main-qimg-86d0a95219674e71acd12b8a40426021.png"  transform="matrix(0.373 0 0 0.373 -533.6667 -231.976)">
</image>
<image style="display:none;overflow:visible;" width="610" height="700" xlink:href="../../../Desktop/Screen Shot 2018-05-11 at 10.28.40 AM.png"  transform="matrix(0.4724 0 0 0.4724 -561.2745 66.7032)">
</image>
<path class="st0" d="M-361.2,517.8c84-29,59.5-92.2,59.5-92.2c-27.6,76.4-65.9,59.2-65.9,59.2s-11.2-16-20.5-40.2
	s-29.1-20.2-29.1-20.2s19.9,6.3,46.2,2.4c26.3-3.9,28.1-28.1,11.5-30.2c-16.6-2.1-68-22.4-68-22.4h-63.5c0,0-46,29.4-58.2,41
	c-10.9,10.4-7.3,15,45,14.6c0,0,0.4,33.9,2.1,39.5c1.7,5.6-46.3,16.7-24.9,59.6c0,0-29.6,31.3,11.6,23.6
	c41.2-7.7,36.7-16.3,36.7-16.3s8.8-13.3,21.6-12.4c12.9,0.9,16.6,8.1,42.2,6c0,0,17.4,22.3,23.9,31.3c8,11.2,60,5.1,28.7-24.9
	L-361.2,517.8z"/>
<path class="st6" d="M-301.7,425.6c0,0-2.7,62.4-60,84.8l0.4,7.4c0,0.6,31.8-12.7,44-25.2c11.1-11.3,18.2-28.8,18.9-43.4
	S-301.7,425.6-301.7,425.6z"/>
<path class="st7" d="M-378.2,474.2c0,0,20,26.6,16,62"/>
<path class="st6" d="M-411.9,469c0,0-21.6-76.9-49.6-80.7c-27.9-3.8-40.7,40.7-40.7,46.4s-1.3,68.6,45.1,85.1s46.8,9.7,46.8,9.7
	S-429.9,545.2-411.9,469z"/>
<g>
	<g>
		<path class="st0" d="M-281.8,414.6c-0.2,4.4-2,9-0.1,12.9c0.6-1.4,2-2.5,3.5-2.6c-2,2.7-2,6.5-3.1,9.7c-1.4,4.1-4.7,7.3-8.6,9.1
			c-3.9,1.9-8.2,2.5-12.5,2.6c-5.9,0.1-12.3-1.2-16.2-5.6c-1.3-1.5-2.2-3.3-3-5.1c-3.2-7.9-2.8-17.1,1-24.7c-0.4,1.5,0,3.1,1,4.3
			c-0.7-5.2,1.9-10.1,4.1-14.8c2.2-4.7,4.1-10.2,2-15c1.9,3.1,3.2,6.5,3.7,10.1c-0.7-4.8,1.4-9.7,4.6-13.3c3.2-3.6,7.6-6.1,12-8
			c-1.6,1.5-3.3,3.1-4.4,5c-1.1,1.9-1.6,4.4-0.7,6.4c1.2,2.8,4.3,4.1,6.4,6.3c3.9,3.9,4.3,10,4.5,15.6c1.5-1.2,2.2-3.2,1.9-5
			C-282.9,405.9-281.6,410.3-281.8,414.6z"/>
	</g>
	<g>
		<path class="st6" d="M-318.9,432c-0.1-3.2,0.3-6.4,1.3-9.5c0.7-2.5,1.8-4.9,2.3-7.4c0.3,0.5,0.6,1,0.9,1.5
			c-0.2-1.1,0.2-2.3,0.9-3.3c0.7-1,1.5-1.7,2.3-2.7c1.8-2.2,2.6-5,3.1-7.8c0.8,1.5,1.2,3.2,1,4.8c0.3-2.3,2.3-4,4.2-5.4
			c1.9-1.4,3.8-3.2,3.9-5.6c0.9,2.5,1.9,5.1,2.3,7.8c0.5,2.7,0.4,5.5-0.5,8c1.7-1.3,2.9-3.2,3.2-5.3c3.3,4,4.9,9.4,4.4,14.5
			c0.6-0.6,1.3-1.1,1.9-1.7c0.2,1.7,0.8,3.2,1.2,4.8c0.6,2,0.9,4,1,6c0.2,2.9-0.2,6-1.7,8.5c-1.7,3-4.8,5-8.2,5.8
			c-3.3,0.9-6.8,0.7-10.2,0.2c-4.5-0.7-9.4-2.4-11.7-6.4C-318.5,436.9-318.8,434.4-318.9,432z"/>
	</g>
</g>
<g id="Layer_2_2_">
	<g id="Layer_1-2_1_">
		<path class="st0" d="M-515.6,354.6c-6.8-16.1,4.7-20.6,6.8-51.7c4.8-74.2,112.3-74.2,104.3,0c-3.5,31,7.3,35.7-2.3,51.7
			C-431,395.1-498.6,395.1-515.6,354.6z"/>
		<path class="st0" d="M-451.9,247.2c26.5,0,51.4,18.5,47.3,55.6c-3.5,31,7.3,35.7-2.3,51.7c-12.1,20.3-35,30.5-57,30.5
			L-451.9,247.2L-451.9,247.2z"/>
		<path class="st1" d="M-490.9,351.2c-12.7-4.9-16.7-6.7-18.1-7c-0.6-0.2-1.2,0-0.8,0.8c6,10.2,28.1,30.6,45.1,30.6
			s42.7-20.5,50.4-30.6c0.5-0.8,0-0.9-0.7-0.8c-1.5,0.3-5.8,2.1-19.2,7C-454,358.2-472.3,358.2-490.9,351.2L-490.9,351.2z"/>
		<path class="st2" d="M-490.9,351.2c-1.3-0.5-2.3-0.9-3.4-1.3c-2.1,2.1-3.9,4.4-5.5,6.9c9.7,9.3,23.5,18.9,35.1,18.9
			c11.6,0,27.1-9.5,38.4-18.9c-1.2-2.5-2.7-4.8-4.3-6.9c-1.1,0.4-2.3,0.8-3.5,1.3C-454,358.2-472.2,358.2-490.9,351.2L-490.9,351.2z
			"/>
		<path class="st3" d="M-463.1,375.5c11.4-0.8,26.1-9.9,36.8-18.7c-1.2-2.5-2.7-4.8-4.3-6.9c-1.1,0.4-2.3,0.8-3.5,1.2
			c-8.8,3.3-18.1,5.1-27.3,5.3L-463.1,375.5L-463.1,375.5z"/>
		<path class="st4" d="M-485.9,367.9c1.7,1,3.2,2,4.9,2.8c0.1-1.6,0.2-6.3-1.7-6.2C-483.7,364.7-484.9,366.2-485.9,367.9
			L-485.9,367.9z M-447.5,370.7c1.8-0.8,3.5-1.8,5.4-2.8c-0.7-1.6-1.6-3.2-2.6-3.3C-446.6,364.4-447.3,369-447.5,370.7L-447.5,370.7
			z M-434.4,351.2c-1.9,0.7-3.8,1.3-5.8,1.8c0.6,1.8,2,5.3,3.6,4.5C-435.1,356.7-434.5,353.6-434.4,351.2L-434.4,351.2z M-485.2,353
			c-1.8-0.5-3.7-1.1-5.5-1.8c-0.3,2.4-0.3,5.6,1,6.3C-488.2,358.3-486.1,354.9-485.2,353L-485.2,353z"/>
		<path class="st5" d="M-447.5,370.7c1.8-0.8,3.5-1.8,5.4-2.8c-0.7-1.6-1.6-3.2-2.6-3.3C-446.6,364.4-447.3,369-447.5,370.7
			L-447.5,370.7z M-434.4,351.2c-1.9,0.7-3.8,1.3-5.8,1.8c0.6,1.8,2,5.3,3.6,4.5C-435.1,356.7-434.5,353.6-434.4,351.2L-434.4,351.2
			z"/>
		<path class="st1" d="M-467.8,346.6c0.6,0,1,0.5,0.9,1.1l0,0c-0.1,0.6-0.6,1.1-1.2,1.1s-1-0.5-1-1.1c0.1-0.6,0.6-1.1,1.1-1.1
			C-467.9,346.6-467.9,346.6-467.8,346.6z"/>
		<path class="st1" d="M-453.2,346.6c0.5,0,1,0.5,0.9,1.1l0,0c0,0.5-0.4,1.1-0.9,1.2c-0.5,0.1-1.1-0.3-1.1-0.8c0-0.1,0-0.2,0-0.2
			C-454.3,347.2-453.8,346.7-453.2,346.6C-453.3,346.6-453.3,346.6-453.2,346.6z"/>
		<path class="st4" d="M-498.7,330c2.4,0.5,10.9,1.8,14.1-2.1c3.8-4.5,4.4-40.6-5.9-41.3C-502,285.7-508.9,328-498.7,330z"/>
		<path class="st1" d="M-497.7,330.2c3.3,0.5,10.3,1.2,13.1-2.3c3.1-3.7,4-28.5-1.3-37.9c-6.4,0.2-12.6,10.7-13.7,23.6
			C-500.2,320.1-499.4,326-497.7,330.2z"/>
		<path class="st4" d="M-489.4,308.1c-1.6,0-2.6-3.2-2.3-7.1s1.9-7.2,3.6-7.2s2.6,3.2,2.3,7.2C-486.2,305-487.7,308.1-489.4,308.1z"
			/>
		<path class="st4" d="M-419.4,330c-2.6,0.5-11.2,1.8-13.9-2.1c-3-4.5,2.8-40.6,13.1-41.3C-408.4,285.7-409,328-419.4,330
			L-419.4,330z"/>
		<path class="st1" d="M-420.6,330.2c-3.4,0.5-10.5,1.2-12.7-2.3c-2.4-3.7,1-28.5,7.9-37.9c6.5,0.2,10.8,10.6,9.6,23.6
			C-416.4,320.1-418.1,326-420.6,330.2L-420.6,330.2z"/>
		<path class="st4" d="M-425,308.1c1.7,0,3.2-3.2,3.5-7.1c0.3-3.9-0.7-7.2-2.3-7.2s-3.2,3.2-3.6,7.2
			C-427.7,305-426.6,308.1-425,308.1z"/>
	</g>
</g>
</svg>
