<svg xmlns="http://www.w3.org/2000/svg" viewBox="0 0 175.16 153.8"><defs><style>.cls-1{fill:#52c7e4;}.cls-1,.cls-2,.cls-3,.cls-4,.cls-5,.cls-6,.cls-7{fill-rule:evenodd;}.cls-2{fill:#fff;}.cls-3{fill:#010101;}.cls-4{fill:#b92025;}.cls-5{fill:#8f191c;}.cls-6{fill:#109cba;}.cls-7{fill:#0d8ca6;}</style></defs><title>squirtleicon</title><g id="Layer_2" data-name="Layer 2"><g id="Layer_1-2" data-name="Layer 1"><path class="cls-1" d="M87.58,153.8c-35.32,0-71.71-19.57-85.19-46.89-4.77-9.67-.84-17.07-1.31-31.62C-.24,33.77,39.73,0,87.58,0s87.82,33.77,86.5,75.29c-.47,14.55,3.46,21.95-1.31,31.62-13.48,27.32-49.87,46.89-85.19,46.89Z"/><path class="cls-2" d="M23.86,97.24c3.7.6,16.11,2.27,20.41-2.5,4.89-5.49,1.07-49.28-13.84-50.12-17.06-.95-21.6,50.24-6.57,52.62Z"/><path class="cls-3" d="M25.42,97.48c4.89.72,15,1.43,18.85-2.74,4-4.42,2.26-34.61-6.68-45.82C28.16,49,20.52,61.81,20.52,77.55a40.25,40.25,0,0,0,4.9,19.93Z"/><path class="cls-2" d="M34.72,70.87c-2.38,0-4.29-3.93-4.29-8.71s1.91-8.59,4.29-8.59S39,57.39,39,62.16s-1.91,8.71-4.3,8.71Z"/><path class="cls-2" d="M151.29,97.24c-3.7.6-16.22,2.27-20.4-2.5-5-5.49-1.19-49.28,13.72-50.12,17.06-.95,21.72,50.24,6.68,52.62Z"/><path class="cls-3" d="M149.74,97.48c-4.89.72-15.15,1.43-18.85-2.74-4.06-4.42-2.27-34.61,6.68-45.82,9.43.12,17,12.89,17,28.63,0,7.76-1.79,14.8-4.78,19.93Z"/><path class="cls-2" d="M140.44,70.87c2.26,0,4.17-3.93,4.17-8.71s-1.91-8.59-4.17-8.59-4.3,3.82-4.3,8.59,1.91,8.71,4.3,8.71Z"/><path class="cls-3" d="M22.67,107.15c6.44.23,29.35,1.19,43.31,2,11.34.84,16.83,1.2,19.45,2,2.27.6,2,1,2.15,1s-.24-.36,1.91-1c2.62-.83,8.11-1.19,19.69-2,14-.83,36.86-1.79,43.31-2,1.91,0,1.55.71,1.07,2.14-15.75,51.19-116.21,51.19-132,0-.48-1.43-.84-2.14,1.07-2.14Z"/><path class="cls-4" d="M42.72,108c8,.36,16.58.84,23.26,1.19,11.34.84,16.83,1.2,19.45,2,2.27.6,2,1,2.15,1s-.24-.36,1.91-1c2.62-.83,8.11-1.19,19.69-2,6.56-.35,15.27-.83,23.14-1.19,5.85,5.85,9.19,12.89,9.19,20.52v.24c-26.13,25.3-81.73,25.3-107.86,0v-.24c0-7.63,3.34-14.67,9.07-20.52Z"/><path class="cls-5" d="M87.58,112.16c0-.12.12-.36,1.91-1,2.62-.83,8.11-1.19,19.69-2,6.56-.35,15.27-.83,23.14-1.19,5.85,5.85,9.19,12.89,9.19,20.52v.24c-13.12,12.65-33.53,19-53.93,19Z"/><path class="cls-6" d="M80.06,98a1.61,1.61,0,1,1,0,3.22,1.61,1.61,0,0,1-1.67-1.55A1.63,1.63,0,0,1,80.06,98Z"/><path class="cls-7" d="M95.1,98a1.63,1.63,0,0,1,1.67,1.67A1.67,1.67,0,1,1,95.1,98Z"/></g></g></svg>