<svg xmlns="http://www.w3.org/2000/svg" viewBox="0 0 1168.48 1120.64"><defs><style>.cls-1,.cls-8{fill:#52c7e4;}.cls-2{fill:#fbb040;}.cls-3{fill:#fff;}.cls-4{fill:#884e3a;}.cls-5,.cls-6,.cls-7{fill:none;}.cls-5{stroke:#3c2415;}.cls-5,.cls-6,.cls-7,.cls-8{stroke-miterlimit:10;}.cls-5,.cls-6{stroke-width:6px;}.cls-6,.cls-8{stroke:#231f20;}.cls-7{stroke:#27aae1;}.cls-7,.cls-8{stroke-width:4px;}</style></defs><title>squirtback</title><g id="Layer_2" data-name="Layer 2"><g id="Layer_1-2" data-name="Layer 1"><path class="cls-1" d="M599.64,953.61s-12.8,46.93-22.76,52.62,17.07,24.17,0,28.44-184.86,28.44-197.66-12.8,170.64-96.7,170.64-96.7Z"/><path class="cls-1" d="M488.69,427.62s-124.24-46.54-165.87,58.46,57.93,117.66,57.93,117.66S565.4,558.49,532.81,478.83,488.69,427.62,488.69,427.62Z"/><path class="cls-2" d="M892.09,783.22S883.61,847.3,836.56,881s-103.62,13.33-103.62,13.33,47.72-193.18,118.3-207.67S892.09,783.22,892.09,783.22Z"/><path class="cls-1" d="M618.83,169.94s75-210,290.42-163.1c169.4,36.91,249,173.53,258.76,318.49a203.73,203.73,0,0,1-6.92,68.16c-18.06,65.17-67.95,118.94-135.45,139.2q-4.92,1.47-9.91,2.69H846S656,429.77,620.39,396.28C566.12,345.19,618.83,169.94,618.83,169.94Z"/><path class="cls-1" d="M854.52,516.11s132.27-16,187.38,47.63,117.23,130.73,73.15,195.86-146.3-35.07-146.3-35.07-114.23,17-143.28-59.12S802.42,531.14,854.52,516.11Z"/><path class="cls-1" d="M822.26,850.11S981.32,932,918.17,1067.66c0,0,84.21,51.13,4.68,51.13s-147.37,19-156.73-65.17c0,0-131-46.78-135.67-79.53C630.45,974.09,754.42,957.71,822.26,850.11Z"/><path class="cls-1" d="M523.39,937.66s-113.08-70.07-137-132.19S290.87,539.51,130,623.92-43.58,934.48,98.16,983.85,394.39,1030,523.39,937.66Z"/><path class="cls-3" d="M585.45,390.81S794.4,330.1,884.76,505.17c0,0-76.24,25.41-66.36,88.95S873.46,711.3,873.46,711.3c-.1.47-1.62,77.19-26.82,121.42C821,877.75,743.57,985.19,625,979.55s-162.36-83.3-162.36-83.3-63.53-16.94-83.3-94.59-45.18-112.95-91.77-155.31C287.55,646.35,339.79,413.4,585.45,390.81Z"/><path class="cls-4" d="M793.66,463.16s12.2,49.1,4.78,93.74,44.45,131.22,49.69,201.22c4.22,56.49-117,182.29-190.22,169.56s-117.73-48.78-167.57-40.3c0,0-57.27-8.48-87-122s-71.05-123-71.05-123S393.58,426,636.7,395.28C636.7,395.28,721.54,384.68,793.66,463.16Z"/><path class="cls-5" d="M606.36,408.07s-92,68-92,102.47L411.63,563l-19.4-24.25"/><polyline class="cls-5" points="378.58 652.35 411.63 563 514.4 510.54 606.36 594.98 793.73 525.53"/><polyline class="cls-5" points="499.29 887.85 457.08 786.71 592.95 715.75 606.36 594.98"/><line class="cls-6" x1="457.08" y1="786.71" x2="392.23" y2="728.77"/><polyline class="cls-5" points="592.95 715.75 724.67 786.71 815.62 728.77 815.62 639.71"/><path class="cls-7" d="M179,1003.2s150.57-20.51,118.63-144.85S179,838.94,179,838.94"/><path class="cls-8" d="M921.37,380.63"/></g></g></svg>