<svg xmlns="http://www.w3.org/2000/svg" viewBox="0 0 1316.38 1183.82"><defs><style>.cls-1{fill:#52c7e4;}.cls-2,.cls-6{fill:#fbb040;}.cls-3,.cls-8{fill:#fff;}.cls-4{fill:#8b5e3c;}.cls-5,.cls-7{fill:none;}.cls-5,.cls-6{stroke:#231f20;stroke-width:3px;}.cls-5,.cls-6,.cls-7{stroke-miterlimit:10;}.cls-7{stroke:#27aae1;stroke-width:4px;}.cls-10,.cls-8,.cls-9{fill-rule:evenodd;}.cls-9{fill:#010101;}.cls-10{fill:#b92025;}</style></defs><title>squirtfront</title><g id="Layer_2" data-name="Layer 2"><g id="Layer_1-2" data-name="Layer 1"><path class="cls-1" d="M1050.94,712c70.23-20.81,200.13-80.57,254.71,94.87S1190,1025.17,1165.3,1009.58c0,0-96.16,23.39-152,19.49s-189.74-15.6-189.74-15.6l-15.59-78,62.38,5.2S947.46,742.65,1050.94,712Z"/><path class="cls-1" d="M304.44,855.23s-75.52,140.84,0,213.22c0,0-75.52,52.72,34.61,51.53s148-7.48,165.27-51.53,10.61-80.84,10.61-80.84S367.37,918.91,304.44,855.23Z"/><path class="cls-2" d="M217.58,479.11s218.17,18,241.27-28.23l151.44-56.47L772,438.48l35.94,469.28s-302.88,179.67-462,0-127.74-311.4-127.74-311.4L84.11,515.05Z"/><path class="cls-1" d="M147.66,432.41S5.24,400.89.11,454.79C-4.7,505.22,155.18,661,200.31,665.26c82.14,7.7,64.17-184.8,64.17-184.8Z"/><path class="cls-1" d="M147.84,431.43A177,177,0,0,1,87.53,274.87c10.81-86.6,53.56-221.22,211.6-263.31C538.47-52.2,693.48,164.35,675.24,257.81S670.68,465.24,456.41,492.6C305.7,511.84,210.25,484.84,147.84,431.43Z"/><path class="cls-3" d="M667.71,298.16s46.2,39.78,43.63,145c0,0,159.14,71.87,84.71,320.84,0,0,97.53,120.64,77,177.11s-28.23,25.66-28.23,25.66-71.87-138.6-105.24-172S775.51,579.22,737,533s-79.57-89.84-79.57-89.84l-18-48.77S650.92,383.45,667.71,298.16Z"/><path class="cls-4" d="M687.14,328.69s371.53,166.21,193.1,616c0,0-41.56-119.77-85.55-149.1s9.37-117.33,13.24-210.21-111-141.08-111-141.08Z"/><path class="cls-5" d="M566.78,571.7s-88.19,26.61-173.25,34.47c-49.54,4.59-98,2.81-127.39-14.27"/><path class="cls-6" d="M497.37,975.18l69.41-30.53S394.7,774.85,393.53,606.17"/><line class="cls-6" x1="653.39" y1="944.65" x2="566.78" y2="944.65"/><polyline class="cls-6" points="446.02 782.24 610.09 740.53 657.95 636.67"/><polyline class="cls-6" points="229.18 657.85 318.46 790.68 416.46 782.24"/><polyline class="cls-6" points="380.4 905.54 639.48 851.54 710.39 746.53"/><path class="cls-1" d="M808.34,1085.65S867.93,916.19,773,871.49,605.88,877.08,610.28,987s-12.37,159.83,36.05,180.63,137.8,26.07,156.42-11.17S808.34,1085.65,808.34,1085.65Z"/><path class="cls-7" d="M1243.33,913.14s46.75-90.23-80.44-75-56.53,159.8,0,170.67"/><path class="cls-8" d="M149.51,319.82c13,2.09,56.44,7.94,71.5-8.78,17.14-19.23,3.76-172.68-48.51-175.61-59.79-3.35-75.68,176-23,184.39Z"/><path class="cls-9" d="M154.94,320.66c17.15,2.51,52.69,5,66.07-9.62,14.21-15.47,7.94-121.26-23.42-160.56-33,.42-59.79,45.16-59.79,100.35,0,27.18,6.69,51.85,17.14,69.83Z"/><path class="cls-8" d="M187.56,227.42c-8.37,0-15.06-13.8-15.06-30.53s6.69-30.1,15.06-30.1,15.05,13.38,15.05,30.1-6.69,30.53-15.05,30.53Z"/><path class="cls-8" d="M473.85,318.26c-13,2.09-56.45,7.94-71.5-8.78-17.15-19.24-3.77-172.69,48.5-175.61,59.79-3.35,75.68,176,23,184.39Z"/><path class="cls-9" d="M468.41,319.09c-17.14,2.51-52.68,5-66.06-9.61-14.22-15.47-8-121.26,23.41-160.56,33,.42,59.79,45.15,59.79,100.35,0,27.17-6.69,51.84-17.14,69.82Z"/><path class="cls-8" d="M435.8,225.85c8.36,0,15.05-13.8,15.05-30.52s-6.69-30.11-15.05-30.11-15.06,13.38-15.06,30.11,6.69,30.52,15.06,30.52Z"/><path class="cls-1" d="M656,437.8s-75.06-25.53-140.38,106.81a338.73,338.73,0,0,0-17.12,40.65c-33.93,100,24.57,129.1,103.15,92C690,635.62,740.58,563.84,730.18,515.67S706.56,432,656,437.8Z"/><path class="cls-9" d="M166.27,351.58c16.32.83,74.32,4.11,109.54,6.8,28.54,2.63,42.38,3.77,48.7,6.16,5.52,1.71,4.75,2.7,5.05,2.7s-.45-1,5.29-2.59c7.07-2.24,21.22-3.08,51.1-5.08,36-1.93,94.8-3.95,111.34-4.43,4.86.05,3.63,2,1.79,6-62.77,141.36-318.94,138.6-336.5-3.62-.58-4-1.18-6,3.69-5.92Z"/><path class="cls-10" d="M217,354.44c20.23,1.21,41.92,2.77,58.8,3.94,28.54,2.63,42.38,3.77,48.7,6.16,5.52,1.71,4.75,2.7,5.05,2.7s-.45-1,5.29-2.59c7.07-2.24,21.22-3.08,51.1-5.08,16.89-.81,39.31-1.89,59.55-2.67,12.33,16.36,17.74,36,14.36,57.1l-.1.66c-77.8,69.35-219.58,67.83-275-3l.11-.66c3.37-21.15,15-40.56,32.18-56.6Z"/></g></g></svg>