<?xml version="1.0" encoding="utf-8"?>
<!-- Generator: Adobe Illustrator 22.0.1, SVG Export Plug-In . SVG Version: 6.00 Build 0)  -->
<svg version="1.1" id="Layer_2_1_" xmlns="http://www.w3.org/2000/svg" xmlns:xlink="http://www.w3.org/1999/xlink" x="0px" y="0px"
	 viewBox="0 0 1403.1 997.6" style="enable-background:new 0 0 1403.1 997.6;" xml:space="preserve">
<style type="text/css">
	.st0{fill:#7EA04D;}
	.st1{fill:#C0CA33;}
	.st2{fill:#7FB036;}
	.st3{fill:#89C446;}
	.st4{fill:#96D352;}
</style>
<title>stadiumbg</title>
<polygon class="st0" points="1402.2,476.5 1403.1,707.6 0,707.6 2.2,509.2 "/>
<polygon class="st0" points="2.2,427 2.2,342.9 104.8,308.1 1134.9,439.4 1159.6,465.3 745.2,509.2 52.7,475.7 "/>
<polygon class="st1" points="799.2,474.4 1253.2,427 1402.2,443.1 1402.2,491.1 1290,503.6 799.2,493.1 "/>
<polygon class="st2" points="2.2,580.1 1290,503.6 2.2,427 "/>
<path class="st3" d="M1402.2,970.5l-0.3-311c-0.9-0.3-1.7-0.4-2.6-0.3c-1.1-2-2.5-3.8-4.2-5.3c-0.9-0.9-1.9-1.7-3-2.4
	c-0.8-0.5-1.3-0.8-1.3-0.8c0.5,1.5,1,3,1.3,4.5c0.1,0.4,0.2,0.9,0.3,1.3c-1.4-2.7-3.4-5.1-5.7-7.1c-1.3-1.1-2.7-2.1-4.2-3
	c-1.1-0.7-1.8-1-1.8-1l1,1.6c0.8,1.3,1.5,2.6,2.2,4c0.5,1,0.9,2,1.3,3c-1-0.9-2-1.8-3.2-2.6c-1.3-0.9-2.7-1.8-4.2-2.5
	c-1.1-0.5-1.8-0.8-1.8-0.8l1,1.5c0.6,0.9,1.5,2.2,2.3,3.6c0.9,1.7,1.8,3.4,2.6,5.2c-2.1-1.7-4.4-3.1-6.9-4.1c-1.3-0.5-2.6-1-4-1.3
	c-1-0.3-1.7-0.4-1.7-0.4s1.7,1.7,3.5,3.8c0.7,0.8,1.3,1.7,2,2.5h-1.6c-3.3-2.7-6.3-5.5-9.2-8.6c-1.7-1.8-3.1-3.5-4-4.7l-1.5-2
	c0,0,0.2,0.9,0.5,2.3c0.5,2,1.2,3.9,2.1,5.7c1,2.2,2.2,4.3,3.6,6.3c-2.4-2.6-5.2-5.6-7.4-8.2c-3-3.5-5.1-6.3-5.1-6.3
	s0.2,0.8,0.5,2.2c0.5,1.8,1,3.6,1.6,5.3c0.2,0.6,0.4,1.2,0.7,1.8c-1.9-1.4-4-2.5-6.1-3.5c-2.2-1-4.4-1.7-6.7-2.3
	c-1.7-0.4-2.8-0.6-2.8-0.6s0.9,0.5,2.3,1.3c1.8,1.1,3.5,2.4,5.1,3.7c1.9,1.6,3.7,3.5,5.3,5.4c0.2,0.2,0.4,0.5,0.6,0.7
	c-2.2-1.9-4.7-3.5-7.3-4.8c-3-1.6-6.1-2.8-9.3-3.8c-2.5-0.8-5.1-1.4-7.7-1.8c-1.9-0.3-3.1-0.4-3.1-0.4l2.8,1.2
	c2.2,1,4.4,2.2,6.4,3.4c3.6,2.1,6.9,4.5,10.1,7.2h-2.9c-4.2-2-9.3-4.2-13.6-6.2l-6.7-3.1c-3.2-5.3-7.1-10.3-7.1-10.3
	s1.2,11.6,4,18.2c0.2,0.4,0.4,0.8,0.6,1.1h-1c0-0.2-0.1-0.3-0.2-0.5c-1.7-4.1-4-8-6.7-11.6c-2.5-3.5-4.8-6-4.8-6s0.8,3.2,1.6,7
	l0.6,2.3c-1.5-1.5-3.2-2.9-4.9-4.1c-1.8-1.3-3.7-2.4-5.7-3.4c-1.5-0.7-2.5-1.1-2.5-1.1l1.8,1.8c1.4,1.5,2.7,3,3.9,4.6
	c2.5,3.4,4.7,7.1,6.6,11h-1.1c0-0.1-0.1-0.2-0.1-0.3c-1.2-2.1-2.8-4.1-4.7-5.7c-2-1.8-4.2-3.2-6.6-4.4c-1.9-0.9-3.9-1.7-5.9-2.3
	c-1.5-0.4-2.5-0.6-2.5-0.6s0.8,0.5,1.9,1.3c1.5,1.1,2.9,2.3,4.2,3.6c1.8,1.8,3.5,3.9,4.9,6.1c-3.2-2.7-6.8-4.9-10.6-6.6
	c-1.9-0.9-3.8-1.7-5.8-2.4l-0.4-0.4c-3.2-3.2-6-5.3-6-5.3l3,6.7c1.4,3.1,3,6.9,4.6,10h-0.8c-0.2-0.5-0.4-0.9-0.7-1.3
	c-3.7-6.4-12.8-15.5-12.8-15.5s0.9,3.6,2.4,7.9c-1.6-1.2-3.2-2.3-5-3.2c-1.8-0.9-3.7-1.7-5.7-2.2c-1.5-0.4-2.4-0.6-2.4-0.6
	s0.7,0.5,1.9,1.3c1.4,1.1,2.8,2.3,4,3.5c2.2,2.3,4.1,4.9,5.6,7.7c-2.1-1.8-4.5-3.2-7.1-4.2c-1.1-0.4-2.2-0.8-3.3-1.1
	c-0.9-2.9-2.2-5.7-3.8-8.3c-1.1-1.8-2.3-3.5-3.6-5.1c-1-1.2-1.7-1.9-1.7-1.9s0.3,0.9,0.7,2.3s0.9,3.4,1.4,5.6
	c0.8,4.6,1.3,9.2,1.4,13.9c0,0.4,0.1,0.8,0.2,1.2h-0.4c0-0.8-0.1-1.5-0.2-2.3c-0.8-4-3.6-8.8-6.5-12.3c-1.2-1.5-2.6-2.8-4-4.1
	c-1.1-1-1.8-1.5-1.8-1.5l0.9,2c0.5,1.2,1.2,2.9,1.8,4.8c1.2,4,2.2,8,3,12.1c0.1,0.5,0.2,0.9,0.4,1.3h-0.2c-0.2-2.1-0.8-4.1-1.7-5.9
	c-1.2-2.3-2.8-4.3-4.7-6c-1.5-1.4-3.2-2.5-5.1-3.5c-0.7-0.4-1.5-0.7-2.3-1c0.5,0.5,1.1,1.1,1.6,1.7c1.2,1.3,2.2,2.8,3,4.3
	c1,1.8,1.7,3.8,2.1,5.8c0.2,1,0.3,2.1,0.4,3.1c-3-3.6-6.6-6.7-10.6-9.1c-1.7-1.1-3.6-2.1-5.4-3c-1.4-0.7-2.3-1.1-2.3-1.1l1.6,1.7
	c1,1.1,2.3,2.6,3.7,4.3c2.2,2.6,4.4,5.8,6.3,8.6h-0.9c-0.2-0.3-0.3-0.5-0.5-0.8c-2.3-3.5-6.8-7.4-10.9-9.8c-1.7-1-3.5-2-5.4-2.8
	c-1.4-0.6-2.3-0.9-2.3-0.9l1.6,1.6c1,1,2.3,2.4,3.6,4c2.2,2.8,4.3,5.7,6.2,8.7h-2.4c-3-3.5-6.6-6.6-10.5-9.1c-2.1-1.4-4-2.4-5.3-3.2
	s-2.2-1.1-2.2-1.1l1.5,1.8c0.9,1.1,2.2,2.6,3.6,4.4c1.8,2.2,3.6,4.8,5.3,7.3h-1.2c-0.1-0.2-0.1-0.4-0.2-0.6c-1.3-3.4-4.4-7.3-7.5-10
	c-1.3-1.2-2.6-2.3-4.1-3.3c-1.1-0.7-1.8-1.1-1.8-1.1l0.9,1.7c0.6,1,1.3,2.5,2.1,4.1s1.4,3.2,2,4.8c-1.4-1.4-2.9-2.8-4.2-4
	c-2.9-2.9-5.1-5.4-5.1-5.4c0.4,2,1.1,4,1.8,5.9c-1.9-1.5-3.9-2.9-6-4.1c-1.7-1-3.4-1.9-5.2-2.7c-1.4-0.6-2.2-0.9-2.2-0.9l1.5,1.6
	c0.9,1,2.2,2.4,3.5,4c2.7,3.1,5.4,7,7.7,9.9h-0.8l-0.4-0.5c-3.7-3.6-7.7-6.8-12.1-9.5c-1.9-1.2-3.9-2.1-6.1-2.6
	c-0.7-0.2-1.3-0.3-2-0.3h-0.7l0.6,0.3c0.6,0.2,1.1,0.5,1.6,0.9c1.6,1,3,2.3,4.2,3.8c2.1,2.5,4.4,5.4,6.6,8.1h-2.3l-0.3-0.3
	c-5.6-4.4-15.6-9.7-19.1-11.5c-1.4-1.9-2.7-3.7-3.6-4.9l-1.5-2.2c0,0,0.2,1,0.5,2.5c0.2,1,0.6,2.4,1.1,3.9c-1.1-1.2-2.2-2.3-3.4-3.4
	c-1.1-1-1.8-1.5-1.8-1.5l0.9,2c0.5,1.2,1.2,2.9,1.9,4.9c1.1,3.5,2.1,7,2.8,10.6l0,0c-2.6-4.4-6.2-8.1-10.6-10.8
	c-1.8-1.2-3.7-2.2-5.7-3.1c-1.5-0.7-2.4-1-2.4-1l1.8,1.7c0.6,0.6,1.3,1.3,2,2.1c-1.4-0.5-2.7-1-4.1-1.3c-1.6-0.4-2.6-0.6-2.6-0.6
	s0.8,0.5,2,1.3c1.6,1.1,3.1,2.3,4.6,3.6c2.6,2.4,4.9,5.2,6.9,8.2h-5.1c-0.3-0.4-0.6-0.8-0.9-1.2c-3.1-3.3-6.7-6.1-10.7-8.3
	c-1.9-1.1-3.7-1.9-5-2.4s-2.1-0.8-2.1-0.8s2,2.1,4.3,4.8c-1.6-0.8-3.2-1.5-4.9-2.1c-0.7-2.1-1.6-4.1-2.7-6.1c-0.9-1.6-2-3.2-3.3-4.5
	c-0.5-0.5-1-0.9-1.2-1.2l-0.4-0.4c0,0,0.3,0.8,0.7,2c0.5,1.6,0.8,3.2,1,4.9c0.2,1.4,0.3,3,0.3,4.6c-1.1-1.3-2.4-2.5-3.7-3.6
	c-1.3-1-2.6-2-4.1-2.9c-1.1-0.7-1.8-1-1.8-1l0.9,1.6c0.6,1,1.3,2.3,2.1,3.8c1,1.9,1.8,4,2.6,6.1c-2.1-2.1-4.6-3.9-7.3-5.3
	c-1.6-0.8-3.2-1.5-4.9-2.1c-1.3-0.4-2.1-0.7-2.1-0.7l1.4,1.3c0.4,0.4,0.8,0.8,1.3,1.3l-0.8-0.5c-1.5-0.9-3-1.7-4.6-2.4
	c-1.2-0.5-2-0.7-2-0.7l1.3,1.4c1,1.1,1.9,2.3,2.7,3.5c1.9,2.9,3.5,6,4.8,9.2c0.3,0.6,0.6,1.1,1,1.6h-3.9c0-0.9-0.1-1.9-0.5-2.7
	c-1.2-3.3-4.5-7.2-7.7-9.6c-1.4-1-2.8-2-4.3-2.8c-1.1-0.6-1.8-0.9-1.8-0.9l1.1,1.5c0.8,1.2,1.6,2.5,2.3,3.8c1,1.8,1.8,3.6,2.5,5.5
	c-1.8-1.9-3.9-3.4-6.2-4.6c-1.4-0.8-2.9-1.4-4.5-1.9c-1.2-0.4-1.9-0.5-1.9-0.5l1.3,1.2c0.5,0.5,1.1,1.2,1.7,1.9
	c-0.7-0.6-1.5-1.1-2.3-1.5c-1.5-0.9-3.1-1.7-4.7-2.3c-1.2-0.5-2-0.7-2-0.7l1.3,1.4c1,1.1,2,2.3,2.9,3.5c1.9,2.8,3.6,5.7,5,8.8h-0.5
	c-0.1-0.1-0.2-0.3-0.4-0.4c-2.7-2.3-5.8-4-9.1-5.1c-1.4-0.5-2.6-0.8-3.6-1c-0.2-2.9-1-5.8-2.1-8.4c-0.7-1.8-1.6-3.4-2.7-5
	c-0.8-1.2-1.3-1.9-1.3-1.9s0.1,0.8,0.3,2.1c0.3,1.7,0.4,3.5,0.4,5.2c0,2-0.1,4-0.3,6c-0.7-1.1-1.6-2.1-2.6-3c-1.1-1.1-2.3-2-3.7-2.8
	c-1-0.6-1.6-0.9-1.6-0.9l0.8,1.5c0.6,1.2,1.1,2.4,1.5,3.6c0.8,2.6,1.3,5.3,1.4,8c-1.9-3.2-4.4-5.9-7.4-8.1c-1.2-1-2.6-1.8-3.9-2.6
	c-1-0.6-1.7-0.9-1.7-0.9s1.4,2.2,2.8,5.2c1.2,2.3,2.3,5,3.4,7.4c-2.5-2.5-5.4-4.6-8.6-6.1c-1.5-0.7-3-1.3-4.6-1.9
	c-1.2-0.4-1.9-0.6-1.9-0.6l1.3,1.3c0.8,0.8,1.8,1.9,2.9,3.2s2.2,2.7,3.2,4.1c-2.1-1.2-4.4-2.1-6.7-2.9c-1.3-0.5-2.6-0.8-3.5-1.1
	c-2.7-3.1-5.6-6.1-8.6-8.9c0.7,3.1,1.6,6.2,2.6,9.2c-0.5-0.6-1.1-1.2-1.6-1.7c-1.2-1.2-2.4-2.3-3.8-3.3c0,0,0.3,2.1,0.7,4.4
	c0.3,1.8,0.6,3.8,1.1,5.6h-1.4c-0.2-1.2-0.6-2.4-1.1-3.6c-0.8-1.8-1.9-3.4-3.3-4.8c-1.1-1.1-2.3-2.1-3.6-3c-1-0.6-1.6-1-1.6-1
	s0.3,0.6,0.8,1.5c0.6,1.2,1.1,2.4,1.4,3.7c0.4,1.4,0.6,2.8,0.7,4.2c-1.8-2.2-4.1-4-6.6-5.4c-1.4-0.7-2.8-1.3-4.2-1.8
	c-1.1-0.3-1.8-0.5-1.8-0.5l1.2,1.2c0.9,0.9,1.7,2,2.5,3c0.8,1.2,1.6,2.4,2.2,3.7c-2.7-2-5.6-3.6-8.7-4.7c-1.6-0.6-3.3-1.1-5-1.5
	c-1.3-0.3-2.1-0.4-2.1-0.4l1.6,1.2c1,0.7,2.2,1.8,3.6,3c1.8,1.7,3.6,3.4,5.2,5.2h-1.8c-0.4-0.4-0.8-0.8-1.2-1.1
	c-3.4-2.4-7.1-4.2-11-5.6c-2.2-0.8-4.5-1.5-6.7-2.1l4.8,4.3c1.5,1.4,3.2,3,4.9,4.4h-1.6c-0.3-0.5-0.7-0.9-1.2-1.3
	c-2.2-2-5.3-4.5-7.5-6.9c-1.1-1.2-2.1-2.3-2.7-3.2l-1-1.4c0,0,0,0.6,0,1.6c0.1,1.4,0.3,2.7,0.7,4c0.7,2.6,1.9,5,3.5,7.1h-1.5
	c-0.1-0.1-0.2-0.3-0.3-0.4c-2.1-2.4-3.7-5-4.9-7.9c-0.5-1.2-0.8-2.5-1-3.8c-0.1-1-0.2-1.6-0.2-1.6s-0.4,0.5-0.9,1.5
	c-0.6,1.3-1.1,2.6-1.3,4.1c-0.3,1.8-0.3,3.7,0.2,5.6c0.2,0.9,0.5,1.8,0.9,2.6h-1.5c-0.6-1.9-2-4.5-2.8-6.7s-1.4-4.1-1.4-4.1
	c-0.8,1.3-1.5,2.7-1.9,4.2c-0.1,0.2-0.2,0.5-0.2,0.7c-0.2-1-0.5-2-0.9-3c-0.6-1.5-1.2-2.9-2-4.3c-0.6-1-1-1.6-1-1.6s0,0.7,0,1.8
	s-0.1,2.7-0.3,4.4c-0.1,0.6-0.2,1.2-0.2,1.8c-0.1-0.9-0.3-1.7-0.5-2.6c-0.4-1.5-0.9-3-1.6-4.4c-0.5-1-0.9-1.7-0.9-1.7
	s-0.1,0.7-0.2,1.8c-0.2,1.4-0.4,2.9-0.7,4.3c-0.2,1.2-0.6,2.4-1,3.7c-1-3.6-2.1-7.1-3.6-10.6c-0.7,2.9-1.3,5.8-1.8,8.8
	c-1-1.7-2.2-3.2-3.6-4.5c-1.4-1.3-2.9-2.4-4.6-3.3c-0.7-0.4-1.4-0.7-2.1-1c0,0,0.5,0.6,1.3,1.6c1,1.3,1.8,2.6,2.4,4.1
	c0.8,1.7,1.3,3.5,1.5,5.4c0.2,1.7,0.2,3.4,0.1,5.1c0,0.1,0,0.1,0,0.2h-0.1c-0.1-0.2-0.2-0.3-0.2-0.4c-2.4-3.4-5.5-6.3-9.1-8.4
	c-1.5-0.9-3-1.7-4.5-2.4c-1.2-0.5-1.9-0.8-1.9-0.8l1.2,1.5c0.7,0.9,1.7,2.2,2.7,3.6c0.1,0.2,0.3,0.4,0.4,0.6l-0.6-0.3
	c-1.3-0.6-2.7-1.1-4.1-1.6c-1.1-0.3-1.7-0.5-1.7-0.5l1.1,1.1c0.7,0.7,1.5,1.7,2.4,2.9c1,1.3,1.9,2.6,2.7,4
	c-3.4-2.5-7.2-4.3-11.3-5.4c-1.7-0.4-3.4-0.8-5.1-1c-1.3-0.2-2.1-0.2-2.1-0.2l1.7,1c1,0.7,2.4,1.6,3.8,2.6c0.3,0.2,0.6,0.5,1,0.7
	c-1.9-0.4-3.8-0.7-5-0.9c-1.4-1.8-2.9-3.4-4.7-4.8c-1.5-1.2-3-2.3-4.6-3.2c0,0,0.8,2,1.7,4.6c0.3,0.9,0.6,1.9,1,2.8
	c-1.7-1.1-3.5-2-5.4-2.7c-1.5-0.5-3-0.9-4.6-1.2c-1.2-0.2-1.9-0.2-1.9-0.2l1.4,1c1,0.8,2,1.6,2.9,2.5c0.6,0.5,1.1,1.1,1.6,1.7
	c-3.3-2.2-7-4-10.8-5.2c-1.8-0.6-3.6-1.1-5.4-1.5c-1.4-0.3-2.2-0.5-2.2-0.5l1.7,1.2c1.1,0.8,2.5,1.8,4.1,3.1c1.3,1,2.6,2.1,3.9,3.2
	c-2.2-0.7-4.4-1.3-6.6-1.8c-4-0.9-7.2-1.2-7.2-1.2l5.6,3.7l3.5,2.3H896l-0.1-0.1c-3-2.3-7.2-5.4-10.2-8.3c-1.5-1.4-2.8-2.8-3.7-3.8
	l-1.4-1.6c0,0,0.2,0.8,0.5,2c0.5,1.7,1.1,3.3,1.8,4.8c0.4,0.8,0.8,1.6,1.2,2.3c-1.3-1-2.6-2.1-3.8-3.1c-2.8-2.4-4.9-4.3-4.9-4.3
	c0.5,2,1.2,3.9,2.1,5.8c1,2.2,2.3,4.4,3.8,6.3H878l-0.1-0.1c0-0.7-0.2-1.3-0.3-2c-2-7.2-8.4-18.3-8.4-18.3s-0.1,6,0.5,12
	c-0.7-1-1.3-2-1.9-3.1c-0.5-1-0.8-1.7-0.8-1.7s-0.1,0.7-0.2,1.9c-0.1,1.5,0,2.9,0.3,4.4c-1.7-2.6-3.7-4.9-6-7.1
	c-1.3-1.3-2.8-2.5-4.2-3.6c-1.1-0.8-1.8-1.3-1.8-1.3l1,1.8c0.6,1.1,1.4,2.7,2.2,4.5c0.2,0.5,0.5,1.1,0.7,1.7
	c-1.3-1.3-2.6-2.6-4.1-3.8c-1.5-1.3-3.1-2.5-4.8-3.6c-1.3-0.8-2.1-1.3-2.1-1.3l1.2,1.8c0.8,1.2,1.8,2.8,2.8,4.6s2.3,4.1,3.3,6.2
	c-2.7-2.8-5.8-5.2-9.2-7.2c-1.8-1.1-3.7-2.1-5.6-3c-1.5-0.7-2.4-1.1-2.4-1.1l1.7,1.7c1,1.1,2.4,2.6,3.9,4.3l0.5,0.6
	c-0.3,1.7-0.8,4-1,6.4c-3.5-2.3-7.2-4.3-11.1-5.8c-2.6-1-5-1.8-6.8-2.3s-2.8-0.7-2.8-0.7l2.3,1.5c1.4,0.9,3.3,2.3,5.4,3.8
	c1.4,1,2.8,2.2,4.2,3.4c-3.2-1.9-6.5-3.4-10-4.6c-2-0.7-4.1-1.3-6.2-1.8c-1.6-0.3-2.5-0.5-2.5-0.5l0.2,0.2c-2.1-1-3.5-1.5-3.5-1.5
	s2.8,2.6,6.3,5.9c2.5,2.4,5.2,5.2,7.7,7.7h-1.1c-0.6-1.1-1.3-2.2-2.1-3.1c-5.8-6.5-17.9-15.5-17.9-15.5s3.4,6.3,7.5,12.2
	c-2-2-4.2-3.8-6.4-5.6c-3.8-2.9-6.9-4.9-6.9-4.9l4.2,6.6l2.5,3.8c-0.2-0.2-0.4-0.3-0.7-0.5c-2.7-1.7-5.6-3.2-8.6-4.3
	c-2.4-0.9-4.8-1.6-7.3-2.2l-1.4-0.3l-0.6-0.7c-0.7-0.8-1.2-1.3-1.2-1.3l0.3,1.6c0,0,0,0.1,0,0.1l0,0l0,0c0.1,1,0.3,2.4,0.4,3.9
	c0.2,1.9,0.2,4.1,0.2,6.1h-1.7c-0.5-0.3-1-0.6-1.6-0.8c-0.2-4.7-0.8-9.4-1.6-14c0,0-2.2,5.5-3.7,11.2L778,650c0-2.1-0.1-4.2-0.1-6.2
	c0-4.4,0-8.1,0-8.1c-1.2,2.5-2.3,5.1-3.3,7.7c-0.3,0.8-0.6,1.7-0.9,2.6c-0.2-1.2-0.3-2.4-0.5-3.5c-0.6-4.6-1-8.7-1.1-10.6l0.6,0.4
	l-0.7-0.8l-0.2-0.2l-0.1,0.3c-1.1,3.6-1.9,7.2-2.5,10.9c-0.4,2.4-0.7,4.8-0.8,7.3c-1.8-4.8-3.5-8.8-3.5-8.8s-0.3,4.1-0.4,9.2
	c-2.2-6-4.5-11.2-4.5-11.2s-0.2,5.9,0.1,12.5c-0.4-0.8-0.9-1.6-1.5-2.4c-1.9-2.8-4.2-5.4-6.9-7.5c-2.1-1.8-4.4-3.3-6.8-4.6
	c-0.9-0.5-1.7-0.8-2.2-1.1l-0.8-0.4l0.6,0.6c0.4,0.4,1,0.9,1.7,1.6c1.8,1.8,3.4,3.6,4.8,5.7c1.7,2.4,3.2,5.1,4.4,7.8
	c1,2.3,1.8,4.6,2.4,7h-0.7c-2.9-2.8-6.2-5.2-9.8-7.2c-2.1-1.2-4.3-2.2-6.6-3.1c-0.8-0.3-1.4-0.6-1.9-0.7s-1.2-0.5-1.7-0.8
	c-1.7-0.7-2.7-1-2.7-1l2.1,1.7c1.6,1.4,3.2,2.9,4.7,4.5c1.9,2.1,3.6,4.3,5.2,6.7l0,0c-3.5-3-7.3-5.5-11.4-7.5
	c-2.3-1.2-4.5-2.1-6-2.7s-2.5-0.9-2.5-0.9l1.9,1.6c1.2,1,2.7,2.4,4.4,4.1c1.4,1.3,2.8,2.8,4.2,4.3c-3.2-2-6.5-3.7-10-5
	c-3.2-1.3-6-2.1-7-2.4c-1.9-2.2-3.9-4.5-5.7-6.5l-5.5-6.4c0.7,2.6,1.5,5.1,2.5,7.6c1.7,4.6,4.1,9,7,13c0.2,0.3,0.5,0.6,0.7,0.9h-0.6
	c0-0.1-0.1-0.2-0.2-0.2c-1.9-2.5-4.7-5.6-6.9-8.4s-3.7-5-3.7-5c0,2,0.2,4,0.6,6c0,0.2,0.1,0.3,0.1,0.5c-1.3-1-2.6-2-4-2.8
	c-4.8-5-9.4-9.2-9.4-9.2s1.1,2.5,2.8,6c-2-0.8-4-1.4-6-1.9c-1.7-0.4-2.7-0.6-2.7-0.6l2.1,1.2c1.3,0.8,3.1,2.1,5,3.6
	c1.9,1.5,3.7,3.1,5.4,4.9c0,0,0,0,0,0.1c-4.1-2.1-8.5-3.8-12.9-5c-3-0.9-5.6-1.5-7.6-1.9l-0.7-0.1c-2.5-2.6-4.5-4.3-4.5-4.3
	s0.8,2.4,2.2,5.6c-1.9-0.4-3.5-0.6-4.9-0.8c-2-0.2-3.2-0.3-3.2-0.3l2.9,1.1c1.7,0.7,4,1.7,6.4,2.9c0.8,1.7,1.6,3.5,2.5,5.3
	c-3.5-1.9-7.5-3.8-10.8-5.6l-8.2-4.2c0,0,2.4,2.8,6,6.3c2.6,2.5,5.3,4.8,8.2,6.9h-5.5c-0.9-1.2-1.9-2.4-3-3.5
	c-3.9-3.8-9.1-8.7-13-13c-2-2.2-3.6-4.1-4.8-5.5l-1.9-2.3c0,0,0.3,1,0.9,2.7c0.8,2.2,1.8,4.4,2.8,6.5c2.7,5.6,6.4,10.7,10.7,15.2
	h-2.3l-0.8-0.9l-2.5-2.8c-0.9-1-1.9-2-2.9-3c-2-2.1-4.1-4.1-5.9-6l-6.6-6.5c0,0,1.5,3.5,3.8,8c0.3,0.5,0.6,1.1,0.9,1.6
	c-2.5-1.3-5.2-2.4-7.9-3.3c-2.4-0.8-4.8-1.4-7.3-1.9c-1.9-0.3-3-0.5-3-0.5l2.6,1.3c1.6,0.8,3.7,2,6,3.5c0.7,0.4,1.4,0.9,2.1,1.4
	c-2.1-0.9-4.2-1.6-6.4-2.1c-2.3-0.6-4.6-1-7-1.2c-1.8-0.2-2.8-0.2-2.8-0.2l2.5,1c2,0.8,4,1.8,5.9,2.8c2,1.1,3.8,2.3,5.6,3.6
	c-3.2-1.1-6.5-1.8-9.9-2.1c-2.3-0.2-4.7-0.3-7-0.3c-1.7,0.1-2.8,0.2-2.8,0.2l0.8,0.2c-1.5-0.2-3.1-0.3-4.5-0.3h-0.7
	c-0.9-2.3-1.8-4.7-2.5-6.9c-1.4-4.1-2.4-7.3-2.4-7.3c-0.5,2.5-0.9,5.1-1,7.7c-0.1,2.2-0.1,4.4,0.1,6.7l-1.2,0.1
	c-1.9,0.2-3,0.3-3,0.3l2.9,0.5l1.4,0.3c0,0.4,0.1,0.8,0.2,1.3l-0.2,0c-1.2-0.2-2.4-0.4-3.5-0.5c-1.8-1.8-3.5-3.7-4.9-5.6
	c-1.7-2.1-3.1-4-4-5.4l-1.5-2.3c0,0,0.2,1,0.5,2.6c0.5,2.2,1.2,4.3,2,6.3c1.4,3.6,3.3,6.9,5.6,10H596c-0.1-0.3-0.1-0.7-0.2-1
	c-0.6-2.5-1.3-4.9-2.2-7.3c-0.8-2.6-1.9-5.1-3.1-7.5c-1-2.1-2.6-3.9-4.5-5.2c-0.6-0.4-1.2-0.7-1.9-1l-0.7-0.3l0.6,0.5
	c0.5,0.4,0.9,0.9,1.3,1.4c1.1,1.6,1.8,3.5,2,5.4c0.2,1.6,0.4,3.5,0.5,5.4c-0.2-0.2-0.4-0.5-0.7-0.7c-2.6-2.4-5.5-4.4-8.6-6.1
	c-2.5-1.3-5.1-2.5-7.8-3.3c-1-0.3-1.8-0.5-2.4-0.7l-0.9-0.2l0.7,0.5c0.5,0.3,1.2,0.7,2,1.2c2.1,1.4,4.2,3,6.1,4.7
	c2.3,2.1,4.4,4.4,6.3,6.8c1.7,2.3,3.3,4.7,4.7,7.2l0.2,0.3h-3.1c-0.5-1.3-1.1-2.4-1.9-3.5c-2.9-3.8-8.1-8-12.9-10.6
	c-2-1.1-4.1-2.1-6.2-3c-1.6-0.6-2.6-1-2.6-1l2,1.7c1.2,1,2.8,2.5,4.5,4.3c2.9,3,5.5,6.2,8,9.5c-3.1-1.8-6.3-3.3-9.6-4.6
	c-2.6-1-5-1.7-6.7-2.2s-2.8-0.7-2.8-0.7l2.2,1.5l2.1,1.4c-2.3-1.2-4.7-2.2-7.1-3c-1.7-0.6-3.3-1.1-4.7-1.5c-2.8-2.9-5.5-5.2-6.3-6
	c-0.7-2.5-1-4.2-1-4.2s-0.2,0.8-0.5,2.3c-0.4,1.9-0.6,3.8-0.8,5.7c-0.2,1.7-0.2,3.3-0.2,5c-2.2-1.4-4-2.7-5.3-3.7l-2.3-1.8
	c0,0,0.5,0.9,1.5,2.3c1.3,1.9,2.8,3.8,4.4,5.5c0.6,0.7,1.3,1.4,2.1,2.2c0.1,0.9,0.2,1.8,0.4,2.7c-2.7-1.8-5.4-3.6-7.7-5.4
	c-1.6-1.3-3.1-2.5-4.3-3.5l-2-4.9l-3.6-8.8c0,0-0.1,4,0.3,9.3c0.2,2.5,0.5,5.3,1,8.1c-2.2-1.6-4.5-3.2-6.4-4.8
	c-2.5-2-4.7-3.8-6.2-5.1l-2.5-2.1c0,0,0.6,1,1.6,2.6s2.6,3.9,4.5,6.3c2.8,3.5,5.9,6.8,9.2,9.8h-1.1l-0.2-0.2
	c-5.4-3.9-12.6-8.8-18.2-13.1c-2.8-2.1-5.3-4-7.1-5.5l-2.8-2.3l2,2.8c1.3,1.7,3.1,4.1,5.4,6.7c3.5,4.1,7.3,7.9,11.4,11.4h-4
	c-0.1-0.2-0.2-0.3-0.3-0.5c-5.5-8.6-17.3-21.2-17.3-21.2s1.5,3.7,3.6,8.5c-0.2-0.3-0.5-0.5-0.8-0.8c-1.4-1.4-3-2.7-4.6-3.9
	c-1.2-0.9-2-1.4-2-1.4l1.2,1.9c0.7,1.2,1.6,2.9,2.5,4.8c1.5,3.3,2.8,6.7,3.9,10.2c-0.4-0.7-0.8-1.4-1.2-2c-0.7-0.9-1.4-1.8-2.2-2.8
	c-3.8-6.5-8.3-12.7-8.3-12.7s0.4,2.1,1,5.1c-3.7-3.5-6.8-6.2-6.8-6.2s5,11.4,9.9,18.4l0.1,0.5h-1.2c-0.2-0.7-0.5-1.5-0.8-2.1
	c-1.2-2.5-2.8-4.7-4.7-6.7c-2-2.1-4.2-4.1-6.6-5.7c-1.9-1.3-3.9-2.5-6-3.5c-1.6-0.8-2.6-1.2-2.6-1.2l1.9,1.8
	c0.4,0.4,0.9,0.9,1.4,1.5c-1-0.5-1.9-1-2.7-1.4c-1.7-0.8-2.7-1.2-2.7-1.2l2.1,1.9c1.6,1.5,3.2,3.1,4.7,4.8c0.2,0.3,0.5,0.6,0.7,0.8
	c-1.2-1-2.4-1.9-3.6-2.7c-2.3-1.6-4.7-3.1-7.2-4.5c-1.9-1-3.1-1.6-3.1-1.6l2.4,2.2c1.5,1.4,3.4,3.4,5.5,5.7c0.5,0.5,0.9,1,1.3,1.5
	c-1.8-0.5-3.6-0.9-5.5-1.2c-1.7-0.2-2.7-0.3-2.7-0.3l2.3,1.1c1.8,0.9,3.6,2,5.3,3.1c2.7,1.8,5.2,3.9,7.5,6.2
	c0.8,1.2,1.6,2.3,2.4,3.4h-1.6c-0.6-0.8-1.4-1.5-2.1-2.2c-2.4-2-4.9-3.7-7.7-5.1c-1.6-2.1-3.4-3.9-5.5-5.5c-1.5-1.2-3.2-2.2-4.9-3.1
	c-1.3-0.7-2.1-1-2.1-1l1.4,1.7c1.1,1.3,2.1,2.7,3,4.2l0.2,0.4l-0.2-0.1c-1.9-0.7-3.7-1.2-5.3-1.6l-0.8-1.7c0,0,0,0.5-0.1,1.5
	l-0.9-0.2c-1.8-0.4-2.9-0.6-2.9-0.6l2.5,1.4l1.3,0.8c0,0.7,0,1.4,0.1,2.2l-0.9-0.3c-1.3-0.4-2.6-0.8-3.8-1c-1.4-1.8-3-3.4-4.7-4.9
	c-1.5-1.4-3.2-2.7-4.9-3.8c-1.3-0.9-2.1-1.4-2.1-1.4l1.3,1.9c0.8,1.2,1.8,2.9,2.9,4.8c1.5,2.7,2.8,5.5,4,8.3
	c-1.2-0.4-2.5-0.8-3.7-1.1c-1.8-2.1-3.5-4.2-5.1-6.5c-1.4-1.9-2.5-3.7-3.2-5s-1.2-2.1-1.2-2.1s0,0.9,0.1,2.3
	c0.1,0.7,0.2,1.5,0.3,2.4c-3.5-4.7-6.8-8.5-6.8-8.5s1.2,4.8,3.1,10.3l-1.6-1.4c0,0,1.3,2.9,3.3,6.8h-0.4c-2-0.1-3.2-0.1-3.2-0.1
	l2.9,1c0.4,0.1,0.8,0.3,1.3,0.5l0.5,0.9c0.5,1.2,1,2.3,1.6,3.3c0.1,0.2,0.2,0.3,0.3,0.5c-1.6-0.4-3.2-0.6-4.9-0.8
	c-0.1-0.3-0.1-0.5-0.2-0.8c-1.1-3.4-2.7-6.6-4.7-9.6c-2.1-3.1-4.6-6-7.4-8.6c-2.3-2.2-5-3.9-8-5c-0.9-0.3-1.9-0.5-2.8-0.6l-1-0.1
	l1,0.3c0.8,0.3,1.7,0.7,2.4,1.2c2.3,1.5,4.3,3.5,5.8,5.8c1.9,2.8,3.6,5.8,5,8.9c1.2,2.7,2.2,5.5,3.1,8.3l-0.9,0.1l1,0.4l0.1,0.2
	c0.2,0.6,0.4,1.1,0.5,1.6c-2.3-0.6-4.3-1-5.3-1.2c-0.9-2.2-1.9-4.3-3.2-6.3c-1.8-2.8-4-5.4-6.4-7.8c-1.9-1.9-4-3.6-6.3-5.1
	c-1.7-1.2-2.8-1.8-2.8-1.8s0.8,0.9,2,2.3c1.5,1.9,3,3.9,4.2,6c0,0.1,0.1,0.1,0.1,0.2c-1-0.9-2.1-1.8-3.1-2.5c-2.1-1.6-4.2-3-6.5-4.3
	c-1.7-1-2.8-1.5-2.8-1.5l2,2.1c1.2,1.3,2.9,3.2,4.6,5.4c2.1,2.6,4,5.4,5.7,8.3c-2.8-2.6-5.9-4.8-9.2-6.6c-1.8-1-3.7-1.9-5.7-2.7
	c-1.5-0.6-2.4-0.9-2.4-0.9l1.7,1.6c1.1,1,2.5,2.4,4,4c0.7,0.7,1.4,1.5,2.1,2.3c-2-1.4-4-2.6-6.2-3.7c-2.2-1.1-4.5-2.2-6.9-3
	c-1.8-0.7-2.9-1-2.9-1l2.3,1.7c1.4,1.1,3.3,2.6,5.3,4.4c1.3,1.2,2.7,2.5,4,3.9c-2.3-1.4-4.8-2.6-7.3-3.7c-2.6-1.1-5.3-2.1-8-2.8
	c0,0,2.7,2.2,6,5c1.1,1,2.3,2.1,3.5,3.2c-2.5-1.7-5.4-3.5-8.4-5.2l0,0c-1.6-3.1-2.8-5.6-2.8-5.6c-0.2,1.2-0.4,2.5-0.5,3.8
	c-4.6-2.6-8.8-4.8-10.9-5.9c-3-3.8-5.1-6.8-5.1-6.8c0.6,2.9,1.5,5.7,2.5,8.5c0.4,1,0.8,2.1,1.2,3.2c-2.2-2.7-4-4.5-4-4.5l1.9,6.5
	l-0.2-0.3c-2.2-2.8-4.7-5.3-7.5-7.5c-2.2-1.8-4.5-3.3-7-4.7c-1.9-1-3-1.6-3-1.6s0.9,0.8,2.3,2.2c1.8,1.8,3.5,3.8,5.1,5.8
	c1.9,2.5,3.6,5.2,5.1,8c0.3,0.6,0.6,1.2,1,1.9c-2.7-2-5.6-3.8-8.7-5.2c-1.8-0.8-3.5-1.5-4.9-2.1c-1.1-1.1-2.3-2.1-3.5-3
	c-1.1-0.8-1.7-1.2-1.7-1.2l0.9,1.7c0.2,0.4,0.4,0.8,0.6,1.2l-1.2-0.4l1.5,1c0.3,0.7,0.7,1.5,1,2.4c0.5,1.1,0.9,2.3,1.4,3.5
	c-0.7-0.2-1.3-0.4-2-0.6c-2.1-0.6-4.3-1.2-6.5-1.6c-1.3-1.2-2.5-2.3-3.4-3c-1.1-0.8-1.8-1.3-1.8-1.3l0.9,1.8c0.3,0.6,0.6,1.2,0.9,2
	h-0.4l0.4,0.2c0.3,0.7,0.7,1.5,1,2.3s0.8,1.9,1.1,3c-0.8-0.2-1.6-0.5-2.4-0.7c-1.1-0.3-2.1-0.5-3.1-0.7c-3.5-5.2-7.6-10.3-9.2-12.3
	c0.2-0.1,0.4-0.2,0.6-0.2c0.1,0,0.2,0,0.3,0.1c0,0,0-0.1-0.3-0.2c-0.4-0.2-0.8-0.1-1.1,0.2h-0.1v0.1c0.5,1.9,1.8,6.4,3.4,11.1
	c-1.7-0.2-2.7-0.3-2.7-0.3l3,1.2c0.5,1.3,1,2.6,1.5,3.9l-0.6-0.1c-1.5-1.6-3.1-3.2-4.7-4.7c-1.6-2-3.3-3.9-4.7-5.7
	c-1.6-2.1-3.1-4-4-5.4l-1.6-2.2c0,0,0.2,1,0.6,2.5c0.5,2.1,1.2,4.2,2,6.3c0.9,2.3,1.9,4.5,3,6.7c-0.5-0.5-1-1.1-1.5-1.6
	c-2.1-2.2-4.4-4.1-6.9-5.7c-2-1.3-4.1-2.5-6.2-3.5c-1.6-0.8-2.7-1.2-2.7-1.2l2,1.8c1.6,1.5,3,3.1,4.4,4.7c2.3,2.7,4.3,5.7,6,8.8
	c-0.2-0.2-0.4-0.4-0.7-0.6c-2.6-2.3-5.5-4.2-8.5-5.7c-1-3-2-5.1-2-5.1s-0.4,1.6-0.8,3.9c-1-0.4-1.9-0.8-2.8-1.1
	c-1.9-0.7-3.9-1.3-6-1.7c0-0.7,0.1-1.3,0.2-1.8c0.1-1.3,0.2-2.1,0.2-2.1s-0.5,0.7-1.2,1.8c-0.3,0.5-0.6,1.1-1,1.7
	c-0.7-0.2-1.2-0.2-1.2-0.2l1,0.6c-0.5,0.8-0.9,1.7-1.4,2.7c-0.4,0.7-0.7,1.5-1,2.3c-2.9-1-5.5-1.6-7-2c-0.4-1.7-0.8-3.4-1.1-5
	c-0.5-2.5-0.8-4.8-1-6.5s-0.3-2.7-0.3-2.7s-0.3,1-0.8,2.6c0,0.2-0.1,0.4-0.2,0.7c-0.2,0.2-0.8,0.7-1.4,1.5c-1.2,1.4-2.3,2.9-3.2,4.4
	c-0.6,1-1.1,2-1.5,3c0-0.4,0-0.8,0.1-1.2c0.1-1.6,0.3-3,0.5-4s0.3-1.6,0.3-1.6s-0.5,0.5-1.3,1.3c-1,1.1-2,2.3-2.8,3.5
	c-0.4,0.5-0.7,1.1-1,1.6c-1.6-2-2.9-3.7-3.9-5s-1.7-2.3-1.7-2.3s0.3,1,0.8,2.7c0.3,1,0.7,2.2,1.2,3.5c-2.8-3.6-5.2-6.1-5.2-6.1
	s1.2,3.5,2.5,7.7c0.4,1.1,0.7,2.3,1.1,3.5c-1.6-1.9-3.3-3.8-4.9-5.4c-3.3-3.4-6.1-5.9-6.1-5.9l3.2,7.2l1.5,3.2
	c-0.4-0.3-0.8-0.7-1.3-1c-2.5-1.8-5.2-3.4-8-4.6c-2.2-1-4.5-1.8-6.9-2.5c-1.8-0.5-2.9-0.7-2.9-0.7l2.4,1.4
	c5.1,3.3,9.7,7.4,13.5,12.2c-3.5-2.8-7.4-5.1-11.5-6.8c-0.4-0.7-0.9-1.4-1.4-2c-1.4-1.7-2.9-3.3-4.6-4.7c-1.3-1-2.2-1.6-2.2-1.6
	s0.5,0.8,1.3,2.1c0.8,1.4,1.5,2.9,2.1,4.4c-0.6-0.2-1.3-0.4-1.9-0.6c-1.1-1.5-2.2-3-3.5-4.4c-1.7-2-3.6-3.8-5.5-5.5
	c-1.5-1.3-2.4-2.1-2.4-2.1l1.6,2.5c0.9,1.6,2.2,3.8,3.4,6.4c0.3,0.5,0.5,1.1,0.8,1.7c-1.7-0.3-2.8-0.5-2.8-0.5l2.6,1.3l0.7,0.4
	c0.8,1.8,1.5,3.7,2.2,5.6c-0.6-0.1-1.1-0.2-1.7-0.3c-0.7-1-1.4-2-2.1-3c-1.6-2.2-3.4-4.3-5.3-6.2c0,0,1.1,3.2,2.2,7.2
	c0.1,0.4,0.2,0.8,0.4,1.3l-2.3-0.2l-1.2-0.1c-0.1-1.3-0.3-2.6-0.4-3.9c-0.4-3.7-0.7-7.2-0.9-8.9l0.7,0.2l-0.8-0.6l-0.2-0.1l-0.4,0.2
	c-1.1,2.9-2,5.9-2.8,9c-0.8,3.1-1.2,6.3-1.5,9.4l-0.5-0.1c-0.6-2.8-1.2-5.7-1.6-8.3s-0.7-5.1-0.8-6.7c0-0.6,0.4-1.2,1.1-1.3
	c0.3-0.1,0.6,0,0.8,0.1c-0.2-0.2-0.5-0.4-0.8-0.4c-0.4,0-0.8,0.1-1.2,0.2c-0.4,0.3-0.7,0.6-0.9,1.1c-0.7,2.2-1.2,4.5-1.6,6.9
	c-0.4,2.3-0.6,4.7-0.6,7c-0.9-2.1-1.7-4.2-2.4-6.3c-0.7-2.2-1.2-4.2-1.5-5.7l-0.4-2.3c0,0-0.3,0.9-0.6,2.3c-0.4,2-0.7,4-0.8,6
	c-0.1,2.6,0,5.2,0.5,7.7c-1.4-2.7-3.2-5.2-5.3-7.5c-2.6-2.8-5.5-5.3-8.6-7.3c-2.5-1.7-5.2-3.1-8-4.3c-1-0.5-1.9-0.8-2.5-1l-0.9-0.3
	l0.8,0.5c0.5,0.4,1.2,0.8,2.1,1.5c2.2,1.7,4.3,3.6,6.2,5.5c2.3,2.4,4.4,5.1,6.2,7.9c0.5,0.8,1,1.5,1.4,2.3c-0.2-0.2-0.4-0.3-0.6-0.5
	c-2.6-2-5.4-3.8-8.4-5.2c-2.4-1.1-4.8-2.1-7.3-2.9c-1.9-0.6-3.1-0.8-3.1-0.8l2.6,1.6c2,1.3,3.9,2.7,5.8,4.3c4,3.5,7.6,7.4,10.7,11.7
	h-0.8c-1.1-1.8-2.4-3.5-4-4.9c-4.1-3.7-8.7-6.8-13.7-9.3l-0.6-0.8c0,0,0,0.2-0.1,0.5c-1.5-0.7-2.9-1.4-4.4-2
	c-0.3-0.2-0.5-0.5-0.8-0.7c-2.2-4-4.1-6.9-4.1-6.9s0.3,2.5,0.8,6c-1.7-0.6-3.3-1.1-4.5-1.5c-2.2-0.6-3.5-1-3.5-1l3,1.7
	c1.5,0.9,3.4,2,5.5,3.4c0.1,0.6,0.2,1.3,0.3,1.9c-0.4-0.4-0.7-0.8-1.1-1.2c-1.4-1.4-2.9-2.6-4.6-3.7c-0.6-0.4-1.1-0.7-1.5-0.9
	l-0.6-0.3l0.3,0.5c0.2,0.3,0.6,0.7,0.9,1.3c0.9,1.4,1.8,2.9,2.4,4.5c0.2,0.5,0.4,1,0.6,1.4l-1.1-0.3c-1-2.1-2-4.2-3.2-6.2
	c0,0,0.1,2.3,0.2,5.4c-1.4-1.2-2.7-2.4-4.1-3.4c-2.6-2.1-5.2-4-8-5.8c0,0,2.3,3,5.1,7.1c-1.6-1.3-3.3-2.5-5-3.6
	c-2.1-1.4-4.4-2.6-6.7-3.6c-1.8-0.8-2.8-1.2-2.8-1.2l2.2,1.9c1.7,1.5,3.4,3.1,4.9,4.8c2.2,2.4,4.2,4.9,5.9,7.6
	c-2.2-1.3-4.5-2.5-6.8-3.5c-1.6-1.5-3.2-3-5-4.3c0,0,0.5,1.1,1.1,2.7c-0.2-0.1-0.4-0.2-0.6-0.2c-2.3-0.8-4.4-1.4-6.2-1.8
	c-1-1-2-1.8-3.2-2.7c-1.1-0.8-1.8-1.2-1.8-1.2s0.4,0.7,0.9,1.7c0.2,0.4,0.4,0.9,0.7,1.5h-0.1c-0.6-0.8-1.2-1.7-1.9-2.4
	c-1.7-2-3.5-3.8-5.5-5.5c-1.5-1.3-2.5-2-2.5-2l1.6,2.5c1.3,2,2.4,4.2,3.4,6.3c0.8,1.6,1.4,3.2,2,4.9c-0.9-1.2-1.8-2.3-2.8-3.3
	c-1.7-1.8-3.6-3.3-5.7-4.7c-1.6-1-2.6-1.6-2.6-1.6s0.7,0.8,1.8,2.2c1.4,1.8,2.6,3.6,3.6,5.6c0.2,0.5,0.5,1,0.7,1.4
	c-2.4-0.6-4.8-1-7.2-1.3c-0.5-0.4-1-0.8-1.5-1.2c-2.8-2.2-5.8-4.1-9-5.7c-2.5-1.3-5.1-2.3-7.8-3.2c-2-0.7-3.3-1-3.3-1l2.8,1.8
	c4.8,3.1,9.2,6.9,13.1,11.2c2.1,2.4,4,4.8,5.6,6.9c1.6,2.2,3.6,4.3,5.7,6.1l0.2,0.2h-4.6c-0.6-2.3-1.7-4.4-3.2-6.2
	c-3.5-4.4-9.6-9.2-15-12.4c-2.3-1.4-4.6-2.6-7-3.7c-1.8-0.8-3-1.3-3-1.3l2.3,2c1.4,1.2,3.3,3,5.4,5c0.8,0.8,1.6,1.6,2.4,2.5
	c-0.7-0.4-1.4-0.7-2-1c-2.4-1.1-4.6-2-6.2-2.6s-2.6-0.8-2.6-0.8l2,1.6c1.2,1,2.8,2.4,4.6,4c3.6,3.2,7.3,7.4,10.3,10.5
	c0.9,0.9,1.9,1.8,2.9,2.5h-5c-0.6-1.6-1.4-3.1-2.4-4.5c-3.3-4.4-9.2-9.3-14.7-12.3c-2.3-1.3-4.6-2.5-7-3.5c-1.8-0.8-3-1.2-3-1.2
	l2.3,1.9c1.4,1.2,3.4,2.8,5.4,4.8c2.8,2.8,5.5,5.8,7.9,8.9c-2.7-1.5-5.5-2.7-8.5-3.6c-2.1-0.7-4.3-1.2-6.5-1.6l4.6,3.9
	c2.6,2.2,5.5,4.9,8,6.7c0.2,0.2,0.4,0.3,0.7,0.4h-4c-0.5-0.4-1-0.8-1.5-1.2c-1-0.7-2.2-1.5-3.4-2.3c-3-5.4-6.3-10.6-10-15.6
	c0,0,0.8,5.2,2.2,11c-7-3.9-13.5-7.1-13.5-7.1s5.2,5.3,11.2,10.7c-9.6-7.8-22-16.1-22-16.1s5,6.1,11,12.7c-3.3-2.6-7.1-5.4-10.4-7.8
	l-8.3-6c0,0,2.3,3.5,5.7,7.8c0.7,0.9,1.4,1.8,2.2,2.7c-1.2-0.7-2.3-1.4-3.5-2.1c-5.1-2.9-9.3-4.8-9.3-4.8s3.1,2.9,7,6.8
	c1.4,1.3,2.8,2.8,4.2,4.3c-3.1-2.2-6.3-4.1-9.6-5.9c-2.5-1.3-4.9-2.4-6.5-3.1l-2.7-1.1c0,0,3.2,2.7,7,6.3c3.6,3.3,7.6,7.5,11,10.8
	h-1.1c-0.5-0.5-1-1.1-1.5-1.5c-6.2-5.5-18.7-12.6-18.7-12.6s2.3,3.3,5.5,7.2c-2.8-2.3-5.3-4.9-7.6-7.7c-1-1.4-2-2.8-2.8-4.3l-1-1.9
	c0,0-0.1,0.8-0.1,2.1c0,1.8,0.3,3.5,0.7,5.2c1.2,4.7,3.9,8.8,7.6,11.9c0.8,0.7,1.7,1.2,2.6,1.7h-2.7c-0.3-0.4-0.6-0.8-1-1.1
	c-2.1-1.9-5.2-4.2-7.6-6.3s-4.2-3.9-4.2-3.9c0.2,1.8,0.7,3.6,1.3,5.3c0.8,2.2,1.9,4.2,3.3,6.1H2.2v1.2l0.3,311l0,0l1181,27.1
	l174.9-44.4L1402.2,970.5z M130.8,647.3c0.2,0.5,0.5,1,0.7,1.6c0.6,1.3,1.1,2.8,1.6,4.3c-0.7-0.5-1.5-1-2.3-1.5
	c-0.8-2.4-2-4.6-3.5-6.6l1.7,1C129.5,646.5,130.1,646.9,130.8,647.3z M213,658.2h-1.6c0-0.2,0.1-0.5,0.1-0.7L213,658.2z M266.1,655
	c0,0.2,0.1,0.3,0.1,0.5l-0.4-0.5c0-0.1,0-0.2,0-0.3L266.1,655z M543.8,645.8l0.4,0.2c1.1,2.7,2.3,5.3,3.6,7.9l-1.6-0.8
	C545.4,650.7,544.6,648.2,543.8,645.8L543.8,645.8z M688.4,656.4c-0.2-0.2-0.3-0.5-0.5-0.7c1,0.8,2,1.5,3,2.2h-1.6
	C689.1,657.4,688.8,656.9,688.4,656.4L688.4,656.4z M235.9,658.2h-1.5c0-0.3,0-0.5,0-0.8C234.9,657.7,235.4,658,235.9,658.2
	L235.9,658.2z M927.4,657.8c0-0.1-0.1-0.3-0.1-0.4l0.5,0.4H927.4z M371.5,654.7c-0.3-0.5-0.6-1-1-1.5c-2.3-3.1-5.5-6.9-8.3-10.4
	c2.3,2.2,5.4,5.2,8.6,8.1C371,652.1,371.2,653.4,371.5,654.7z M281.9,658.2c0-1,0-2-0.1-3.1c1.5,1.1,2.9,2.1,4.3,3.1H281.9z
	 M246.3,657.4l-0.1-0.3c0.2,0.2,0.3,0.3,0.5,0.5L246.3,657.4z M142.7,658.3c0-0.5,0-1-0.1-1.5l0.4,0.3c0.5,0.4,0.9,0.8,1.4,1.2
	L142.7,658.3z M1324.7,655.3c-0.6-1.3-1.2-2.6-1.9-3.8c0.9,0.9,2,1.8,3.2,2.9c1.5,1.3,3.2,2.6,4.9,3.9h-5.6
	C1325.3,657.2,1325,656.2,1324.7,655.3L1324.7,655.3z M1289.7,657.5c-1.1-1.8-2.3-3.6-3.6-5.2c1.9,1.8,3.9,3.8,5.7,5.7h-1.8
	C1289.8,657.8,1289.7,657.6,1289.7,657.5L1289.7,657.5z M1260,656.4c-0.1-1.1-0.2-2.2-0.4-3.3l0.4,0.5c1.3,1.4,2.4,2.9,3.5,4.4h-3.5
	C1260.1,657.4,1260,656.9,1260,656.4L1260,656.4z M1175,657.7c-1.1-1.4-2.4-2.9-3.6-4.4c1.4,1.5,2.9,3,4.4,4.4H1175z M1132.9,652
	c1.4,1.8,2.9,3.9,4.3,5.8h-5c0.1-1.2,0-2.5-0.3-3.7c-0.4-1.6-0.9-3.4-1.5-5.3C1131,649.6,1131.9,650.7,1132.9,652L1132.9,652z
	 M1117.5,657.1c0.2,0.2,0.3,0.5,0.5,0.7h-0.5C1117.4,657.5,1117.4,657.3,1117.5,657.1L1117.5,657.1z M1077.7,654.5c1,1,2,2.2,3,3.3
	h-5.1c0.1-0.3,0.2-0.7,0.2-1c0.2-1.2,0.4-2.5,0.3-3.8C1076.7,653.4,1077.2,654,1077.7,654.5L1077.7,654.5z M1045.2,657.8h-0.2
	c0-0.1-0.1-0.2-0.1-0.3L1045.2,657.8z M852.4,656.8c0.3,0.4,0.6,0.8,0.9,1.1h-3.7c-0.5-2.6-1.1-5.1-1.9-7.6
	C849.4,652.6,851,654.9,852.4,656.8L852.4,656.8z M789.5,645.3c2,1.1,4,2.3,5.9,3.7c3.4,2.4,6.5,5.2,9.3,8.3
	c-3.5-1.4-7.1-2.4-10.9-2.8c-0.7-2.6-1.8-5.1-3.2-7.3c-0.5-0.7-0.9-1.4-1.4-2L789.5,645.3z M778.2,653.1l-0.2,0.7V653L778.2,653.1z
	 M722,654.1c-0.9-1.2-2-2.5-3.1-3.8c1,0.9,2.5,2.1,4.2,3.6c1.4,1.2,2.9,2.6,4.4,3.9h-3.3C723.6,656.6,722.9,655.3,722,654.1
	L722,654.1z M682,647.7l-1.2-0.4l-0.7-0.7C680.7,647,681.3,647.3,682,647.7L682,647.7z M612.4,653.4c4.2,1.3,8.3,2.8,12.2,4.6h-0.7
	c-0.6-0.3-1.1-0.5-1.7-0.8c-3.1-1.2-6.3-2.1-9.5-2.9L612.4,653.4z M606.5,656.4l0.2,0.5l-0.9-0.9L606.5,656.4z M562,658h-4.7
	c-0.3-1.2-0.8-2.3-1.5-3.3c-0.9-1.2-1.8-2.4-2.8-3.6C556.1,653.3,559.1,655.6,562,658z M544,645.3h-0.2l-0.4-1.3
	c-0.1-0.4-0.2-0.8-0.3-1.2C543.2,643.6,543.6,644.5,544,645.3L544,645.3z M531.1,653.8c1.1,1.5,2.4,2.9,3.7,4.2H534l-1.8-1.2
	C531.8,655.9,531.5,654.9,531.1,653.8L531.1,653.8z M452.7,648.1c0.7,0.4,1.4,0.9,2.1,1.4c1,0.7,2.1,1.4,3.1,2.2
	c-1.3-0.6-2.7-1.2-4.1-1.7C453.4,649.4,453,648.8,452.7,648.1L452.7,648.1z M451.2,653.1c0.4,1.5,0.8,2.9,1.4,4.2l-0.8-0.5
	c-0.1-0.7-0.4-1.5-0.7-2.1c-0.7-1.2-1.5-2.3-2.4-3.3C449.5,652.1,450.3,652.6,451.2,653.1L451.2,653.1z M417,658.1h-1.9
	c0,0,0-0.1,0-0.1c-0.2-0.5-0.4-1.1-0.5-1.7L417,658.1z M379.9,658.1h-0.3c0-0.1-0.1-0.2-0.1-0.2l0.1,0.1L379.9,658.1z M344.2,649.9
	c0.9,0.8,1.7,1.7,2.6,2.5c-0.5-0.3-1-0.5-1.6-0.8C344.9,651,344.6,650.5,344.2,649.9L344.2,649.9z M331.2,648.7
	c0.8,0.5,1.7,1,2.6,1.5c1.8,1,3.6,2.2,5.4,3.4c0.2,0.6,0.4,1.3,0.6,1.8l0.2,0.4c-1.7-0.8-3.5-1.6-5.3-2.3
	C333.7,651.8,332.5,650.2,331.2,648.7L331.2,648.7z M329.2,655.8c0.1,0.4,0.2,0.7,0.3,1.1c-1.2-0.5-2.5-1-3.8-1.4
	c-0.4-0.7-0.8-1.5-1.3-2.2C326,654,327.6,654.9,329.2,655.8L329.2,655.8z M312.4,658.2h-0.3c-0.1-0.2-0.1-0.4-0.2-0.6
	C312,657.8,312.2,658,312.4,658.2L312.4,658.2z M297.1,657c0.4,0.4,0.9,0.8,1.4,1.2h-2.2c-0.1-0.7-0.2-1.5-0.4-2.2L297.1,657z
	 M286.1,647.6c1.3,0.9,2.6,2,3.9,3.1c-0.1,1-0.3,2-0.3,3c-2.6-1.4-5.3-2.7-8-3.7c0-1.1,0-2.2,0.1-3.2c0-0.7,0.1-1.4,0.1-2
	C283.1,645.5,284.6,646.5,286.1,647.6L286.1,647.6z M275.9,650.9l0.6,0.4c-0.5,1.5-0.8,3-1.1,4.6c-1-0.6-1.9-1.2-2.9-1.8
	c-0.6-2.2-1.3-4.5-1.9-6.8C272,648.2,273.8,649.5,275.9,650.9L275.9,650.9z M265.7,642.4c0.2-1.9,0.6-3.8,1.2-5.7
	c-0.3,1.4-0.6,3-0.9,4.9c-0.4,2.9-0.5,5.7-0.4,8.6h-0.1C265.4,647.6,265.4,645,265.7,642.4L265.7,642.4z M227.1,647.8
	c0,0.1,0,0.2,0,0.3l-0.2-0.4L227.1,647.8z M222.1,651.7c0.5,1.6,1,3.2,1.4,4.6c0.1,0.4,0.2,0.8,0.4,1.1h-0.1c-0.7-2.1-1.5-4.1-2.6-6
	L222.1,651.7z M211,647.7l0.9,0.3c0.9,0.3,1.9,0.6,3,1c0.5,2.1,1,4.2,1.5,6.3c-1.6-0.4-3.3-0.9-4.9-1.2
	C211.5,652.1,211.2,649.9,211,647.7L211,647.7z M204.9,654v0.3C204.9,654.2,204.9,654.1,204.9,654L204.9,654z M155.5,650.4l-0.8-0.8
	l-0.2-0.5l0.5,0.3l0.2,0.2C155.4,649.9,155.5,650.2,155.5,650.4L155.5,650.4z M111.5,649.1c-1-1.3-2-2.5-3.2-3.6
	c1.2,0.5,2.4,1,3.7,1.7c0.8,0.4,1.7,0.8,2.6,1.3c0.2,0.7,0.5,1.4,0.7,2.2c0.6,2.4,1.1,4.9,1.4,7.3c0,0.1,0,0.2,0.1,0.3h-2.2
	c0-0.4,0.1-0.8,0.1-1.2C114.4,654.2,113.4,651.4,111.5,649.1L111.5,649.1z"/>
<path class="st4" d="M1401.5,856.5l-0.3-108.4c-0.9-0.2-1.7-0.4-2.6-0.3c-1.1-2-2.5-3.8-4.2-5.3c-0.9-0.9-1.9-1.7-3-2.4
	c-0.8-0.5-1.3-0.8-1.3-0.8c0.5,1.5,1,3,1.4,4.5c0.1,0.4,0.2,0.9,0.3,1.3c-1.5-2.7-3.4-5.1-5.7-7.1c-1.3-1.1-2.7-2.1-4.2-3
	c-1.1-0.7-1.8-1-1.8-1l1,1.6c0.8,1.3,1.5,2.6,2.2,4c0.5,1,0.9,2,1.3,3.1c-1-0.9-2-1.8-3.2-2.6c-1.3-0.9-2.7-1.8-4.2-2.5
	c-1.1-0.5-1.8-0.8-1.8-0.8s0.4,0.6,1,1.5s1.5,2.2,2.3,3.6c1,1.7,1.8,3.4,2.6,5.2c-2.1-1.7-4.4-3.1-6.9-4.1c-1.3-0.5-2.6-1-4-1.3
	c-1-0.3-1.7-0.4-1.7-0.4s1.7,1.6,3.5,3.8c0.7,0.8,1.3,1.7,2,2.5h-1.6c-3.3-2.7-6.3-5.5-9.2-8.6c-1.7-1.8-3.1-3.5-4-4.7l-1.5-2
	c0,0,0.2,0.9,0.5,2.3c0.5,2,1.2,3.9,2,5.7c1,2.2,2.2,4.3,3.6,6.3c-2.4-2.6-5.2-5.6-7.4-8.2c-3-3.5-5.1-6.3-5.1-6.3s0.2,0.8,0.5,2.2
	c0.4,1.8,1,3.6,1.6,5.3c0.2,0.6,0.4,1.2,0.7,1.8c-1.9-1.4-4-2.5-6.1-3.5c-2.2-1-4.4-1.7-6.7-2.3c-1.7-0.4-2.8-0.6-2.8-0.6
	s0.9,0.5,2.3,1.3c1.8,1.1,3.5,2.4,5.1,3.7c1.9,1.6,3.7,3.5,5.3,5.4l0.6,0.7c-2.2-1.9-4.7-3.5-7.3-4.8c-3-1.6-6.1-2.8-9.3-3.8
	c-2.5-0.8-5.1-1.4-7.7-1.8c-2-0.3-3.1-0.4-3.1-0.4l2.8,1.2c2.2,1,4.4,2.2,6.4,3.4c3.6,2.1,6.9,4.5,10.1,7.2h-2.9
	c-4.2-2-9.3-4.2-13.6-6.2l-6.7-3.1c-3.2-5.3-7.1-10.3-7.1-10.3s1.2,11.6,4,18.2c0.2,0.4,0.4,0.8,0.6,1.1h-1
	c-0.1-0.2-0.1-0.3-0.2-0.5c-1.7-4.1-4-8-6.7-11.6c-2.5-3.5-4.8-6-4.8-6l1.6,7c0.2,0.8,0.4,1.5,0.6,2.3c-1.5-1.5-3.2-2.9-4.9-4.1
	c-1.8-1.3-3.7-2.4-5.7-3.4c-1.5-0.8-2.4-1.2-2.4-1.2l1.8,1.8c1.4,1.5,2.7,3,3.9,4.6c2.5,3.4,4.7,7.1,6.6,11h-1.1l-0.1-0.3
	c-1.2-2.2-2.8-4.1-4.7-5.7c-2-1.7-4.2-3.2-6.6-4.4c-1.9-0.9-3.8-1.7-5.9-2.3c-1.5-0.4-2.5-0.6-2.5-0.6s0.8,0.5,1.9,1.3
	c1.5,1.1,2.9,2.3,4.2,3.6c1.8,1.8,3.5,3.9,4.9,6.1c-3.2-2.7-6.8-4.9-10.6-6.6c-1.9-0.8-3.9-1.6-5.9-2.2c-0.1-0.1-0.3-0.3-0.4-0.4
	c-3.2-3.2-6-5.3-6-5.3l3,6.7c1.4,3.1,3,6.9,4.6,10h-0.8c-0.2-0.5-0.4-0.9-0.7-1.3c-3.7-6.4-12.8-15.5-12.8-15.5s0.9,3.6,2.4,7.9
	c-1.6-1.2-3.2-2.3-5-3.2c-1.8-0.9-3.8-1.6-5.7-2.2c-1.5-0.4-2.4-0.6-2.4-0.6s0.7,0.5,1.9,1.3c1.4,1.1,2.8,2.3,4,3.5
	c2.2,2.3,4.1,4.9,5.6,7.7c-2.1-1.8-4.5-3.2-7-4.2c-1.1-0.4-2.2-0.8-3.3-1.1c-0.9-2.9-2.2-5.7-3.8-8.3c-1.1-1.8-2.3-3.5-3.6-5.1
	c-1-1.2-1.7-1.9-1.7-1.9s0.3,0.9,0.7,2.3s0.9,3.4,1.4,5.6c0.8,4.6,1.3,9.2,1.4,13.9c0,0.4,0.1,0.8,0.1,1.2h-0.4
	c0-0.8-0.1-1.5-0.2-2.3c-0.8-4-3.6-8.8-6.5-12.3c-1.2-1.5-2.6-2.8-4-4.1c-1.1-1-1.8-1.5-1.8-1.5l0.9,2c0.5,1.2,1.2,2.9,1.8,4.8
	c1.2,4,2.2,8,3,12.1c0.1,0.4,0.2,0.9,0.4,1.3h-0.3c-0.2-2.1-0.8-4.1-1.7-5.9c-1.2-2.3-2.8-4.3-4.7-6c-1.5-1.4-3.2-2.5-5.1-3.5
	c-0.7-0.4-1.5-0.7-2.3-1c0,0,0.6,0.6,1.6,1.7c1.2,1.3,2.2,2.8,3,4.3c1,1.8,1.7,3.8,2.1,5.8c0.2,1,0.3,2.1,0.4,3.1
	c-3-3.6-6.6-6.7-10.6-9.1c-2.1-1.3-4-2.3-5.4-3s-2.3-1.1-2.3-1.1l1.6,1.7c1,1.1,2.3,2.6,3.7,4.3c2.2,2.6,4.4,5.8,6.3,8.6h-0.9
	c-0.2-0.3-0.3-0.5-0.5-0.8c-2.3-3.5-6.8-7.4-10.9-9.8c-1.7-1-3.5-2-5.4-2.8c-1.4-0.6-2.3-0.9-2.3-0.9l1.6,1.6c1,1,2.3,2.4,3.6,4
	c2.2,2.8,4.3,5.7,6.2,8.7h-2.4c-3-3.5-6.6-6.6-10.5-9.1c-2.1-1.4-4-2.4-5.3-3.2s-2.2-1.2-2.2-1.2l1.5,1.8c0.9,1.1,2.2,2.6,3.6,4.4
	c1.8,2.2,3.6,4.8,5.3,7.3h-1.1c-0.1-0.2-0.1-0.4-0.2-0.6c-1.3-3.4-4.4-7.3-7.4-10c-1.3-1.1-2.7-2.2-4.1-3.2
	c-1.1-0.7-1.8-1.1-1.8-1.1l0.9,1.7c0.6,1,1.3,2.5,2,4.1s1.4,3.2,2,4.8c-1.4-1.4-2.9-2.8-4.2-4c-2.9-2.9-5.1-5.4-5.1-5.4
	c0.4,2,1.1,4,1.8,5.9c-1.9-1.5-3.9-2.9-6-4.1c-2-1.2-3.9-2.1-5.2-2.7s-2.2-0.9-2.2-0.9l1.5,1.6c0.9,1,2.2,2.4,3.5,4
	c2.7,3.1,5.4,7,7.7,9.9h-0.8c-0.1-0.2-0.3-0.3-0.4-0.5c-3.7-3.6-7.7-6.8-12.1-9.5c-1.9-1.2-3.9-2.1-6.1-2.6c-0.7-0.2-1.3-0.3-2-0.3
	h-0.7l0.6,0.3c0.5,0.2,1.1,0.5,1.6,0.9c1.6,1,3,2.3,4.2,3.8c2.1,2.5,4.4,5.4,6.6,8h-2.2l-0.3-0.3c-5.6-4.4-15.6-9.7-19.1-11.5
	c-1.4-1.9-2.7-3.7-3.6-4.9l-1.5-2.2c0,0,0.2,1,0.5,2.5c0.2,1,0.6,2.4,1.1,3.9c-1.1-1.2-2.2-2.3-3.4-3.4c-1.1-1-1.8-1.5-1.8-1.5
	l0.9,2c0.6,1.2,1.2,2.9,1.9,4.9c1.1,3.5,2.1,7,2.8,10.6l0,0c-2.6-4.4-6.2-8.1-10.6-10.8c-1.8-1.2-3.7-2.2-5.7-3.1
	c-1.5-0.7-2.4-1-2.4-1l1.8,1.7c0.6,0.6,1.3,1.3,2,2.1c-1.4-0.5-2.7-1-4.1-1.3c-1.6-0.4-2.6-0.6-2.6-0.6s0.8,0.5,2,1.3
	c1.6,1.1,3.1,2.3,4.5,3.6c2.6,2.4,5,5.2,6.9,8.2h-5.1c-0.3-0.4-0.6-0.8-0.9-1.2c-3.1-3.3-6.7-6.1-10.7-8.3c-1.9-1.1-3.7-1.9-5-2.4
	s-2.1-0.9-2.1-0.9s2,2.1,4.3,4.8c-1.6-0.8-3.2-1.5-4.9-2.1c-0.7-2.1-1.6-4.1-2.7-6.1c-0.9-1.6-2-3.2-3.3-4.5c-0.5-0.5-1-0.9-1.2-1.2
	l-0.4-0.4c0,0,0.3,0.8,0.7,2c0.5,1.6,0.8,3.2,1,4.9c0.2,1.4,0.3,3,0.3,4.6c-1.1-1.3-2.4-2.5-3.7-3.6c-1.3-1-2.6-2-4-2.9
	c-1.1-0.7-1.8-1-1.8-1s0.4,0.6,0.9,1.6s1.3,2.3,2.1,3.8c0.9,1.9,1.8,4,2.6,6c-2.2-2.1-4.6-3.9-7.3-5.3c-1.6-0.8-3.2-1.5-4.9-2.1
	c-1.3-0.4-2.1-0.7-2.1-0.7l1.4,1.3c0.4,0.4,0.8,0.8,1.3,1.3l-0.8-0.5c-1.5-0.9-3-1.7-4.6-2.4c-1.2-0.5-2-0.7-2-0.7s0.5,0.5,1.3,1.4
	c1,1.1,1.9,2.3,2.8,3.5c1.9,2.9,3.5,6,4.8,9.2c0.3,0.6,0.6,1.1,1,1.6h-3.9c0-0.9-0.1-1.9-0.5-2.7c-1.2-3.3-4.4-7.1-7.7-9.5
	c-1.4-1-2.8-2-4.3-2.8c-1.1-0.6-1.9-0.9-1.9-0.9l1.1,1.5c0.7,0.9,1.5,2.3,2.3,3.8c1,1.8,1.8,3.6,2.5,5.5c-1.8-1.9-3.9-3.4-6.3-4.6
	c-1.4-0.8-2.9-1.4-4.5-1.9c-1.2-0.4-1.9-0.5-1.9-0.5l1.3,1.2c0.5,0.5,1.1,1.2,1.7,1.9c-0.7-0.6-1.5-1.1-2.3-1.5
	c-1.5-0.9-3.1-1.7-4.7-2.3c-1.2-0.5-2-0.7-2-0.7l1.4,1.1c1,1.1,2,2.3,2.9,3.5c1.9,2.8,3.6,5.7,5,8.8h-0.6c-0.1-0.1-0.3-0.3-0.4-0.4
	c-2.7-2.3-5.8-4-9.1-5.1c-1.4-0.5-2.6-0.8-3.6-1c-0.2-2.9-1-5.8-2.1-8.4c-0.7-1.7-1.7-3.4-2.7-5c-0.8-1.2-1.4-1.9-1.4-1.9l0.4,2.1
	c0.3,1.7,0.4,3.5,0.4,5.2c0,2-0.1,4-0.3,6c-0.7-1.1-1.6-2.1-2.6-3c-1.1-1.1-2.3-2-3.6-2.8c-1-0.6-1.6-0.9-1.6-0.9l0.8,1.4
	c0.6,1.2,1.1,2.4,1.5,3.6c0.8,2.6,1.3,5.3,1.4,8c-1.9-3.2-4.4-5.9-7.4-8.1c-1.2-1-2.5-1.8-3.9-2.6c-1-0.6-1.7-0.9-1.7-0.9
	s1.4,2.2,2.8,5.2c1.2,2.3,2.3,5,3.4,7.4c-2.5-2.5-5.4-4.6-8.6-6.1c-1.5-0.7-3-1.3-4.6-1.9c-1.2-0.4-1.9-0.6-1.9-0.6l1.3,1.3
	c0.8,0.8,1.8,1.9,2.9,3.2s2.2,2.7,3.2,4.1c-2.1-1.2-4.4-2.1-6.7-2.9c-1.3-0.5-2.6-0.8-3.5-1.1c-2.7-3.1-5.6-6.1-8.6-8.9
	c0.7,3.1,1.6,6.2,2.6,9.2c-0.5-0.6-1.1-1.2-1.6-1.7c-1.2-1.2-2.5-2.3-3.8-3.3c0,0,0.3,2.1,0.7,4.4c0.3,1.8,0.6,3.8,1.1,5.6h-1.4
	c-0.2-1.2-0.6-2.4-1.1-3.6c-0.8-1.8-1.9-3.4-3.3-4.8c-1.1-1.1-2.3-2.1-3.6-3c-1-0.6-1.6-1-1.6-1s0.3,0.6,0.8,1.5
	c0.6,1.2,1.1,2.4,1.4,3.7c0.4,1.4,0.6,2.8,0.7,4.2c-1.8-2.2-4.1-4-6.6-5.4c-1.4-0.7-2.8-1.3-4.2-1.8c-1.1-0.3-1.8-0.5-1.8-0.5
	l1.2,1.2c0.9,0.9,1.7,1.9,2.5,3c0.8,1.2,1.6,2.4,2.2,3.7c-2.7-2-5.6-3.6-8.7-4.7c-1.6-0.6-3.3-1.1-5-1.5c-1.3-0.3-2.1-0.4-2.1-0.4
	l1.6,1.2c1,0.7,2.2,1.8,3.6,3c1.8,1.7,3.5,3.4,5.2,5.2h-1.8c-0.4-0.4-0.8-0.8-1.2-1.1c-3.4-2.4-7.1-4.2-11-5.6
	c-2.2-0.8-4.5-1.5-6.7-2.1l4.8,4.3c1.5,1.4,3.2,3,4.9,4.5h-1.5c-0.3-0.5-0.7-0.9-1.2-1.3c-2.2-2-5.3-4.5-7.5-6.9
	c-1.1-1.2-2.1-2.3-2.7-3.2l-1-1.4c0,0,0,0.6,0,1.6c0.1,1.4,0.3,2.7,0.7,4c0.7,2.6,1.9,5,3.5,7.1h-1.5c-0.1-0.1-0.2-0.3-0.3-0.4
	c-2.1-2.3-3.7-5-4.9-7.9c-0.5-1.2-0.8-2.5-1-3.8c-0.1-1-0.2-1.6-0.2-1.6c-0.3,0.5-0.6,1-0.9,1.5c-0.6,1.3-1.1,2.6-1.3,4.1
	c-0.3,1.8-0.3,3.7,0.2,5.6c0.2,0.9,0.5,1.8,0.9,2.6h-1.5c-0.7-1.9-2-4.5-2.8-6.7s-1.4-4.1-1.4-4.1c-0.8,1.3-1.5,2.7-1.9,4.2
	c-0.1,0.2-0.2,0.5-0.2,0.7c-0.2-1-0.5-2-0.9-3c-0.6-1.5-1.2-2.9-2-4.3c-0.6-1-1-1.6-1-1.6s0,0.7,0,1.8s-0.1,2.7-0.3,4.4
	c0,0.6-0.1,1.2-0.2,1.8c-0.1-0.9-0.3-1.7-0.5-2.6c-0.4-1.5-0.9-3-1.6-4.4c-0.5-1-0.9-1.7-0.9-1.7s-0.1,0.7-0.2,1.8
	c-0.2,1.4-0.4,2.9-0.7,4.3c-0.3,1.2-0.6,2.5-1,3.7c-1-3.6-2.1-7.1-3.5-10.6c-0.8,2.9-1.4,5.8-1.8,8.8c-0.9-1.7-2.2-3.2-3.6-4.5
	c-1.4-1.3-2.9-2.4-4.6-3.3c-0.7-0.4-1.4-0.7-2.1-1c0,0,0.5,0.6,1.3,1.6c1,1.3,1.8,2.6,2.4,4.1c0.8,1.7,1.3,3.5,1.5,5.4
	c0.2,1.7,0.2,3.4,0.1,5.1c0,0.1,0,0.1,0,0.2h-0.1l-0.2-0.4c-2.4-3.4-5.5-6.3-9.1-8.4c-1.5-0.9-3-1.7-4.5-2.4
	c-1.2-0.5-1.9-0.8-1.9-0.8l1.2,1.5c0.7,0.9,1.7,2.2,2.7,3.6c0.1,0.2,0.3,0.4,0.4,0.6c-0.2-0.1-0.4-0.2-0.6-0.3
	c-1.3-0.6-2.7-1.1-4.1-1.6c-1.1-0.3-1.7-0.4-1.7-0.4l1.1,1.1c0.7,0.7,1.5,1.7,2.4,2.9c1,1.3,1.9,2.6,2.7,4
	c-3.4-2.5-7.2-4.3-11.3-5.4c-1.7-0.4-3.4-0.8-5.1-1c-1.3-0.2-2.1-0.2-2.1-0.2l1.7,1c1,0.6,2.4,1.6,3.8,2.6c0.3,0.2,0.6,0.5,1,0.7
	c-1.9-0.4-3.8-0.7-5-0.9c-1.4-1.8-2.9-3.4-4.7-4.8c-1.5-1.2-3-2.3-4.6-3.2c0,0,0.8,2,1.7,4.6c0.3,0.9,0.7,1.9,1,2.8
	c-1.7-1.1-3.5-2-5.4-2.7c-1.5-0.5-3-0.9-4.6-1.2c-1.2-0.2-1.9-0.2-1.9-0.2l1.4,1c1.1,0.8,2.1,1.7,3.1,2.6c0.6,0.5,1.1,1.1,1.6,1.7
	c-3.4-2.2-7-3.9-10.9-5.1c-2.1-0.7-4-1.2-5.4-1.5S894,736,894,736l1.7,1.2c1.1,0.8,2.5,1.8,4.1,3.1c1.3,1,2.6,2.1,3.9,3.2
	c-2.2-0.7-4.4-1.3-6.6-1.8c-4-0.9-7.2-1.2-7.2-1.2l5.7,3.7l3.5,2.3h-3.8l-0.1-0.1c-3-2.3-7.2-5.4-10.2-8.3c-1.5-1.4-2.8-2.8-3.7-3.8
	l-1.4-1.6c0,0,0.2,0.7,0.5,2c0.5,1.7,1.1,3.3,1.8,4.8c0.3,0.8,0.8,1.5,1.2,2.3c-1.3-1-2.6-2.1-3.8-3.1c-2.8-2.4-4.9-4.3-4.9-4.3
	c1.2,4.4,3.2,8.5,5.9,12.1h-3.1l-0.1-0.1c0-0.7-0.2-1.3-0.3-2c-2-7.2-8.4-18.3-8.4-18.3s-0.1,6,0.6,12c-0.7-1-1.3-2-1.9-3.1
	c-0.5-1-0.8-1.7-0.8-1.7s-0.1,0.7-0.2,1.9c-0.1,1.5,0,2.9,0.3,4.4c-1.7-2.6-3.7-4.9-6-7.1c-1.3-1.3-2.8-2.5-4.2-3.6
	c-1.1-0.8-1.8-1.3-1.8-1.3l1,1.8c0.6,1.1,1.4,2.7,2.2,4.5c0.2,0.5,0.5,1.1,0.7,1.7c-1.3-1.3-2.6-2.6-4.1-3.8
	c-1.5-1.3-3.1-2.5-4.8-3.6c-1.3-0.8-2-1.3-2-1.3l1.2,1.8c0.8,1.2,1.8,2.8,2.8,4.6s2.3,4.1,3.3,6.2c-2.8-2.8-5.8-5.2-9.2-7.2
	c-1.8-1.1-3.7-2.1-5.6-3c-1.5-0.7-2.4-1.1-2.4-1.1l1.7,1.7c1,1.1,2.4,2.6,3.9,4.3c0.2,0.2,0.3,0.4,0.5,0.6c-0.3,1.7-0.7,4-1,6.4
	c-3.5-2.3-7.2-4.3-11.1-5.8c-2.7-1-5-1.8-6.8-2.3s-2.8-0.7-2.8-0.7l2.3,1.5c1.4,0.9,3.3,2.3,5.4,3.8c1.4,1,2.8,2.2,4.2,3.4
	c-3.2-1.9-6.5-3.4-10-4.6c-2-0.7-4.1-1.3-6.2-1.8c-1.6-0.4-2.5-0.5-2.5-0.5l0.2,0.2c-2.1-1-3.5-1.5-3.5-1.5s2.8,2.6,6.3,5.9
	c2.5,2.4,5.2,5.2,7.7,7.7h-1.1c-0.6-1.1-1.3-2.2-2.1-3.1c-5.8-6.5-17.9-15.5-17.9-15.5s3.4,6.3,7.5,12.2c-2-2-4.2-3.8-6.4-5.6
	c-3.8-2.9-6.9-4.9-6.9-4.9l4.2,6.6l2.5,3.8c-0.2-0.2-0.4-0.3-0.7-0.5c-2.7-1.7-5.6-3.2-8.6-4.3c-2.4-0.9-4.8-1.7-7.3-2.2l-1.4-0.3
	l-0.6-0.7c-0.8-0.8-1.2-1.3-1.2-1.3s0.1,0.7,0.2,1.7c0,0,0,0.1,0,0.1h0h0c0.1,1,0.3,2.4,0.4,3.9c0.2,1.9,0.2,4.1,0.1,6.1H785
	l-1.6-0.8c-0.2-4.7-0.8-9.4-1.6-14c0,0-2.2,5.5-3.7,11.2l-0.9-0.4c0-2.1-0.1-4.2-0.1-6.2c0-4.4,0-8.1,0-8.1
	c-1.2,2.5-2.3,5.1-3.3,7.7c-0.3,0.8-0.6,1.7-0.9,2.6c-0.2-1.2-0.3-2.3-0.5-3.5c-0.6-4.6-1-8.7-1.1-10.6l0.6,0.4l-0.7-0.7l-0.2-0.2
	l-0.1,0.3c-1.1,3.6-1.9,7.2-2.5,10.9c-0.4,2.4-0.7,4.8-0.8,7.3c-1.8-4.8-3.5-8.8-3.5-8.8s-0.3,4.1-0.4,9.2c-2.2-6-4.4-11.2-4.4-11.2
	s-0.2,5.9,0.1,12.5c-0.5-0.8-0.9-1.6-1.5-2.4c-1.9-2.8-4.2-5.4-6.9-7.5c-2.1-1.8-4.4-3.3-6.8-4.6c-0.9-0.5-1.7-0.8-2.2-1.1l-0.8-0.4
	l0.6,0.6c0.4,0.4,1,0.9,1.7,1.6c1.8,1.7,3.4,3.6,4.8,5.7c1.7,2.4,3.2,5,4.4,7.8c1,2.3,1.8,4.6,2.4,7h-0.7c-2.9-2.8-6.2-5.2-9.8-7.2
	c-2.1-1.2-4.3-2.2-6.6-3.1c-0.8-0.3-1.5-0.6-1.9-0.7s-1.2-0.5-1.7-0.8c-1.7-0.7-2.7-1-2.7-1l2.1,1.7c1.6,1.4,3.2,2.9,4.7,4.5
	c1.9,2.1,3.7,4.3,5.2,6.7l0,0c-3.5-3-7.3-5.5-11.4-7.5c-2.3-1.2-4.5-2.1-6-2.7s-2.5-0.9-2.5-0.9l1.9,1.6c1.2,1,2.7,2.4,4.4,4.1
	c1.4,1.3,2.8,2.8,4.2,4.3c-3.2-2-6.5-3.6-10-5c-3.2-1.3-6-2.1-7-2.4c-1.9-2.2-3.9-4.5-5.7-6.5c-2.9-3.4-5.5-6.4-5.5-6.4
	c0.7,2.6,1.5,5.1,2.5,7.6c1.7,4.6,4.1,9,7,13c0.2,0.3,0.5,0.6,0.7,0.9h-0.6c-0.1-0.1-0.1-0.2-0.2-0.2c-1.9-2.5-4.7-5.6-6.9-8.4
	s-3.7-5-3.7-5c0,2,0.2,4,0.6,6c0,0.2,0.1,0.3,0.1,0.5c-1.3-1-2.6-2-4-2.8c-4.8-5-9.4-9.2-9.4-9.2s1.1,2.5,2.8,6c-2-0.8-4-1.4-6-1.9
	c-1.7-0.4-2.7-0.6-2.7-0.6l2.2,1.3c1.7,1.1,3.4,2.3,5,3.6c1.9,1.5,3.7,3.1,5.4,4.9c0,0,0,0,0,0.1c-4.1-2.1-8.5-3.7-12.9-5
	c-3-0.9-5.6-1.5-7.6-1.9l-0.7-0.1c-2.6-2.6-4.5-4.3-4.5-4.3s0.8,2.4,2.2,5.6c-1.9-0.4-3.5-0.6-4.9-0.8c-2-0.2-3.2-0.3-3.2-0.3
	l2.9,1.1c1.7,0.7,4,1.7,6.4,2.9c0.8,1.7,1.6,3.5,2.5,5.3c-3.5-1.9-7.5-3.8-10.8-5.6l-8.2-4.2c0,0,2.4,2.8,6,6.3
	c2.6,2.5,5.3,4.8,8.2,6.9h-5.5c-0.9-1.2-1.9-2.4-3-3.5c-3.9-3.8-9.1-8.7-13-13c-2-2.2-3.6-4.1-4.8-5.5l-1.8-2.3c0,0,0.3,1,0.9,2.7
	c0.8,2.2,1.8,4.4,2.8,6.5c2.7,5.6,6.4,10.7,10.7,15.2h-2.3l-0.8-0.9l-2.5-2.8c-0.9-1-1.9-2-2.9-3c-2-2.1-4.1-4.1-5.9-6
	c-3.6-3.5-6.6-6.5-6.6-6.5s1.4,3.5,3.8,8c0.3,0.5,0.6,1.1,0.9,1.6c-2.5-1.3-5.2-2.4-7.9-3.3c-2.4-0.8-4.8-1.4-7.3-1.9
	c-1.9-0.4-3-0.5-3-0.5l2.6,1.3c1.6,0.8,3.7,2,6,3.5c0.7,0.4,1.4,0.9,2.1,1.4c-2.1-0.9-4.2-1.6-6.4-2.1c-2.3-0.6-4.6-1-7-1.2
	c-1.8-0.2-2.8-0.2-2.8-0.2l2.5,1c2,0.8,4,1.8,5.9,2.8c2,1.1,3.8,2.3,5.7,3.6c-3.2-1.1-6.5-1.8-9.9-2.1c-2.3-0.2-4.7-0.3-7-0.3
	c-1.7,0.1-2.8,0.2-2.8,0.2l0.8,0.2c-1.5-0.2-3.1-0.3-4.5-0.4h-0.7c-0.9-2.3-1.8-4.7-2.5-6.9c-1.4-4.1-2.4-7.3-2.4-7.3
	c-0.5,2.5-0.9,5.1-1,7.7c-0.1,2.2-0.1,4.4,0.1,6.7l-1.2,0.1c-1.9,0.2-3,0.3-3,0.3l2.9,0.5l1.4,0.3c0,0.4,0.1,0.8,0.2,1.3h-0.2
	c-1.2-0.2-2.4-0.4-3.5-0.5c-1.8-1.8-3.5-3.7-4.9-5.6c-1.7-2.1-3.1-4-4-5.4l-1.5-2.3c0,0,0.2,1,0.5,2.6c1.4,5.9,4,11.5,7.5,16.3h-3.7
	c0-0.3-0.1-0.7-0.2-1c-0.6-2.5-1.3-4.9-2.2-7.3c-0.8-2.6-1.9-5.1-3.1-7.5c-1-2.1-2.6-3.9-4.5-5.2c-0.6-0.4-1.2-0.7-1.9-1l-0.7-0.3
	l0.6,0.5c0.5,0.4,0.9,0.9,1.3,1.4c1.1,1.6,1.8,3.5,2,5.4c0.3,1.7,0.4,3.5,0.5,5.5c-0.2-0.2-0.4-0.5-0.7-0.7
	c-2.6-2.4-5.5-4.4-8.7-6.1c-2.5-1.3-5.1-2.5-7.8-3.3c-1-0.3-1.8-0.5-2.4-0.7l-0.9-0.2l0.8,0.5c0.5,0.3,1.2,0.7,2,1.2
	c2.2,1.4,4.2,3,6.1,4.7c2.3,2.1,4.4,4.4,6.3,6.8c1.7,2.3,3.3,4.7,4.7,7.2c0,0.1,0.1,0.2,0.2,0.3h-3.1c-0.4-1.3-1.1-2.4-1.9-3.5
	c-2.9-3.8-8.1-8-12.9-10.6c-2-1.1-4.1-2.1-6.2-3c-1.6-0.7-2.6-1-2.6-1l2,1.7c1.2,1,2.8,2.5,4.5,4.3c2.9,3,5.6,6.2,8,9.5
	c-3.1-1.8-6.3-3.3-9.7-4.5c-2.6-1-5-1.7-6.7-2.2s-2.8-0.7-2.8-0.7l2.2,1.5l2.1,1.4c-2.3-1.2-4.7-2.2-7.1-3c-1.7-0.6-3.3-1.1-4.7-1.5
	c-2.8-2.9-5.4-5.2-6.3-6c-0.7-2.5-1-4.2-1-4.2s-0.2,0.8-0.5,2.3c-0.4,1.9-0.7,3.8-0.8,5.7c-0.2,1.7-0.2,3.3-0.2,5
	c-2.2-1.4-4-2.7-5.3-3.7l-2.3-1.8c0,0,0.5,0.9,1.5,2.3c1.3,1.9,2.8,3.8,4.3,5.5c0.6,0.7,1.4,1.4,2.1,2.2c0.1,0.9,0.3,1.8,0.4,2.7
	c-2.7-1.8-5.4-3.6-7.7-5.4c-1.6-1.3-3.1-2.5-4.3-3.5l-2-4.9l-3.6-8.8c0,0-0.1,4,0.3,9.3c0.2,2.5,0.5,5.3,1,8.1
	c-2.2-1.6-4.5-3.2-6.4-4.8c-2.5-2-4.7-3.8-6.2-5.1l-2.5-2.1c0,0,0.6,1,1.6,2.6s2.6,3.9,4.5,6.3c2.8,3.5,5.9,6.8,9.2,9.8h-1.1
	l-0.2-0.2c-5.4-3.9-12.6-8.8-18.2-13.1c-2.8-2.1-5.3-4-7.1-5.4l-2.9-2.6l2,2.8c1.3,1.7,3.1,4.1,5.4,6.7c3.5,4.1,7.3,7.9,11.4,11.4
	h-4c-0.1-0.2-0.2-0.3-0.3-0.5c-5.5-8.6-17.3-21.2-17.3-21.2s1.5,3.7,3.6,8.5c-0.2-0.3-0.5-0.5-0.8-0.8c-1.4-1.4-3-2.7-4.6-3.9
	c-1.2-0.9-2-1.4-2-1.4l1.2,1.9c0.7,1.2,1.6,2.9,2.5,4.8c1.5,3.3,2.8,6.7,3.9,10.2c-0.4-0.7-0.8-1.4-1.2-2c-0.6-0.9-1.4-1.8-2.2-2.8
	c-3.8-6.5-8.3-12.7-8.3-12.7s0.4,2.1,1,5.1c-3.7-3.5-6.8-6.2-6.8-6.2s5,11.4,9.9,18.4l0.1,0.5h-1.2c-0.2-0.7-0.5-1.5-0.8-2.1
	c-1.2-2.5-2.8-4.7-4.7-6.7c-2-2.1-4.2-4.1-6.6-5.7c-1.9-1.3-3.9-2.5-6-3.5c-1.6-0.8-2.6-1.2-2.6-1.2l1.9,1.8
	c0.4,0.4,0.9,0.9,1.4,1.5c-1-0.5-1.9-1-2.7-1.4c-1.7-0.8-2.7-1.2-2.7-1.2l2.1,1.9c1.6,1.5,3.2,3.1,4.7,4.8c0.2,0.3,0.5,0.6,0.7,0.8
	c-1.2-1-2.4-1.9-3.6-2.7c-2.3-1.6-4.7-3.1-7.2-4.5c-1.9-1-3.1-1.6-3.1-1.6l2.4,2.2c1.4,1.4,3.4,3.4,5.5,5.7c0.5,0.5,0.9,1,1.3,1.5
	c-1.8-0.5-3.6-0.9-5.5-1.2c-1.7-0.2-2.7-0.3-2.7-0.3l2.3,1.1c1.8,0.9,3.6,2,5.3,3.1c2.7,1.8,5.2,3.9,7.5,6.2
	c0.8,1.2,1.6,2.3,2.4,3.4h-1.6c-0.6-0.8-1.4-1.5-2.1-2.2c-2.4-2-4.9-3.7-7.7-5.1c-1.6-2.1-3.4-3.9-5.5-5.5c-1.5-1.2-3.2-2.2-4.9-3.1
	c-1.3-0.7-2.1-1-2.1-1l1.4,1.7c1.1,1.3,2.1,2.7,3,4.2c0.1,0.1,0.1,0.2,0.2,0.4l-0.2-0.1c-1.9-0.7-3.7-1.2-5.3-1.6l-0.8-1.7
	c0,0,0,0.5-0.1,1.5c-0.3-0.1-0.6-0.2-0.9-0.2c-1.8-0.4-2.9-0.6-2.9-0.6l2.5,1.4l1.3,0.8c0,0.7,0,1.4,0.1,2.2l-0.9-0.3
	c-1.3-0.4-2.6-0.8-3.8-1c-1.4-1.8-3-3.4-4.7-4.9c-1.5-1.4-3.2-2.7-4.9-3.8c-1.3-0.9-2.1-1.4-2.1-1.4l1.3,1.9
	c0.8,1.2,1.8,2.9,2.9,4.8c1.5,2.7,2.8,5.5,4,8.3c-1.2-0.4-2.5-0.8-3.7-1.1c-1.8-2.1-3.5-4.2-5.1-6.5c-1.4-1.9-2.5-3.7-3.2-5
	l-1.2-2.1c0,0,0,0.9,0.2,2.3c0.1,0.7,0.2,1.5,0.3,2.4c-3.5-4.7-6.8-8.5-6.8-8.5s1.2,4.8,3.1,10.3l-1.6-1.4c0,0,1.3,2.9,3.3,6.8h-0.4
	c-2-0.1-3.2-0.1-3.2-0.1l2.9,1c0.4,0.1,0.8,0.3,1.3,0.5l0.5,0.9c0.5,1.2,1,2.3,1.6,3.3c0.1,0.2,0.2,0.3,0.3,0.5
	c-1.6-0.4-3.2-0.6-4.8-0.8c-0.1-0.3-0.1-0.5-0.2-0.8c-1.1-3.4-2.7-6.7-4.8-9.7c-2.1-3.1-4.6-6-7.4-8.6c-2.3-2.2-5.1-3.9-8-5
	c-0.9-0.3-1.9-0.5-2.8-0.6l-1-0.1l1,0.3c0.8,0.3,1.6,0.7,2.4,1.2c2.3,1.5,4.3,3.5,5.8,5.8c1.9,2.8,3.6,5.8,5,8.9
	c1.2,2.7,2.2,5.5,3.1,8.3l-0.9,0.1l1,0.4l0.1,0.2c0.2,0.6,0.4,1.1,0.5,1.6c-2.3-0.6-4.3-1-5.3-1.2c-0.9-2.2-2-4.3-3.2-6.3
	c-1.8-2.8-4-5.4-6.5-7.8c-1.9-1.9-4-3.6-6.3-5.1c-1.7-1.1-2.8-1.8-2.8-1.8l2,2.3c1.5,1.9,3,3.9,4.2,6l0.1,0.2
	c-1-0.9-2.1-1.8-3.1-2.5c-2.1-1.6-4.2-3-6.5-4.3c-1.7-1-2.8-1.5-2.8-1.5l2,2.1c1.2,1.3,2.9,3.2,4.6,5.4c2.1,2.6,4,5.4,5.7,8.3
	c-2.8-2.6-5.9-4.8-9.2-6.6c-1.8-1-3.7-1.9-5.7-2.7c-1.5-0.6-2.4-0.9-2.4-0.9l1.8,1.6c1.1,1,2.5,2.4,4,4c0.7,0.7,1.4,1.5,2.1,2.3
	c-2-1.4-4.1-2.6-6.2-3.7c-2.2-1.1-4.5-2.2-6.9-3c-1.8-0.7-2.9-1-2.9-1l2.3,1.7c1.4,1.1,3.3,2.6,5.3,4.4c1.3,1.2,2.7,2.5,4,3.9
	c-2.3-1.4-4.8-2.6-7.3-3.7c-2.6-1.1-5.3-2.1-8-2.8c0,0,2.7,2.2,6,5c1.1,1,2.3,2.1,3.5,3.2c-2.6-1.6-5.6-3.4-8.5-5.1l0,0
	c-1.6-3.1-2.8-5.6-2.8-5.6c-0.2,1.2-0.4,2.5-0.5,3.8c-4.6-2.6-8.8-4.8-10.9-5.9c-3-3.8-5.1-6.8-5.1-6.8c0.6,2.9,1.5,5.7,2.5,8.5
	c0.4,1,0.8,2.1,1.2,3.2c-2.2-2.7-4-4.5-4-4.5l1.9,6.5l-0.2-0.3c-2.2-2.8-4.7-5.3-7.5-7.5c-2.2-1.8-4.5-3.3-7-4.7c-1.9-1-3-1.6-3-1.6
	s0.9,0.8,2.3,2.2c1.8,1.8,3.5,3.8,5.1,5.8c1.9,2.5,3.6,5.2,5.1,8c0.3,0.6,0.6,1.2,1,1.9c-2.7-2-5.6-3.8-8.7-5.2
	c-1.8-0.8-3.5-1.5-4.9-2.1c-1.1-1.1-2.3-2.1-3.5-3c-1.1-0.8-1.7-1.2-1.7-1.2l0.9,1.7l0.6,1.2l-1.3-0.4l1.5,1c0.3,0.7,0.7,1.5,1,2.4
	c0.5,1.1,0.9,2.3,1.4,3.5c-0.7-0.2-1.3-0.4-2-0.6c-2.5-0.7-4.8-1.2-6.5-1.6c-1.1-1.1-2.2-2.1-3.4-3c-1.1-0.8-1.8-1.3-1.8-1.3
	l0.9,1.8c0.3,0.6,0.6,1.2,0.9,2l-0.4,0l0.4,0.2c0.3,0.7,0.6,1.5,1,2.3s0.8,1.9,1.1,3c-0.8-0.2-1.6-0.5-2.4-0.7
	c-1.1-0.3-2.1-0.5-3.1-0.7c-3.5-5.2-7.6-10.3-9.2-12.3c0.2-0.1,0.4-0.2,0.6-0.2c0.1,0,0.2,0,0.3,0.1c0,0,0-0.1-0.3-0.2
	c-0.4-0.2-0.8-0.1-1.1,0.2h-0.1v0.1c0.5,1.9,1.8,6.4,3.4,11.1c-1.7-0.2-2.7-0.3-2.7-0.3l3,1.2c0.5,1.3,1,2.6,1.5,3.9l-0.6-0.1
	c-1.5-1.6-3.1-3.2-4.7-4.7c-1.6-1.9-3.3-3.9-4.7-5.7c-1.6-2.1-3-4-4-5.4l-1.6-2.2c0,0,0.2,1,0.6,2.6c0.5,2.1,1.2,4.2,2,6.3
	c0.9,2.3,1.9,4.5,3,6.7c-0.5-0.5-1-1.1-1.5-1.6c-2.1-2.2-4.4-4.1-6.9-5.7c-2-1.3-4.1-2.5-6.2-3.5c-1.6-0.8-2.7-1.2-2.7-1.2l2,1.8
	c1.6,1.5,3,3.1,4.4,4.7c2.3,2.7,4.3,5.7,6,8.8c-0.2-0.2-0.4-0.4-0.7-0.6c-2.6-2.3-5.5-4.2-8.5-5.7c-1-3-2-5.1-2-5.1
	s-0.4,1.6-0.8,3.8c-1-0.4-1.9-0.8-2.8-1.1c-1.9-0.7-3.9-1.3-6-1.7c0-0.7,0.1-1.3,0.2-1.8c0.1-1.3,0.2-2.1,0.2-2.1s-0.5,0.7-1.2,1.8
	c-0.3,0.5-0.6,1.1-1,1.7c-0.7-0.2-1.2-0.2-1.2-0.2l1,0.6c-0.5,0.8-0.9,1.7-1.4,2.7c-0.4,0.7-0.7,1.5-1,2.3c-2.9-1-5.5-1.6-7-2
	c-0.4-1.7-0.8-3.4-1.1-5c-0.5-2.5-0.8-4.8-1-6.5s-0.3-2.7-0.3-2.7s-0.3,1-0.8,2.6l-0.2,0.7c-0.2,0.2-0.7,0.7-1.4,1.5
	c-1.2,1.4-2.3,2.9-3.2,4.4c-0.6,1-1.1,2-1.5,3c0-0.4,0-0.8,0.1-1.2c0.1-1.3,0.3-2.7,0.5-4l0.3-1.6c0,0-0.5,0.5-1.3,1.3
	c-1,1.1-2,2.3-2.8,3.5c-0.3,0.5-0.7,1-1,1.6c-1.5-2-2.9-3.7-3.9-5.1l-1.7-2.3c0,0,0.3,1,0.8,2.7c0.3,1,0.7,2.2,1.2,3.5
	c-1.6-2.1-3.4-4.2-5.2-6.1c0,0,1.1,3.5,2.5,7.7c0.4,1.1,0.7,2.3,1.1,3.5c-1.6-1.9-3.3-3.8-4.9-5.4c-3.3-3.4-6.1-5.9-6.1-5.9l3.2,7.2
	c0.5,1,1,2.1,1.5,3.2c-0.4-0.3-0.8-0.7-1.3-1c-2.5-1.8-5.2-3.4-8-4.6c-2.2-1-4.5-1.8-6.9-2.5c-1.8-0.5-2.9-0.7-2.9-0.7l2.4,1.4
	c1.9,1.2,3.7,2.5,5.4,3.9c3,2.5,5.7,5.2,8.1,8.2c-3.5-2.8-7.4-5.1-11.5-6.8c-0.4-0.7-0.9-1.4-1.4-2c-1.4-1.7-2.9-3.3-4.6-4.7
	c-1.3-1-2.2-1.6-2.2-1.6s0.5,0.8,1.3,2.1c0.8,1.4,1.5,2.9,2.1,4.4c-0.6-0.2-1.3-0.4-1.9-0.6c-1.1-1.5-2.2-3-3.5-4.4
	c-1.7-2-3.6-3.8-5.5-5.5c-1.5-1.3-2.4-2.1-2.4-2.1l1.6,2.5c0.9,1.6,2.2,3.8,3.4,6.4c0.3,0.5,0.5,1.1,0.8,1.7
	c-1.7-0.3-2.8-0.5-2.8-0.5l2.6,1.3l0.7,0.4c0.8,1.8,1.5,3.7,2.2,5.6l-1.7-0.3c-0.7-1-1.4-2-2.1-3c-1.6-2.2-3.4-4.3-5.3-6.2
	c0,0,1.1,3.2,2.2,7.2c0.1,0.4,0.2,0.8,0.4,1.3l-2.3-0.2l-1.2-0.1c-0.1-1.3-0.3-2.6-0.4-3.9c-0.4-3.7-0.7-7.2-0.9-8.9l0.7,0.2
	l-0.8-0.6l-0.2-0.1l-0.1,0.2c-1.1,2.9-2,5.9-2.8,9c-0.8,3.1-1.2,6.3-1.5,9.5l-0.5-0.1c-0.6-2.8-1.2-5.7-1.6-8.3s-0.7-5.1-0.8-6.7
	c0-0.6,0.4-1.2,1.1-1.3c0.3-0.1,0.6,0,0.8,0.1c-0.2-0.2-0.5-0.4-0.8-0.4c-0.4,0-0.8,0.1-1.2,0.2c-0.4,0.3-0.7,0.6-0.9,1.1
	c-0.7,2.2-1.2,4.5-1.6,6.9c-0.4,2.3-0.6,4.7-0.6,7c-0.9-2.1-1.7-4.2-2.4-6.3c-0.6-1.9-1.1-3.8-1.5-5.7l-0.4-2.3c0,0-0.3,0.9-0.6,2.3
	c-0.4,2-0.7,4-0.8,6c-0.1,2.6,0,5.1,0.5,7.7c-1.4-2.7-3.2-5.2-5.3-7.5c-2.6-2.8-5.5-5.3-8.6-7.3c-2.5-1.7-5.2-3.1-8-4.3
	c-1-0.5-1.9-0.8-2.5-1l-0.9-0.3l0.8,0.5c0.5,0.4,1.2,0.8,2.1,1.5c2.2,1.7,4.3,3.5,6.2,5.5c2.3,2.4,4.4,5.1,6.3,7.9
	c0.5,0.8,1,1.6,1.4,2.3c-0.2-0.2-0.4-0.3-0.6-0.5c-2.6-2-5.4-3.8-8.4-5.2c-2.4-1.1-4.8-2.1-7.3-2.9c-1.9-0.6-3.1-0.8-3.1-0.8
	l2.6,1.6c2,1.3,3.9,2.7,5.8,4.3c4,3.5,7.6,7.4,10.7,11.7H183c-1.1-1.8-2.4-3.5-4-4.9c-4.1-3.7-8.8-6.8-13.7-9.3
	c-0.3-0.5-0.6-0.8-0.6-0.8s0,0.2-0.1,0.5c-1.5-0.7-2.9-1.4-4.4-2c-0.2-0.2-0.5-0.5-0.8-0.7c-2.2-4-4.1-6.9-4.1-6.9s0.3,2.5,0.8,6
	c-1.7-0.6-3.3-1.1-4.5-1.5c-2.2-0.6-3.5-1-3.5-1l3,1.7c1.5,0.9,3.4,2,5.5,3.4c0.1,0.6,0.2,1.3,0.3,1.9c-0.4-0.4-0.7-0.8-1.1-1.2
	c-1.4-1.4-2.9-2.6-4.6-3.7c-0.6-0.4-1.1-0.7-1.5-0.9l-0.6-0.3l0.3,0.5c0.2,0.3,0.6,0.7,0.9,1.3c0.9,1.4,1.8,2.9,2.4,4.5
	c0.2,0.5,0.4,0.9,0.6,1.4l-1.1-0.3c-1-2.1-2-4.2-3.2-6.2c0,0,0.1,2.3,0.2,5.4c-1.4-1.2-2.7-2.4-4.1-3.4c-4.3-3.5-8-5.8-8-5.8
	s2.3,3,5.1,7.1c-1.6-1.3-3.2-2.5-4.9-3.6c-2.1-1.3-4.4-2.5-6.7-3.6c-1.8-0.8-2.8-1.2-2.8-1.2l2.2,1.9c1.7,1.5,3.4,3.1,4.9,4.8
	c2.2,2.4,4.3,5,6.1,7.7c-2.2-1.3-4.5-2.5-6.8-3.5c-1.6-1.5-3.2-3-5-4.3c0,0,0.4,1.1,1.1,2.7l-0.6-0.2c-2.3-0.8-4.4-1.4-6.2-1.8
	c-1-1-2-1.8-3.2-2.7c-1.1-0.8-1.8-1.2-1.8-1.2s0.4,0.7,0.9,1.7c0.2,0.4,0.4,0.9,0.7,1.5h-0.1c-0.6-0.8-1.2-1.7-1.9-2.4
	c-1.7-2-3.5-3.8-5.5-5.5c-1.5-1.3-2.5-2-2.5-2s0.6,1,1.6,2.5c1.3,2,2.4,4.2,3.4,6.3c0.8,1.6,1.4,3.2,2,4.9c-0.9-1.2-1.8-2.3-2.8-3.3
	c-1.7-1.8-3.6-3.3-5.7-4.7c-1.6-1-2.6-1.6-2.6-1.6s0.7,0.8,1.8,2.2c1.4,1.8,2.6,3.6,3.6,5.6c0.2,0.5,0.5,0.9,0.7,1.4
	c-2.4-0.6-4.8-1-7.2-1.3c-0.5-0.4-1-0.8-1.5-1.2c-2.8-2.2-5.8-4.1-9-5.7c-2.5-1.3-5.1-2.3-7.8-3.2c-2-0.7-3.3-1-3.3-1l2.7,1.7
	c2.2,1.4,4.3,3,6.3,4.6c2.4,2,4.7,4.2,6.8,6.6c2.1,2.3,4,4.8,5.6,6.9c1.6,2.2,3.6,4.3,5.7,6.1l0.2,0.2h-4.6
	c-0.6-2.3-1.7-4.4-3.2-6.2c-3.5-4.4-9.6-9.2-15-12.4c-2.3-1.4-4.6-2.6-7-3.7c-1.8-0.8-3-1.3-3-1.3l2.3,2c1.4,1.2,3.3,3,5.4,5
	c0.8,0.8,1.6,1.6,2.4,2.5c-0.7-0.4-1.4-0.7-2-1c-2.4-1.1-4.6-2-6.2-2.6s-2.6-0.8-2.6-0.8l2,1.6c1.2,1,2.9,2.4,4.6,4
	c3.6,3.2,7.3,7.4,10.3,10.5c0.9,0.9,1.9,1.8,2.9,2.5h-5c-0.6-1.6-1.4-3.1-2.4-4.5c-3.3-4.4-9.2-9.3-14.7-12.3
	c-2.3-1.3-4.6-2.5-7-3.5c-1.8-0.8-3-1.2-3-1.2l2.3,1.9c1.4,1.2,3.4,2.9,5.4,4.8c2.8,2.8,5.5,5.8,7.9,8.9c-2.7-1.5-5.6-2.7-8.5-3.5
	c-2.1-0.7-4.3-1.2-6.5-1.6l4.6,3.9c2.6,2.2,5.5,4.9,8,6.7c0.2,0.2,0.4,0.3,0.7,0.4h-4c-0.5-0.4-1-0.8-1.5-1.2
	c-1-0.8-2.2-1.5-3.4-2.3c-3-5.4-6.4-10.6-10-15.6c0,0,0.8,5.2,2.2,11c-7-3.9-13.5-7.1-13.5-7.1s5.2,5.3,11.2,10.7
	c-9.6-7.8-22-16.1-22-16.1s5,6.1,11,12.7c-3.3-2.6-7.1-5.4-10.3-7.8l-8.3-6c0,0,2.3,3.5,5.7,7.8c0.7,0.9,1.4,1.8,2.2,2.7
	c-1.2-0.7-2.3-1.4-3.5-2.1c-5.1-2.9-9.3-4.8-9.3-4.8s3.1,2.9,7,6.8c1.4,1.3,2.8,2.8,4.2,4.3c-3.1-2.2-6.3-4.2-9.6-5.9
	c-2.5-1.3-4.9-2.4-6.5-3.1l-2.7-1.2c0,0,3.2,2.7,7,6.3c3.6,3.3,7.7,7.5,11,10.8h-1.1c-0.5-0.6-0.9-1.1-1.5-1.5
	c-6.2-5.5-18.7-12.6-18.7-12.6s2.3,3.3,5.5,7.2c-2.8-2.3-5.3-4.8-7.6-7.7c-1-1.4-2-2.8-2.8-4.4c-0.6-1.2-1-1.9-1-1.9
	S9,726.8,9,728.1c0,1.8,0.3,3.5,0.7,5.2c0.6,2.3,1.5,4.4,2.8,6.4c1.3,2.1,2.9,3.9,4.8,5.5c0.8,0.7,1.7,1.2,2.6,1.7h-2.7
	c-0.3-0.4-0.6-0.8-1-1.1c-2.1-1.9-5.2-4.2-7.6-6.3s-4.2-4-4.2-4c0.2,1.8,0.7,3.6,1.3,5.3c0.8,2.2,1.9,4.2,3.3,6.1H1.5v1.2l0.3,108.4
	v1H3l1398.2-0.7h0.3L1401.5,856.5z M130,735.9c0.2,0.5,0.5,1,0.7,1.6c0.6,1.4,1.1,2.8,1.6,4.3c-0.7-0.5-1.5-1-2.3-1.5
	c-0.8-2.4-2-4.6-3.5-6.6l1.7,1C128.8,735.1,129.4,735.5,130,735.9z M212.3,746.8h-1.6c0-0.2,0.1-0.5,0.1-0.7L212.3,746.8z
	 M265.4,743.5c0,0.2,0.1,0.3,0.1,0.5l-0.4-0.5v-0.3L265.4,743.5z M543.1,734.3l0.4,0.2c1,2.4,2.2,5.3,3.6,7.9l-1.6-0.8
	C544.7,739.2,543.8,736.7,543.1,734.3z M687.7,745c-0.2-0.2-0.3-0.5-0.5-0.7c1,0.8,2.1,1.5,3,2.2h-1.6
	C688.3,746,688,745.5,687.7,745z M235.1,746.8h-1.5c0-0.2,0-0.5,0-0.8L235.1,746.8z M926.7,746.4c0-0.1-0.1-0.3-0.1-0.4l0.5,0.4
	H926.7z M370.8,743.2c-0.3-0.5-0.6-1-1-1.5c-2.3-3.1-5.5-6.9-8.2-10.5c2.3,2.2,5.4,5.2,8.6,8.1C370.3,740.6,370.5,741.9,370.8,743.2
	z M281.1,746.7c0-1,0-2-0.1-3.1c1.5,1.1,2.9,2.1,4.3,3.1H281.1z M245.6,746l-0.1-0.3l0.5,0.5L245.6,746z M141.9,746.8
	c0-0.5,0-1-0.1-1.5l0.4,0.3c0.5,0.4,0.9,0.8,1.4,1.2H141.9z M1323.9,743.8c-0.6-1.3-1.2-2.6-1.9-3.8c0.9,0.9,2,1.8,3.2,2.9
	c1.5,1.3,3.2,2.6,4.9,3.9h-5.6C1324.6,745.7,1324.3,744.7,1323.9,743.8L1323.9,743.8z M1288.9,746c-1.1-1.8-2.3-3.6-3.6-5.2
	c2,1.8,3.9,3.8,5.7,5.7h-1.8C1289.1,746.3,1289,746.2,1288.9,746L1288.9,746z M1259.2,744.9c-0.1-1.1-0.2-2.2-0.4-3.3l0.4,0.5
	c1.3,1.4,2.4,2.9,3.5,4.4h-3.5C1259.3,745.9,1259.3,745.4,1259.2,744.9z M1174.2,746.2c-1.1-1.4-2.4-2.9-3.6-4.4
	c1.4,1.5,2.9,3,4.4,4.4L1174.2,746.2z M1132.2,740.5c1.4,1.8,2.9,3.9,4.3,5.8h-5.1c0.1-1.2,0-2.5-0.3-3.7c-0.4-1.6-0.9-3.4-1.5-5.3
	C1130.3,738.1,1131.2,739.2,1132.2,740.5L1132.2,740.5z M1116.7,745.6c0.2,0.2,0.3,0.5,0.5,0.7h-0.5
	C1116.7,746.1,1116.7,745.8,1116.7,745.6L1116.7,745.6z M1077,743c1,1,2,2.2,3,3.3h-5.1c0.1-0.3,0.2-0.7,0.2-1
	c0.2-1.2,0.3-2.5,0.3-3.7C1075.9,742,1076.4,742.5,1077,743L1077,743z M1044.4,746.3h-0.2c0-0.1-0.1-0.2-0.1-0.3L1044.4,746.3z
	 M851.6,745.3c0.3,0.4,0.6,0.8,0.9,1.1h-3.7c-0.5-2.6-1.1-5.1-1.9-7.6C848.6,741.1,850.2,743.4,851.6,745.3L851.6,745.3z
	 M788.7,733.8c5.7,3.1,10.8,7.2,15.2,12c-3.5-1.4-7.1-2.3-10.8-2.8c-0.7-2.6-1.8-5.1-3.2-7.3c-0.5-0.7-0.9-1.4-1.4-2L788.7,733.8z
	 M777.4,741.6c-0.1,0.2-0.1,0.5-0.2,0.7v-0.9L777.4,741.6z M721.2,742.6c-0.9-1.2-2-2.4-3.1-3.7c1,0.9,2.5,2.1,4.2,3.6
	c1.4,1.2,2.9,2.6,4.4,3.9h-3.3C722.8,745.1,722.1,743.8,721.2,742.6L721.2,742.6z M681.2,736.2l-1.3-0.4l-0.7-0.7L681.2,736.2z
	 M611.7,742c4.2,1.3,8.3,2.8,12.3,4.6h-0.7c-0.5-0.3-1.1-0.5-1.7-0.8c-3.1-1.2-6.3-2.1-9.5-2.9C611.9,742.6,611.8,742.3,611.7,742z
	 M605.8,745l0.2,0.5l-0.9-0.9L605.8,745z M561.2,746.6h-4.7c-0.3-1.2-0.8-2.3-1.5-3.3c-0.9-1.2-1.8-2.4-2.8-3.6
	C555.4,741.9,558.4,744.1,561.2,746.6z M543.2,733.9H543c-0.1-0.4-0.2-0.9-0.4-1.3s-0.2-0.8-0.3-1.2
	C542.5,732.1,542.9,733,543.2,733.9z M530.4,742.4c1.1,1.5,2.4,2.9,3.7,4.2h-0.8c-0.6-0.4-1.2-0.8-1.8-1.2
	C531.1,744.4,530.8,743.4,530.4,742.4L530.4,742.4z M452,736.7c0.7,0.4,1.4,0.9,2.1,1.4c1,0.7,2.1,1.4,3.1,2.2
	c-1.3-0.6-2.7-1.2-4.1-1.7C452.7,738,452.3,737.3,452,736.7L452,736.7z M450.5,741.7c0.4,1.5,0.8,2.9,1.4,4.2
	c-0.2-0.2-0.5-0.3-0.8-0.5c-0.1-0.7-0.4-1.5-0.7-2.1c-0.7-1.2-1.5-2.3-2.4-3.3C448.8,740.6,449.6,741.1,450.5,741.7L450.5,741.7z
	 M416.2,746.7h-1.9c0,0,0-0.1,0-0.1c-0.2-0.5-0.4-1.1-0.5-1.7L416.2,746.7z M379.1,746.7h-0.3c0-0.1-0.1-0.2-0.1-0.2l0.1,0.1
	L379.1,746.7z M343.4,738.4c0.9,0.8,1.7,1.7,2.6,2.5c-0.5-0.3-1-0.5-1.6-0.8C344.2,739.5,343.8,739,343.4,738.4L343.4,738.4z
	 M330.4,737.2c0.8,0.5,1.7,1,2.6,1.5c1.8,1,3.6,2.2,5.4,3.4c0.2,0.6,0.4,1.3,0.6,1.8c0,0.1,0.1,0.2,0.2,0.4
	c-1.7-0.8-3.5-1.6-5.3-2.3C332.9,740.3,331.8,738.7,330.4,737.2L330.4,737.2z M328.4,744.3c0.1,0.4,0.2,0.8,0.3,1.1
	c-1.2-0.5-2.5-1-3.8-1.4c-0.4-0.7-0.8-1.5-1.3-2.2C325.2,742.5,326.8,743.4,328.4,744.3L328.4,744.3z M311.5,746.7h-0.3
	c0-0.2-0.1-0.4-0.2-0.6C311.2,746.3,311.4,746.5,311.5,746.7L311.5,746.7z M296.3,745.5c0.4,0.4,0.9,0.8,1.4,1.2h-2.2
	c-0.1-0.7-0.2-1.5-0.4-2.2L296.3,745.5z M285.3,736.2c1.3,0.9,2.6,2,3.9,3.1c-0.1,1-0.3,2-0.4,3c-2.6-1.4-5.3-2.7-8-3.7
	c0-1.1,0-2.2,0.1-3.2c0-0.7,0.1-1.4,0.1-2C282.4,734.1,283.9,735,285.3,736.2L285.3,736.2z M275.2,739.5l0.6,0.4
	c-0.5,1.5-0.8,3-1.1,4.6c-1-0.6-1.9-1.2-2.9-1.8c-0.6-2.2-1.3-4.5-1.9-6.8C271.2,736.8,273.1,738,275.2,739.5z M265.1,730.9
	c0.2-1.9,0.6-3.8,1.2-5.6c-0.3,1.4-0.6,3-0.9,4.9c-0.4,2.9-0.5,5.7-0.4,8.6h-0.1C264.7,736.2,264.7,733.5,265.1,730.9L265.1,730.9z
	 M226.4,736.4c0,0.1,0,0.2,0,0.3l-0.2-0.4L226.4,736.4z M221.5,740.2c0.5,1.6,1,3.2,1.4,4.6c0.1,0.4,0.2,0.8,0.4,1.1h-0.1
	c-0.7-2.1-1.5-4.1-2.6-6L221.5,740.2z M210.4,736.2l0.9,0.3c0.9,0.3,1.9,0.6,3,1c0.5,2.1,1,4.2,1.5,6.3c-1.7-0.4-3.3-0.9-4.9-1.2
	C210.8,740.6,210.6,738.5,210.4,736.2L210.4,736.2z M204.2,742.5c0,0.1,0,0.2,0,0.3C204.2,742.8,204.2,742.6,204.2,742.5
	L204.2,742.5z M154.8,739l-0.8-0.8l-0.2-0.5l0.5,0.3l0.2,0.2C154.7,738.4,154.8,738.7,154.8,739z M110.8,737.7c-1-1.3-2-2.5-3.2-3.6
	c1.2,0.5,2.4,1,3.7,1.7c0.8,0.4,1.7,0.8,2.6,1.3c0.2,0.7,0.5,1.4,0.7,2.2c0.6,2.4,1.1,4.9,1.4,7.3c0,0.1,0,0.2,0.1,0.3h-2.2
	c0-0.4,0.1-0.8,0.1-1.2C113.7,742.7,112.7,740,110.8,737.7L110.8,737.7z"/>
<path class="st3" d="M1401.5,986l-0.3-108.4c-0.9-0.2-1.7-0.4-2.6-0.3c-1.1-2-2.5-3.8-4.2-5.3c-0.9-0.9-1.9-1.7-3-2.4
	c-0.8-0.5-1.3-0.8-1.3-0.8c0.5,1.5,1,3,1.4,4.5c0.1,0.4,0.2,0.9,0.3,1.3c-1.5-2.7-3.4-5.1-5.7-7.1c-1.3-1.1-2.7-2.1-4.2-3
	c-1.1-0.7-1.8-1-1.8-1l1,1.6c0.8,1.3,1.5,2.6,2.2,4c0.5,1,0.9,2,1.3,3.1c-1-0.9-2-1.8-3.2-2.6c-1.3-0.9-2.7-1.8-4.2-2.5
	c-1.1-0.5-1.8-0.8-1.8-0.8s0.4,0.6,1,1.5s1.5,2.2,2.3,3.6c1,1.7,1.8,3.4,2.6,5.2c-2.1-1.7-4.4-3.1-6.9-4.1c-1.3-0.5-2.6-1-4-1.3
	c-1-0.3-1.7-0.4-1.7-0.4s1.7,1.6,3.5,3.8c0.7,0.8,1.3,1.7,2,2.5h-1.6c-3.3-2.7-6.3-5.5-9.2-8.6c-1.7-1.8-3.1-3.5-4-4.7l-1.5-2
	c0,0,0.2,0.9,0.5,2.3c0.5,2,1.2,3.9,2,5.7c1,2.2,2.2,4.3,3.6,6.3c-2.4-2.6-5.2-5.6-7.4-8.2c-3-3.5-5.1-6.3-5.1-6.3s0.2,0.8,0.5,2.2
	c0.4,1.8,1,3.6,1.6,5.3c0.2,0.6,0.4,1.2,0.7,1.8c-1.9-1.4-4-2.5-6.1-3.5c-2.2-1-4.4-1.7-6.7-2.3c-1.7-0.4-2.8-0.6-2.8-0.6
	s0.9,0.5,2.3,1.3c1.8,1.1,3.5,2.4,5.1,3.7c1.9,1.6,3.7,3.5,5.3,5.4l0.6,0.7c-2.2-1.9-4.7-3.5-7.3-4.8c-3-1.6-6.1-2.8-9.3-3.8
	c-2.5-0.8-5.1-1.4-7.7-1.8c-2-0.3-3.1-0.4-3.1-0.4l2.8,1.2c2.2,1,4.4,2.2,6.4,3.4c3.6,2.1,6.9,4.5,10.1,7.2h-2.9
	c-4.2-2-9.3-4.2-13.6-6.2l-6.7-3.1c-3.2-5.3-7.1-10.3-7.1-10.3s1.2,11.6,4,18.2c0.2,0.4,0.4,0.8,0.6,1.1h-1
	c-0.1-0.2-0.1-0.3-0.2-0.5c-1.7-4.1-4-8-6.7-11.6c-2.5-3.5-4.8-6-4.8-6l1.6,7c0.2,0.8,0.4,1.5,0.6,2.3c-1.5-1.5-3.2-2.9-4.9-4.1
	c-1.8-1.3-3.7-2.4-5.7-3.4c-1.5-0.8-2.4-1.2-2.4-1.2l1.8,1.8c1.4,1.5,2.7,3,3.9,4.6c2.5,3.4,4.7,7.1,6.6,11h-1.1l-0.1-0.3
	c-1.2-2.2-2.8-4.1-4.7-5.7c-2-1.7-4.2-3.2-6.6-4.4c-1.9-0.9-3.8-1.7-5.9-2.3c-1.5-0.4-2.5-0.6-2.5-0.6s0.8,0.5,1.9,1.3
	c1.5,1.1,2.9,2.3,4.2,3.6c1.8,1.8,3.5,3.9,4.9,6.1c-3.2-2.7-6.8-4.9-10.6-6.6c-1.9-0.8-3.9-1.6-5.9-2.2c-0.1-0.1-0.3-0.3-0.4-0.4
	c-3.2-3.2-6-5.3-6-5.3l3,6.7c1.4,3.1,3,6.9,4.6,10h-0.8c-0.2-0.5-0.4-0.9-0.7-1.3c-3.7-6.3-12.8-15.5-12.8-15.5s0.9,3.6,2.4,7.9
	c-1.6-1.2-3.2-2.3-5-3.2c-1.8-0.9-3.8-1.6-5.7-2.2c-1.5-0.4-2.4-0.6-2.4-0.6s0.7,0.5,1.9,1.3c1.4,1.1,2.8,2.3,4,3.5
	c2.2,2.3,4.1,4.9,5.6,7.7c-2.1-1.8-4.5-3.2-7-4.2c-1.1-0.4-2.2-0.8-3.3-1.1c-0.9-2.9-2.2-5.7-3.8-8.3c-1.1-1.8-2.3-3.5-3.6-5.1
	c-1-1.2-1.7-1.9-1.7-1.9s0.3,0.9,0.7,2.3s0.9,3.4,1.4,5.6c0.8,4.6,1.3,9.2,1.4,13.9c0,0.4,0.1,0.8,0.1,1.2h-0.4
	c0-0.8-0.1-1.5-0.2-2.3c-0.8-4-3.6-8.8-6.5-12.3c-1.2-1.5-2.6-2.8-4-4.1c-1.1-1-1.8-1.5-1.8-1.5l0.9,2c0.5,1.2,1.2,2.9,1.8,4.8
	c1.2,4,2.2,8,3,12.1c0.1,0.4,0.2,0.9,0.4,1.3h-0.3c-0.2-2.1-0.8-4.1-1.7-5.9c-1.2-2.3-2.8-4.3-4.7-6c-1.5-1.4-3.2-2.5-5.1-3.5
	c-0.7-0.4-1.5-0.7-2.3-1c0,0,0.6,0.6,1.6,1.7c1.2,1.3,2.2,2.8,3,4.3c1,1.8,1.7,3.8,2.1,5.8c0.2,1,0.3,2.1,0.4,3.1
	c-3-3.6-6.6-6.7-10.6-9.1c-2.1-1.3-4-2.3-5.4-3s-2.3-1.1-2.3-1.1l1.6,1.7c1,1.1,2.3,2.6,3.7,4.3c2.2,2.6,4.4,5.8,6.3,8.6h-0.9
	c-0.2-0.3-0.3-0.5-0.5-0.8c-2.3-3.5-6.8-7.4-10.9-9.8c-1.7-1-3.5-2-5.4-2.8c-1.4-0.6-2.3-0.9-2.3-0.9l1.6,1.6c1,1,2.3,2.4,3.6,4
	c2.3,2.8,4.3,5.7,6.2,8.7h-2.4c-3-3.5-6.6-6.6-10.5-9.1c-2.1-1.4-4-2.4-5.3-3.2s-2.2-1.2-2.2-1.2l1.5,1.8c0.9,1.1,2.2,2.6,3.6,4.4
	c1.8,2.2,3.6,4.8,5.3,7.3h-1.1c-0.1-0.2-0.1-0.4-0.2-0.6c-1.3-3.4-4.4-7.3-7.4-10c-1.3-1.1-2.7-2.2-4.1-3.2
	c-1.1-0.7-1.8-1.1-1.8-1.1l0.9,1.7c0.6,1,1.3,2.5,2,4.1s1.4,3.2,2,4.8c-1.4-1.4-2.9-2.8-4.2-4c-2.9-2.9-5.1-5.4-5.1-5.4
	c0.4,1.9,1,3.9,1.8,5.7c-1.9-1.5-3.9-2.9-6-4.1c-2-1.2-3.9-2.1-5.2-2.7s-2.2-0.9-2.2-0.9l1.5,1.6c0.9,1,2.2,2.4,3.5,4
	c2.7,3.1,5.4,7,7.7,9.9h-0.8c-0.1-0.2-0.3-0.3-0.4-0.5c-3.7-3.6-7.7-6.8-12.1-9.5c-1.9-1.2-3.9-2.1-6.1-2.6c-0.7-0.2-1.3-0.3-2-0.3
	h-0.7l0.6,0.3c0.5,0.2,1.1,0.5,1.6,0.9c1.6,1,3,2.3,4.2,3.8c2.1,2.5,4.4,5.4,6.6,8h-2.2l-0.3-0.3c-5.6-4.4-15.6-9.7-19.1-11.5
	c-1.4-1.9-2.7-3.7-3.6-4.9l-1.5-2.2c0,0,0.2,1,0.5,2.5c0.2,1,0.6,2.4,1.1,3.9c-1.1-1.2-2.2-2.3-3.4-3.4c-1.1-1-1.8-1.5-1.8-1.5
	l0.9,2c0.6,1.2,1.2,2.9,1.9,4.9c1.1,3.5,2.1,7,2.8,10.6l0,0c-2.6-4.4-6.2-8.1-10.6-10.8c-1.8-1.2-3.7-2.2-5.7-3.1
	c-1.5-0.7-2.4-1-2.4-1l1.8,1.7c0.6,0.6,1.3,1.3,2,2.1c-1.4-0.5-2.7-1-4.1-1.3c-1.6-0.4-2.6-0.6-2.6-0.6s0.8,0.5,2,1.3
	c1.6,1.1,3.1,2.3,4.5,3.6c2.6,2.4,5,5.2,6.9,8.2h-5.1c-0.3-0.4-0.6-0.8-0.9-1.2c-3.1-3.3-6.7-6.1-10.7-8.3c-1.9-1.1-3.7-1.9-5-2.4
	s-2.1-0.9-2.1-0.9s2,2.1,4.3,4.8c-1.6-0.8-3.2-1.5-4.9-2.1c-0.7-2.1-1.6-4.1-2.7-6.1c-0.9-1.6-2-3.2-3.3-4.6c-0.5-0.5-1-0.9-1.2-1.2
	l-0.4-0.4c0,0,0.3,0.8,0.7,2c0.5,1.6,0.8,3.2,1,4.9c0.2,1.4,0.3,3,0.3,4.6c-1.1-1.3-2.4-2.5-3.7-3.5c-1.3-1-2.6-2-4-2.9
	c-1.1-0.7-1.8-1-1.8-1s0.4,0.6,0.9,1.6s1.3,2.3,2.1,3.8c0.9,1.9,1.8,4,2.6,6c-2.2-2.1-4.6-3.9-7.3-5.3c-1.6-0.8-3.2-1.5-4.9-2.1
	c-1.3-0.4-2.1-0.7-2.1-0.7l1.4,1.3c0.4,0.4,0.8,0.8,1.3,1.3l-0.8-0.5c-1.5-0.9-3-1.7-4.6-2.4c-1.2-0.5-2-0.7-2-0.7s0.5,0.5,1.3,1.4
	c1,1.1,1.9,2.3,2.8,3.5c1.9,2.9,3.5,6,4.8,9.2c0.3,0.6,0.6,1.1,1,1.6h-3.9c0-0.9-0.1-1.9-0.5-2.7c-1.2-3.3-4.4-7.1-7.7-9.5
	c-1.4-1-2.8-2-4.3-2.8c-1.1-0.6-1.9-0.9-1.9-0.9l1.1,1.5c0.7,0.9,1.5,2.3,2.3,3.8c1,1.8,1.8,3.6,2.5,5.5c-1.8-1.9-3.9-3.5-6.2-4.7
	c-1.4-0.8-2.9-1.4-4.5-1.9c-1.2-0.4-1.9-0.5-1.9-0.5l1.3,1.2c0.5,0.5,1.1,1.2,1.7,1.9c-0.7-0.6-1.5-1.1-2.3-1.5
	c-1.5-0.9-3.1-1.7-4.7-2.3c-1.2-0.5-2-0.7-2-0.7l1.3,1.4c1,1.1,2,2.3,2.9,3.5c1.9,2.8,3.6,5.7,5,8.8h-0.6c-0.1-0.1-0.3-0.3-0.4-0.4
	c-2.7-2.3-5.8-4-9.1-5.1c-1.4-0.5-2.6-0.8-3.6-1c-0.2-2.9-1-5.8-2.1-8.4c-0.7-1.7-1.7-3.4-2.7-5c-0.8-1.2-1.4-1.9-1.4-1.9l0.4,2.1
	c0.3,1.7,0.4,3.5,0.4,5.2c0,2-0.1,4-0.3,6c-0.7-1.1-1.6-2.1-2.6-3c-1.1-1.1-2.3-2-3.6-2.8c-1-0.6-1.6-0.9-1.6-0.9s0.3,0.6,0.8,1.5
	c0.6,1.2,1.1,2.4,1.5,3.6c0.8,2.6,1.3,5.3,1.4,8c-1.9-3.2-4.4-5.9-7.4-8.1c-1.2-1-2.5-1.8-3.9-2.6c-1-0.6-1.7-0.9-1.7-0.9
	s1.4,2.2,2.8,5.2c1.2,2.3,2.3,5,3.4,7.4c-2.5-2.5-5.4-4.6-8.6-6.1c-1.5-0.7-3-1.4-4.6-1.9c-1.2-0.4-1.9-0.6-1.9-0.6l1.3,1.3
	c0.8,0.8,1.8,1.9,2.9,3.2s2.2,2.7,3.2,4.1c-2.1-1.2-4.4-2.1-6.7-2.9c-1.3-0.5-2.6-0.8-3.5-1.1c-2.7-3.1-5.6-6.1-8.6-8.9
	c0.7,3.1,1.6,6.2,2.6,9.2c-0.5-0.6-1.1-1.2-1.6-1.7c-1.2-1.2-2.5-2.3-3.8-3.2c0,0,0.3,2.1,0.7,4.4c0.3,1.8,0.6,3.8,1.1,5.6h-1.4
	c-0.2-1.2-0.6-2.4-1.1-3.6c-0.8-1.8-1.9-3.4-3.3-4.8c-1.1-1.1-2.3-2.1-3.6-3c-1-0.6-1.6-1-1.6-1s0.3,0.6,0.8,1.5
	c0.6,1.2,1.1,2.4,1.4,3.7c0.4,1.4,0.6,2.8,0.7,4.2c-1.8-2.2-4.1-4-6.6-5.4c-1.4-0.7-2.8-1.3-4.2-1.8c-1.1-0.3-1.8-0.5-1.8-0.5
	l1.2,1.2c1.9,2,3.4,4.3,4.7,6.7c-2.7-2-5.6-3.6-8.7-4.7c-1.6-0.6-3.3-1.1-5-1.5c-1.3-0.3-2.1-0.4-2.1-0.4l1.6,1.2
	c1,0.7,2.2,1.8,3.6,3c1.8,1.7,3.5,3.4,5.2,5.2h-1.8c-0.4-0.4-0.8-0.8-1.2-1.1c-3.4-2.4-7.1-4.2-11-5.6c-2.2-0.8-4.5-1.5-6.7-2.1
	l4.8,4.3c1.5,1.4,3.2,3,4.9,4.5h-1.5c-0.3-0.5-0.7-0.9-1.2-1.3c-2.2-2-5.3-4.5-7.5-6.9c-1.1-1.2-2.1-2.3-2.7-3.2l-1-1.4
	c0,0,0,0.6,0,1.6c0.1,1.4,0.3,2.7,0.7,4c0.7,2.6,1.9,5,3.5,7.1h-1.5c-0.1-0.1-0.2-0.3-0.3-0.4c-2.1-2.4-3.7-5-4.9-7.9
	c-0.5-1.2-0.8-2.5-1-3.8c-0.1-1-0.2-1.6-0.2-1.6c-0.3,0.5-0.6,1-0.9,1.5c-0.6,1.3-1.1,2.7-1.3,4.1c-0.3,1.8-0.3,3.7,0.2,5.6
	c0.2,0.9,0.5,1.8,0.9,2.6h-1.5c-0.7-1.9-2-4.5-2.8-6.7s-1.4-4.1-1.4-4.1c-0.8,1.3-1.5,2.7-1.9,4.2c-0.1,0.2-0.2,0.5-0.2,0.7
	c-0.2-1-0.5-2-0.9-3c-0.6-1.5-1.2-2.9-2-4.3c-0.6-1-1-1.6-1-1.6s0,0.7,0,1.8s-0.1,2.7-0.3,4.4c0,0.6-0.1,1.2-0.2,1.8
	c-0.1-0.9-0.3-1.7-0.5-2.6c-0.4-1.5-0.9-3-1.6-4.4c-0.5-1-0.9-1.7-0.9-1.7s-0.1,0.7-0.2,1.8c-0.2,1.4-0.4,2.9-0.7,4.3
	c-0.3,1.2-0.6,2.5-1,3.7c-1-3.6-2.1-7.1-3.5-10.6c-0.8,2.9-1.4,5.8-1.8,8.8c-0.9-1.7-2.2-3.2-3.6-4.5c-1.4-1.3-2.9-2.4-4.6-3.3
	c-0.7-0.4-1.4-0.7-2.1-1c0,0,0.5,0.6,1.3,1.6c1,1.3,1.8,2.6,2.4,4.1c0.8,1.7,1.3,3.5,1.5,5.4c0.2,1.7,0.2,3.4,0.1,5.1
	c0,0.1,0,0.1,0,0.2h-0.1l-0.2-0.4c-2.4-3.4-5.5-6.3-9.1-8.4c-1.5-0.9-3-1.7-4.5-2.4c-1.2-0.5-1.9-0.8-1.9-0.8l1.2,1.5
	c0.7,0.9,1.7,2.2,2.7,3.6c0.1,0.2,0.3,0.4,0.4,0.6c-0.2-0.1-0.4-0.2-0.6-0.3c-1.3-0.6-2.7-1.2-4.1-1.6c-1.1-0.3-1.7-0.4-1.7-0.4
	l1.1,1.1c0.7,0.7,1.5,1.7,2.4,2.9c1,1.3,1.9,2.6,2.7,4c-3.4-2.5-7.2-4.4-11.3-5.4c-1.7-0.4-3.4-0.8-5.1-1c-1.3-0.2-2.1-0.2-2.1-0.2
	l1.7,1c1,0.6,2.4,1.6,3.8,2.6c0.3,0.2,0.6,0.5,1,0.7c-1.9-0.4-3.8-0.7-5-0.9c-1.4-1.8-2.9-3.4-4.7-4.8c-1.5-1.2-3-2.3-4.6-3.2
	c0,0,0.8,2,1.7,4.6c0.3,0.9,0.7,1.9,1,2.8c-1.7-1.1-3.5-2-5.4-2.7c-1.5-0.5-3-0.9-4.6-1.2c-1.2-0.2-1.9-0.2-1.9-0.2l1.4,1
	c1.1,0.8,2.1,1.7,3.1,2.6c0.6,0.5,1.1,1.1,1.6,1.7c-3.3-2.2-7-4-10.8-5.2c-2.1-0.7-4-1.2-5.4-1.5s-2.2-0.5-2.2-0.5l1.7,1.2
	c1.1,0.8,2.5,1.8,4.1,3.1c1.3,1,2.6,2.1,3.9,3.2c-2.2-0.7-4.4-1.3-6.6-1.8c-4-0.9-7.2-1.2-7.2-1.2l5.7,3.7l3.5,2.3h-4l-0.1-0.1
	c-3-2.3-7.2-5.4-10.2-8.3c-1.5-1.4-2.8-2.8-3.7-3.8l-1.4-1.6c0,0,0.2,0.7,0.5,2c0.5,1.7,1.1,3.3,1.8,4.8c0.3,0.8,0.8,1.5,1.2,2.3
	c-1.3-1-2.6-2.1-3.8-3.1c-2.8-2.3-4.9-4.3-4.9-4.3c1.2,4.4,3.2,8.5,5.9,12.1h-3.1l-0.1-0.1c0-0.7-0.2-1.3-0.3-2
	c-2-7.2-8.4-18.3-8.4-18.3s-0.1,6,0.6,12c-0.7-1-1.3-2-1.9-3.1c-0.5-1.1-0.8-1.7-0.8-1.7s-0.1,0.7-0.2,1.9c-0.1,1.5,0,2.9,0.3,4.4
	c-1.7-2.6-3.7-4.9-6-7.1c-1.3-1.3-2.8-2.5-4.2-3.6c-1.1-0.8-1.8-1.3-1.8-1.3l1,1.8c0.6,1.1,1.4,2.7,2.2,4.5c0.2,0.5,0.5,1.1,0.7,1.7
	c-1.3-1.3-2.6-2.6-4.1-3.8c-1.5-1.3-3.1-2.5-4.8-3.6c-1.3-0.8-2-1.3-2-1.3l1.2,1.8c0.8,1.2,1.8,2.8,2.8,4.6s2.3,4.1,3.3,6.2
	c-2.8-2.8-5.8-5.2-9.2-7.2c-1.8-1.1-3.7-2.1-5.6-3c-1.5-0.7-2.4-1.1-2.4-1.1l1.7,1.7c1,1.1,2.4,2.6,3.9,4.3c0.2,0.2,0.3,0.4,0.5,0.6
	c-0.3,1.7-0.7,4-1,6.4c-3.5-2.3-7.2-4.3-11.1-5.8c-2.7-1-5-1.8-6.8-2.3s-2.8-0.7-2.8-0.7l2.3,1.5c1.4,0.9,3.3,2.3,5.4,3.8
	c1.4,1,2.8,2.2,4.2,3.4c-3.2-1.9-6.5-3.4-10-4.6c-2-0.7-4.1-1.3-6.2-1.8c-1.6-0.4-2.5-0.5-2.5-0.5l0.2,0.2c-2.1-1-3.5-1.5-3.5-1.5
	s2.8,2.6,6.3,5.9c2.5,2.4,5.2,5.2,7.7,7.7h-1.1c-0.6-1.1-1.3-2.2-2.1-3.1c-5.8-6.5-17.9-15.5-17.9-15.5s3.4,6.3,7.5,12.2
	c-2-2-4.2-3.8-6.4-5.6c-3.8-2.9-6.9-4.9-6.9-4.9l4.2,6.6c0.8,1.2,1.6,2.5,2.5,3.8c-0.2-0.2-0.4-0.3-0.7-0.5
	c-2.7-1.7-5.6-3.2-8.6-4.3c-2.4-0.9-4.8-1.6-7.3-2.2l-1.4-0.3l-0.6-0.7c-0.8-0.8-1.2-1.3-1.2-1.3s0.1,0.7,0.2,1.7c0,0,0,0.1,0,0.1h0
	h0c0.1,1,0.3,2.4,0.4,3.9c0.2,1.9,0.2,4.1,0.1,6.1H785l-1.6-0.8c-0.2-4.7-0.8-9.4-1.6-14c0,0-2.2,5.5-3.7,11.2l-0.9-0.3
	c0-2.1-0.1-4.2-0.1-6.2c0-4.4,0-8.1,0-8.1c-1.2,2.5-2.3,5.1-3.3,7.7c-0.3,0.8-0.6,1.7-0.9,2.6c-0.2-1.2-0.3-2.3-0.5-3.5
	c-0.6-4.6-1-8.7-1.1-10.6c0.4,0.3,0.6,0.4,0.6,0.4s-0.2-0.3-0.7-0.8l-0.2-0.2l-0.1,0.3c-1.1,3.6-1.9,7.2-2.5,10.9
	c-0.4,2.4-0.7,4.8-0.8,7.3c-1.8-4.9-3.5-8.8-3.5-8.8s-0.3,4.1-0.4,9.2c-2.2-6-4.4-11.2-4.4-11.2s-0.2,5.9,0.1,12.5
	c-0.5-0.8-0.9-1.6-1.5-2.4c-1.9-2.8-4.2-5.3-6.9-7.5c-2.1-1.8-4.4-3.3-6.8-4.6c-0.9-0.5-1.7-0.8-2.2-1.1l-0.8-0.4l0.6,0.6
	c0.4,0.4,1,0.9,1.7,1.6c1.8,1.7,3.4,3.6,4.8,5.7c1.7,2.4,3.2,5,4.4,7.8c1,2.3,1.8,4.6,2.4,7h-0.7c-2.9-2.8-6.2-5.2-9.8-7.2
	c-2.1-1.2-4.3-2.2-6.6-3.1c-0.8-0.3-1.5-0.6-1.9-0.7s-1.2-0.5-1.7-0.8c-1.7-0.7-2.7-1-2.7-1l2.1,1.7c1.6,1.4,3.2,2.9,4.7,4.5
	c1.9,2.1,3.7,4.3,5.2,6.7l0,0c-3.5-3-7.3-5.5-11.4-7.5c-2.3-1.2-4.5-2.1-6-2.7s-2.5-0.9-2.5-0.9l1.9,1.6c1.2,1,2.7,2.4,4.4,4.1
	c1.4,1.3,2.8,2.8,4.2,4.3c-3.2-2-6.5-3.6-10-5c-3.2-1.3-6-2.1-7-2.4c-1.9-2.2-3.9-4.5-5.7-6.5c-2.9-3.4-5.5-6.4-5.5-6.4
	c0.7,2.6,1.5,5.1,2.5,7.6c1.7,4.6,4.1,9,7,13c0.2,0.3,0.5,0.6,0.7,0.9h-0.6c-0.1-0.1-0.1-0.2-0.2-0.2c-1.9-2.5-4.7-5.6-6.9-8.4
	s-3.7-5-3.7-5c0,2,0.2,4,0.6,6c0,0.2,0.1,0.3,0.1,0.5c-1.3-1-2.6-2-4-2.8c-4.8-5-9.4-9.2-9.4-9.2s1.1,2.5,2.8,6c-2-0.8-4-1.4-6-1.9
	c-1.7-0.4-2.7-0.6-2.7-0.6l2.2,1.3c1.7,1.1,3.4,2.3,5,3.6c1.9,1.5,3.7,3.1,5.4,4.9c0,0,0,0,0,0.1c-4.1-2.1-8.5-3.7-12.9-5
	c-3-0.9-5.6-1.5-7.6-1.9l-0.7-0.1c-2.6-2.6-4.5-4.3-4.5-4.3s0.8,2.4,2.2,5.6c-1.9-0.4-3.5-0.6-4.9-0.8c-2-0.2-3.2-0.3-3.2-0.3
	l2.9,1.1c1.7,0.7,4,1.7,6.4,2.9c0.8,1.7,1.6,3.5,2.5,5.3c-3.5-1.9-7.5-3.8-10.8-5.6l-8.2-4.2c0,0,2.4,2.8,6,6.3
	c2.6,2.4,5.3,4.6,8.1,6.7h-5.5c-0.9-1.2-1.9-2.4-3-3.5c-3.9-3.8-9.1-8.7-13-13c-2-2.2-3.6-4.1-4.8-5.5l-1.8-2.3c0,0,0.3,1,0.9,2.7
	c0.8,2.2,1.7,4.4,2.8,6.5c2.8,5.6,6.4,10.7,10.8,15.2h-2.3l-0.8-0.9l-2.5-2.8c-0.9-1-1.9-2-2.9-3c-2-2.1-4.1-4.1-5.9-6
	c-3.6-3.5-6.6-6.5-6.6-6.5s1.4,3.5,3.8,8c0.3,0.5,0.6,1.1,0.9,1.6c-2.5-1.3-5.2-2.4-7.9-3.3c-2.4-0.8-4.8-1.4-7.3-1.9
	c-1.9-0.4-3-0.5-3-0.5l2.6,1.3c1.6,0.8,3.7,2,6,3.5c0.7,0.4,1.4,0.9,2.1,1.4c-2.1-0.9-4.2-1.6-6.4-2.1c-2.3-0.6-4.6-1-7-1.2
	c-1.8-0.2-2.8-0.2-2.8-0.2l2.5,1c2,0.8,4,1.8,5.9,2.8c2,1.1,3.8,2.3,5.7,3.6c-3.2-1.1-6.5-1.8-9.9-2.1c-2.3-0.2-4.7-0.3-7-0.3
	c-1.7,0.1-2.8,0.2-2.8,0.2l0.8,0.2c-1.5-0.2-3.1-0.3-4.5-0.4h-0.7c-0.9-2.3-1.8-4.7-2.5-6.9c-1.4-4.1-2.4-7.3-2.4-7.3
	c-0.5,2.5-0.9,5.1-1,7.7c-0.1,2.2-0.1,4.4,0.1,6.7l-1.2,0.1c-1.9,0.2-3,0.3-3,0.3l2.9,0.5l1.4,0.3c0,0.4,0.1,0.8,0.2,1.3h-0.2
	c-1.2-0.2-2.4-0.4-3.5-0.5c-1.8-1.8-3.5-3.7-4.9-5.6c-1.7-2.1-3.1-4-4-5.4l-1.5-2.3c0,0,0.2,1,0.5,2.6c1.4,5.9,4,11.5,7.5,16.3h-3.7
	c0-0.3-0.1-0.7-0.2-1c-0.6-2.5-1.3-4.9-2.2-7.3c-0.8-2.6-1.9-5.1-3.1-7.5c-1-2.1-2.6-3.9-4.5-5.2c-0.6-0.4-1.2-0.7-1.9-1l-0.7-0.3
	l0.6,0.5c0.5,0.4,0.9,0.9,1.3,1.4c1.1,1.6,1.8,3.5,2,5.4c0.3,1.7,0.4,3.5,0.5,5.5c-0.2-0.2-0.4-0.5-0.7-0.7
	c-2.6-2.4-5.5-4.5-8.7-6.1c-2.5-1.3-5.1-2.5-7.8-3.3c-1-0.3-1.8-0.5-2.4-0.7l-0.9-0.2l0.8,0.5c0.5,0.3,1.2,0.7,2,1.2
	c2.2,1.4,4.2,3,6.1,4.7c2.3,2.1,4.4,4.4,6.3,6.8c1.7,2.3,3.3,4.7,4.7,7.2c0,0.1,0.1,0.2,0.2,0.3h-3.1c-0.4-1.3-1.1-2.4-1.9-3.5
	c-2.9-3.8-8.1-8-12.9-10.6c-2-1.1-4.1-2.1-6.2-3c-1.6-0.7-2.6-1-2.6-1l2,1.7c1.2,1,2.8,2.5,4.5,4.3c2.9,3,5.6,6.2,8,9.5
	c-3.1-1.8-6.3-3.3-9.7-4.5c-2.6-1-5-1.7-6.7-2.2s-2.8-0.7-2.8-0.7l2.2,1.5l2.1,1.4c-2.3-1.2-4.7-2.2-7.1-3c-1.7-0.6-3.3-1.1-4.7-1.5
	c-2.8-2.9-5.4-5.2-6.3-6c-0.7-2.5-1-4.2-1-4.2s-0.2,0.8-0.5,2.2c-0.4,1.9-0.7,3.8-0.8,5.7c-0.2,1.7-0.2,3.3-0.2,5
	c-2.2-1.4-4-2.7-5.3-3.7l-2.3-1.8c0,0,0.5,0.9,1.5,2.3c1.3,1.9,2.8,3.8,4.3,5.5c0.6,0.7,1.4,1.4,2.1,2.2c0.1,0.9,0.3,1.8,0.4,2.7
	c-2.7-1.8-5.4-3.6-7.7-5.4c-1.6-1.3-3.1-2.5-4.3-3.5l-2-4.9l-3.6-8.8c0,0-0.1,4,0.3,9.3c0.2,2.5,0.5,5.3,1,8.1
	c-2.2-1.6-4.5-3.2-6.4-4.8c-2.5-2-4.7-3.8-6.2-5.1l-2.5-2.1c0,0,0.6,1,1.6,2.6s2.6,3.9,4.5,6.3c2.8,3.5,5.9,6.8,9.2,9.8h-1.1
	l-0.2-0.2c-5.4-3.9-12.6-8.8-18.2-13.1c-2.8-2.1-5.3-4-7.1-5.4l-2.9-2.3l2,2.8c1.3,1.7,3.1,4.1,5.4,6.7c3.5,4.1,7.3,7.9,11.4,11.4
	h-4c-0.1-0.2-0.2-0.3-0.3-0.5c-5.5-8.6-17.3-21.2-17.3-21.2s1.5,3.7,3.6,8.5c-0.2-0.3-0.5-0.5-0.8-0.8c-1.4-1.4-3-2.7-4.6-3.9
	c-1.2-0.9-2-1.4-2-1.4l1.2,1.9c0.7,1.2,1.6,2.9,2.5,4.8c1.5,3.3,2.8,6.7,3.9,10.2c-0.4-0.7-0.8-1.4-1.2-2c-0.6-0.9-1.4-1.8-2.2-2.8
	c-3.8-6.5-8.3-12.7-8.3-12.7s0.4,2.1,1,5.1c-3.7-3.5-6.8-6.2-6.8-6.2s5,11.4,9.9,18.4l0.1,0.5h-1.2c-0.2-0.7-0.5-1.4-0.8-2.1
	c-1.2-2.5-2.8-4.7-4.7-6.7c-2-2.1-4.2-4.1-6.6-5.7c-1.9-1.3-3.9-2.5-6-3.5c-1.6-0.8-2.6-1.2-2.6-1.2l1.9,1.8
	c0.4,0.4,0.9,0.9,1.4,1.5c-1-0.5-1.9-1-2.7-1.4c-1.7-0.8-2.7-1.2-2.7-1.2l2.1,1.9c1.6,1.5,3.2,3.1,4.7,4.8c0.2,0.3,0.5,0.6,0.7,0.8
	c-1.2-1-2.4-1.9-3.6-2.7c-2.3-1.6-4.7-3.1-7.2-4.5c-1.9-1-3.1-1.6-3.1-1.6l2.4,2.2c1.4,1.4,3.4,3.4,5.5,5.7c0.5,0.5,0.9,1,1.3,1.5
	c-1.8-0.5-3.6-0.9-5.5-1.2c-1.7-0.2-2.7-0.3-2.7-0.3l2.3,1.1c4.8,2.4,9.1,5.6,12.8,9.4c0.8,1.2,1.6,2.3,2.4,3.4h-1.6
	c-0.6-0.8-1.4-1.5-2.1-2.2c-2.4-2-4.9-3.7-7.7-5.1c-1.6-2.1-3.4-3.9-5.5-5.5c-1.5-1.2-3.2-2.2-4.9-3.1c-1.3-0.7-2.1-1-2.1-1l1.4,1.7
	c1.1,1.3,2.1,2.7,3,4.2c0.1,0.1,0.1,0.2,0.2,0.3l-0.2-0.1c-1.9-0.7-3.7-1.2-5.3-1.6l-0.8-1.7c0,0,0,0.5-0.1,1.5l-0.9-0.2
	c-1.8-0.4-2.9-0.6-2.9-0.6l2.5,1.4l1.3,0.8c0,0.7,0,1.4,0.1,2.2l-0.9-0.3c-1.3-0.4-2.6-0.7-3.8-1c-1.4-1.8-3-3.4-4.7-4.9
	c-1.5-1.4-3.2-2.7-4.9-3.8c-1.3-0.9-2.1-1.4-2.1-1.4l1.3,1.9c0.8,1.2,1.8,2.9,2.9,4.8c1.5,2.7,2.8,5.5,4,8.3
	c-1.2-0.4-2.5-0.8-3.7-1.1c-1.8-2.1-3.5-4.3-5.1-6.5c-1.4-1.9-2.5-3.7-3.2-5l-1.2-2.1c0,0,0,0.9,0.2,2.3c0.1,0.7,0.2,1.5,0.3,2.4
	c-3.5-4.7-6.8-8.5-6.8-8.5s1.2,4.8,3.1,10.3l-1.6-1.4c0,0,1.3,2.9,3.3,6.8h-0.4c-2-0.1-3.2-0.2-3.2-0.2l2.9,1
	c0.4,0.1,0.8,0.3,1.3,0.5l0.5,0.9c0.5,1.2,1,2.3,1.6,3.3c0.1,0.2,0.2,0.3,0.3,0.5c-1.6-0.4-3.2-0.6-4.8-0.8
	c-0.1-0.3-0.1-0.5-0.2-0.8c-1.1-3.4-2.7-6.6-4.7-9.6c-2.1-3.1-4.6-6-7.4-8.6c-2.3-2.2-5.1-3.9-8-5c-0.9-0.3-1.9-0.5-2.8-0.6l-1-0.1
	l1,0.3c0.8,0.3,1.6,0.7,2.4,1.2c2.3,1.5,4.3,3.5,5.8,5.8c1.9,2.8,3.6,5.8,5,8.9c1.2,2.7,2.2,5.5,3.1,8.3l-0.9,0.1l1,0.4l0.1,0.2
	c0.2,0.6,0.4,1.1,0.5,1.6c-2.3-0.6-4.3-1-5.3-1.2c-0.9-2.2-2-4.3-3.2-6.3c-1.8-2.8-4-5.4-6.5-7.8c-1.9-1.9-4-3.6-6.3-5.1
	c-1.7-1.1-2.8-1.8-2.8-1.8l2,2.3c1.5,1.9,3,3.9,4.2,6c0,0.1,0.1,0.1,0.1,0.2c-1-0.9-2.1-1.8-3.1-2.5c-2.1-1.6-4.2-3-6.5-4.3
	c-1.7-1-2.8-1.5-2.8-1.5l2,2.1c1.2,1.3,2.9,3.2,4.6,5.4c2,2.6,3.8,5.4,5.5,8.2c-2.8-2.6-5.9-4.8-9.2-6.6c-1.8-1-3.7-1.9-5.7-2.7
	c-1.5-0.6-2.4-0.9-2.4-0.9l1.8,1.6c1.1,1,2.5,2.4,4,4c0.7,0.7,1.4,1.5,2.1,2.3c-2-1.4-4.1-2.6-6.2-3.7c-2.2-1.2-4.5-2.2-6.9-3
	c-1.8-0.7-2.9-1-2.9-1l2.3,1.7c1.4,1.1,3.3,2.6,5.3,4.4c1.3,1.2,2.7,2.5,4,3.9c-2.3-1.4-4.8-2.6-7.3-3.7c-2.6-1.1-5.3-2.1-8-2.8
	c0,0,2.7,2.2,6,5c1.1,1,2.3,2.1,3.5,3.2c-2.5-1.7-5.4-3.5-8.4-5.2l0,0c-1.6-3.1-2.8-5.6-2.8-5.6c-0.2,1.2-0.4,2.5-0.5,3.8
	c-4.6-2.6-8.8-4.8-10.9-5.9c-3-3.8-5.1-6.8-5.1-6.8c0.6,2.9,1.5,5.7,2.5,8.5c0.4,1,0.8,2.1,1.2,3.2c-2.2-2.7-4-4.5-4-4.5l1.9,6.5
	l-0.2-0.3c-2.2-2.8-4.7-5.3-7.5-7.5c-2.2-1.8-4.5-3.3-7-4.7c-1.9-1-3-1.6-3-1.6s0.9,0.8,2.3,2.2c1.8,1.8,3.5,3.8,5.1,5.8
	c1.9,2.5,3.6,5.2,5.1,8c0.3,0.6,0.6,1.2,1,1.9c-2.7-2-5.6-3.8-8.7-5.2c-1.8-0.8-3.5-1.5-4.9-2.1c-1.1-1.1-2.3-2.1-3.5-3
	c-1.1-0.8-1.7-1.2-1.7-1.2l0.9,1.7l0.6,1.2l-1.2-0.4l1.5,1c0.3,0.7,0.7,1.5,1,2.4c0.5,1.1,0.9,2.3,1.4,3.5c-0.7-0.2-1.3-0.4-2-0.6
	c-2.5-0.7-4.8-1.2-6.5-1.6c-1.1-1.1-2.2-2.1-3.4-3c-1.1-0.8-1.8-1.3-1.8-1.3l0.9,1.8c0.3,0.6,0.6,1.2,0.9,2l-0.4,0l0.4,0.2
	c0.3,0.7,0.6,1.5,1,2.3s0.8,1.9,1.1,3c-0.8-0.2-1.6-0.5-2.4-0.7c-1.1-0.3-2.1-0.5-3.1-0.7c-3.5-5.2-7.6-10.3-9.2-12.3
	c0.2-0.1,0.4-0.2,0.6-0.2c0.1,0,0.2,0,0.3,0.1c0,0,0-0.1-0.3-0.2c-0.4-0.2-0.8-0.1-1.1,0.2h-0.1v0.1c0.5,1.9,1.8,6.4,3.4,11.1
	c-1.7-0.2-2.7-0.3-2.7-0.3l3,1.2c0.5,1.3,1,2.6,1.5,3.9l-0.6-0.1c-1.5-1.6-3.1-3.2-4.7-4.7c-1.6-1.9-3.3-3.9-4.7-5.7
	c-1.6-2.1-3-4-4-5.4l-1.7-2.2c0,0,0.2,1,0.6,2.6c0.5,2.1,1.2,4.2,2,6.3c0.9,2.3,1.9,4.5,3,6.7c-0.5-0.5-1-1.1-1.5-1.6
	c-2.1-2.2-4.4-4.1-6.9-5.7c-2-1.3-4.1-2.5-6.2-3.5c-1.6-0.8-2.7-1.2-2.7-1.2l2,1.8c1.6,1.5,3,3.1,4.4,4.7c2.3,2.7,4.3,5.7,6,8.8
	c-0.2-0.2-0.4-0.4-0.7-0.6c-2.6-2.3-5.5-4.2-8.5-5.7c-1-3-2-5.1-2-5.1s-0.4,1.6-0.8,3.8c-1-0.4-1.9-0.8-2.8-1.1
	c-1.9-0.7-3.9-1.3-6-1.7c0-0.7,0.1-1.3,0.2-1.8c0.1-1.3,0.2-2.1,0.2-2.1s-0.5,0.7-1.2,1.8c-0.3,0.5-0.6,1.1-1,1.7
	c-0.7-0.2-1.2-0.2-1.2-0.2l1,0.6c-0.5,0.8-0.9,1.7-1.4,2.7c-0.4,0.7-0.7,1.5-1,2.3c-2.9-1-5.5-1.6-7-2c-0.4-1.7-0.8-3.4-1.1-5
	c-0.5-2.5-0.8-4.8-1-6.5s-0.3-2.7-0.3-2.7s-0.3,1-0.8,2.6c0,0.2-0.1,0.4-0.2,0.7c-0.2,0.2-0.7,0.7-1.4,1.5c-1.2,1.4-2.3,2.9-3.2,4.4
	c-0.6,1-1.1,2-1.5,3c0-0.4,0-0.8,0.1-1.2c0.1-1.3,0.3-2.7,0.5-4l0.3-1.6c0,0-0.5,0.5-1.3,1.3c-1,1.1-2,2.3-2.8,3.5
	c-0.3,0.5-0.7,1-1,1.6c-1.5-2-2.9-3.8-3.9-5.1l-1.7-2.3c0,0,0.3,1,0.8,2.7c0.3,1,0.7,2.2,1.2,3.5c-1.6-2.1-3.4-4.2-5.2-6.1
	c0,0,1.1,3.5,2.5,7.7c0.4,1.1,0.7,2.3,1.1,3.5c-1.6-1.9-3.3-3.8-4.9-5.4c-3.3-3.4-6.1-5.9-6.1-5.9l3.2,7.2c0.5,1,1,2.1,1.5,3.2
	c-0.4-0.3-0.8-0.7-1.3-1c-2.5-1.8-5.2-3.4-8-4.6c-2.2-1-4.5-1.8-6.9-2.5c-1.8-0.5-2.9-0.7-2.9-0.7l2.4,1.4c1.9,1.2,3.7,2.5,5.4,3.9
	c3,2.5,5.7,5.2,8.1,8.2c-3.5-2.8-7.4-5.1-11.5-6.8c-0.4-0.7-0.9-1.4-1.4-2c-1.4-1.7-2.9-3.3-4.6-4.7c-1.3-1-2.2-1.6-2.2-1.6
	s0.5,0.8,1.3,2.1c0.8,1.4,1.5,2.9,2.1,4.4c-0.6-0.2-1.3-0.4-1.9-0.6c-1.1-1.5-2.2-3-3.5-4.4c-1.7-2-3.6-3.8-5.5-5.5
	c-1.5-1.3-2.4-2.1-2.4-2.1l1.6,2.5c0.9,1.6,2.2,3.8,3.4,6.4c0.3,0.5,0.5,1.1,0.8,1.7c-1.7-0.3-2.8-0.5-2.8-0.5l2.6,1.3l0.7,0.4
	c0.8,1.8,1.5,3.7,2.2,5.6l-1.7-0.3c-0.7-1-1.4-2-2.1-3c-1.6-2.2-3.4-4.3-5.3-6.2c0,0,1.1,3.2,2.2,7.3c0.1,0.4,0.2,0.8,0.4,1.3
	l-2.3-0.2l-1.2-0.1c-0.1-1.3-0.3-2.6-0.4-3.9c-0.4-3.7-0.7-7.2-0.9-8.9l0.7,0.2l-0.8-0.6l-0.2-0.1l-0.1,0.2c-1.1,2.9-2,5.9-2.8,9
	c-0.8,3.1-1.2,6.3-1.5,9.4l-0.5-0.1c-0.6-2.8-1.2-5.7-1.6-8.3s-0.7-5.1-0.8-6.7c0-0.6,0.4-1.2,1.1-1.3c0.3-0.1,0.6,0,0.8,0.1
	c-0.2-0.2-0.5-0.4-0.8-0.4c-0.4,0-0.8,0.1-1.2,0.2c-0.4,0.3-0.7,0.6-0.9,1.1c-0.7,2.2-1.2,4.5-1.6,6.9c-0.4,2.3-0.6,4.7-0.6,7
	c-0.9-2.1-1.7-4.2-2.4-6.3c-0.6-1.9-1.1-3.8-1.5-5.7l-0.4-2.3c0,0-0.3,0.9-0.6,2.3c-0.4,2-0.7,4-0.8,6c-0.1,2.6,0,5.1,0.5,7.7
	c-1.4-2.7-3.2-5.2-5.3-7.5c-2.6-2.8-5.5-5.3-8.6-7.3c-2.5-1.7-5.2-3.1-8-4.3c-1-0.5-1.9-0.8-2.5-1l-0.9-0.3l0.8,0.5
	c0.5,0.4,1.2,0.8,2.1,1.5c2.2,1.7,4.3,3.5,6.2,5.5c2.3,2.4,4.4,5.1,6.3,7.9c0.5,0.8,1,1.6,1.4,2.3c-0.2-0.2-0.4-0.3-0.6-0.5
	c-2.6-2-5.4-3.8-8.4-5.2c-2.4-1.1-4.8-2.1-7.3-2.9c-1.9-0.6-3.1-0.8-3.1-0.8l2.6,1.6c2,1.3,3.9,2.8,5.8,4.3c4,3.5,7.6,7.4,10.7,11.7
	h-0.8c-1.1-1.8-2.4-3.5-4-4.9c-4.1-3.7-8.8-6.8-13.7-9.3c-0.3-0.5-0.6-0.8-0.6-0.8s0,0.2-0.1,0.5c-1.5-0.7-2.9-1.4-4.4-2l-0.8-0.7
	c-2.2-4-4.1-6.9-4.1-6.9s0.3,2.5,0.8,6c-1.7-0.6-3.3-1.1-4.5-1.5c-2.2-0.6-3.5-1-3.5-1l3,1.7c1.5,0.9,3.4,2,5.5,3.4
	c0.1,0.6,0.2,1.3,0.3,1.9c-0.4-0.4-0.7-0.8-1.1-1.2c-1.4-1.4-2.9-2.6-4.6-3.7c-0.6-0.4-1.1-0.7-1.5-0.9l-0.6-0.3l0.3,0.5
	c0.2,0.3,0.6,0.7,0.9,1.3c0.9,1.4,1.8,2.9,2.4,4.5c0.2,0.5,0.4,0.9,0.6,1.4l-1.1-0.3c-1-2.1-2-4.2-3.2-6.2c0,0,0.1,2.3,0.2,5.4
	c-1.4-1.2-2.7-2.4-4.1-3.4c-4.3-3.5-8-5.8-8-5.8s2.3,3,5.1,7.1c-1.6-1.3-3.2-2.5-4.9-3.6c-2.1-1.3-4.4-2.5-6.7-3.6
	c-1.8-0.8-2.8-1.2-2.8-1.2l2.2,1.9c1.7,1.5,3.4,3.1,4.9,4.8c2.2,2.4,4.3,5,6.1,7.7c-2.2-1.3-4.5-2.5-6.8-3.5c-1.6-1.5-3.2-3-5-4.3
	c0,0,0.4,1.1,1.1,2.7l-0.6-0.2c-2.3-0.8-4.4-1.4-6.2-1.8c-1-1-2-1.8-3.2-2.7c-1.1-0.8-1.8-1.2-1.8-1.2s0.4,0.7,0.9,1.7
	c0.2,0.4,0.4,0.9,0.7,1.5h-0.1c-0.6-0.8-1.2-1.7-1.9-2.4c-1.7-2-3.5-3.8-5.5-5.5c-1.5-1.3-2.5-2-2.5-2l1.6,2.5
	c1.3,2,2.4,4.2,3.4,6.3c0.8,1.6,1.4,3.2,2,4.9c-0.9-1.2-1.8-2.3-2.8-3.3c-1.7-1.8-3.6-3.3-5.7-4.7c-1.6-1-2.6-1.6-2.6-1.6
	s0.7,0.8,1.8,2.2c1.4,1.8,2.5,3.6,3.6,5.6c0.2,0.5,0.5,1,0.7,1.4c-2.4-0.6-4.8-1-7.2-1.3c-0.5-0.4-1-0.8-1.5-1.2
	c-2.8-2.2-5.8-4.1-9-5.7c-2.5-1.3-5.1-2.3-7.8-3.2c-2-0.7-3.3-1-3.3-1l2.7,1.7c2.2,1.4,4.3,3,6.3,4.6c2.4,2,4.7,4.2,6.8,6.6
	c2.1,2.3,4,4.8,5.6,6.9c1.6,2.2,3.6,4.3,5.7,6.1l0.2,0.2h-4.6c-0.6-2.3-1.7-4.4-3.2-6.2c-3.5-4.4-9.6-9.2-15-12.4
	c-2.3-1.4-4.6-2.6-7-3.7c-1.8-0.8-3-1.3-3-1.3l2.3,2c1.4,1.2,3.3,3,5.4,5c0.8,0.8,1.6,1.6,2.4,2.5c-0.7-0.4-1.4-0.7-2-1
	c-2.4-1.1-4.6-2-6.2-2.6s-2.6-0.8-2.6-0.8l2,1.6c1.2,1,2.9,2.4,4.6,4c3.6,3.2,7.3,7.4,10.3,10.5c0.9,0.9,1.9,1.8,2.9,2.5h-5
	c-0.6-1.6-1.4-3.1-2.4-4.5c-3.3-4.4-9.2-9.3-14.7-12.3c-2.3-1.3-4.6-2.5-7-3.5c-1.8-0.8-3-1.2-3-1.2l2.3,1.9
	c1.4,1.2,3.4,2.9,5.4,4.8c2.8,2.8,5.5,5.8,7.9,8.9c-2.7-1.5-5.6-2.6-8.5-3.5c-2.1-0.7-4.3-1.2-6.5-1.6l4.6,3.9
	c2.6,2.2,5.5,4.9,8,6.7c0.2,0.2,0.4,0.3,0.7,0.4h-4c-0.5-0.4-1-0.8-1.5-1.2c-1-0.8-2.2-1.5-3.4-2.3c-3-5.4-6.4-10.6-10-15.6
	c0,0,0.8,5.2,2.2,11c-7-3.9-13.5-7.1-13.5-7.1s5.2,5.3,11.2,10.7c-9.6-7.8-22-16.1-22-16.1s5,6.1,11,12.7c-3.3-2.6-7.1-5.4-10.3-7.8
	l-8.3-6c0,0,2.3,3.5,5.7,7.8c0.7,0.9,1.4,1.8,2.2,2.7c-1.2-0.7-2.3-1.4-3.5-2.1c-5.1-2.9-9.3-4.8-9.3-4.8s3.1,2.9,7,6.8
	c1.4,1.3,2.8,2.8,4.2,4.3c-3.1-2.2-6.3-4.2-9.6-5.9c-2.5-1.3-4.9-2.4-6.5-3.1l-2.6-1.1c0,0,3.2,2.7,7,6.3c3.6,3.3,7.7,7.5,11,10.8
	h-1.1c-0.5-0.6-0.9-1.1-1.5-1.5c-6.2-5.5-18.7-12.6-18.7-12.6s2.3,3.3,5.5,7.2c-2.8-2.3-5.3-4.8-7.6-7.7c-1-1.4-2-2.8-2.8-4.4
	c-0.6-1.2-1-1.9-1-1.9S9,856.3,9,857.6c0,1.8,0.3,3.5,0.7,5.2c0.6,2.3,1.5,4.4,2.8,6.4c1.3,2.1,2.9,3.9,4.8,5.5
	c0.8,0.7,1.7,1.2,2.6,1.7h-2.7c-0.3-0.4-0.6-0.8-1-1.1c-2.1-1.9-5.2-4.2-7.6-6.3S4.4,865,4.4,865c0.2,1.8,0.7,3.6,1.3,5.3
	c0.8,2.2,1.9,4.2,3.3,6.1H1.5v1.2L1.8,986v1H3l1398.2-0.7h0.3L1401.5,986z M130,865.4c0.2,0.5,0.5,1,0.7,1.6
	c0.6,1.4,1.1,2.8,1.6,4.3c-0.7-0.5-1.5-1-2.3-1.5c-0.8-2.4-2-4.6-3.5-6.6c0.6,0.3,1.1,0.7,1.7,1C128.8,864.5,129.4,865,130,865.4z
	 M212.3,876.3h-1.6c0-0.2,0.1-0.5,0.1-0.7L212.3,876.3z M265.4,873c0,0.2,0.1,0.3,0.1,0.5l-0.4-0.5v-0.3L265.4,873z M543.1,863.8
	l0.4,0.2c1,2.4,2.2,5.3,3.6,7.9l-1.6-0.8C544.7,868.7,543.8,866.2,543.1,863.8z M687.7,874.5c-0.2-0.2-0.3-0.5-0.5-0.7
	c1,0.8,2.1,1.5,3,2.2h-1.6C688.3,875.5,688,875,687.7,874.5z M235.1,876.2h-1.5c0-0.2,0-0.5,0-0.8L235.1,876.2z M926.7,875.9
	c0-0.1-0.1-0.3-0.1-0.4l0.5,0.4H926.7z M370.8,872.7c-0.3-0.5-0.6-1-1-1.5c-2.3-3.1-5.5-6.9-8.2-10.5c2.3,2.2,5.4,5.2,8.6,8.1
	C370.3,870.1,370.5,871.4,370.8,872.7z M281.1,876.2c0-1,0-2-0.1-3.1c1.5,1.1,2.9,2.1,4.3,3.1H281.1z M245.6,875.5l-0.1-0.3l0.5,0.5
	L245.6,875.5z M141.9,876.3c0-0.5,0-1-0.1-1.5c0.1,0.1,0.2,0.2,0.4,0.3c0.5,0.4,0.9,0.8,1.4,1.2H141.9z M1323.9,873.3
	c-0.6-1.3-1.2-2.6-1.9-3.8c0.9,0.9,2,1.8,3.2,2.9c1.5,1.3,3.2,2.6,4.9,3.9h-5.6C1324.6,875.2,1324.3,874.2,1323.9,873.3
	L1323.9,873.3z M1288.9,875.5c-1.1-1.8-2.3-3.6-3.6-5.2c2,1.8,3.9,3.8,5.7,5.7h-1.8C1289.1,875.8,1289,875.7,1288.9,875.5
	L1288.9,875.5z M1259.2,874.4c-0.1-1.1-0.2-2.2-0.4-3.3l0.4,0.5c1.3,1.4,2.4,2.9,3.5,4.4h-3.5
	C1259.3,875.4,1259.3,874.9,1259.2,874.4z M1174.2,875.8c-1.1-1.4-2.4-2.9-3.6-4.4c1.4,1.5,2.9,3,4.4,4.4H1174.2z M1132.2,870
	c1.4,1.8,2.9,3.9,4.3,5.8h-5.1c0.1-1.2,0-2.5-0.3-3.7c-0.4-1.6-0.9-3.4-1.5-5.3C1130.3,867.6,1131.2,868.7,1132.2,870z
	 M1116.7,875.2c0.2,0.2,0.3,0.5,0.5,0.7h-0.5C1116.7,875.6,1116.7,875.3,1116.7,875.2L1116.7,875.2z M1077,872.6c1,1,2,2.2,3,3.3
	h-5.1c0.1-0.3,0.2-0.7,0.2-1c0.2-1.2,0.3-2.5,0.3-3.7C1075.9,871.5,1076.4,872,1077,872.6L1077,872.6z M1044.4,875.8h-0.2
	c0-0.1-0.1-0.2-0.1-0.3L1044.4,875.8z M851.7,874.8c0.3,0.4,0.6,0.8,0.9,1.1h-3.7c-0.5-2.6-1.1-5.1-1.9-7.6
	C848.6,870.6,850.2,872.9,851.7,874.8L851.7,874.8z M788.7,863.4c5.7,3.1,10.8,7.2,15.2,12c-3.5-1.4-7.1-2.4-10.9-2.8
	c-0.7-2.6-1.8-5.1-3.2-7.3c-0.5-0.7-0.9-1.4-1.4-2L788.7,863.4z M777.4,871.2c-0.1,0.2-0.1,0.5-0.2,0.7V871L777.4,871.2z
	 M721.2,872.2c-0.9-1.2-2-2.4-3.1-3.8c1,0.9,2.5,2.1,4.2,3.6c1.4,1.2,2.9,2.6,4.4,3.9h-3.3C722.9,874.6,722.1,873.3,721.2,872.2
	L721.2,872.2z M681.2,865.7l-1.3-0.4l-0.7-0.7L681.2,865.7z M611.7,871.5c4.2,1.3,8.3,2.8,12.3,4.5h-0.7c-0.5-0.3-1.1-0.5-1.7-0.8
	c-3.1-1.2-6.3-2.1-9.5-2.9C611.9,872.1,611.8,871.8,611.7,871.5L611.7,871.5z M605.8,874.5l0.2,0.5l-0.9-0.9L605.8,874.5z
	 M561.2,876.1h-4.7c-0.3-1.2-0.8-2.3-1.5-3.3c-0.9-1.2-1.8-2.4-2.8-3.6C555.4,871.4,558.4,873.6,561.2,876.1z M543.2,863.4H543
	c-0.1-0.4-0.2-0.9-0.4-1.3s-0.2-0.8-0.3-1.2C542.5,861.6,542.9,862.5,543.2,863.4z M530.4,871.9c1.1,1.5,2.4,2.9,3.7,4.2h-0.8
	l-1.8-1.2C531.1,873.9,530.8,872.9,530.4,871.9L530.4,871.9z M452,866.2c0.7,0.4,1.4,0.9,2.1,1.4c1,0.7,2.1,1.4,3.1,2.2
	c-1.3-0.6-2.7-1.2-4.1-1.7C452.7,867.5,452.3,866.8,452,866.2L452,866.2z M450.5,871.2c0.4,1.5,0.8,2.9,1.4,4.2
	c-0.2-0.2-0.5-0.3-0.8-0.5c-0.1-0.7-0.4-1.5-0.7-2.1c-0.7-1.2-1.5-2.3-2.4-3.3C448.8,870.1,449.6,870.6,450.5,871.2L450.5,871.2z
	 M416.2,876.2h-1.9c0,0,0-0.1,0-0.1c-0.2-0.5-0.4-1.1-0.5-1.7L416.2,876.2z M379.1,876.2h-0.3c0-0.1-0.1-0.2-0.1-0.2l0.1,0.1
	L379.1,876.2z M343.4,867.9c0.9,0.8,1.7,1.7,2.6,2.5c-0.5-0.3-1-0.5-1.6-0.8C344.2,869,343.8,868.5,343.4,867.9L343.4,867.9z
	 M330.4,866.7c0.8,0.5,1.7,1,2.6,1.5c1.8,1,3.6,2.2,5.4,3.4c0.2,0.6,0.4,1.3,0.6,1.8c0,0.1,0.1,0.2,0.2,0.4
	c-1.7-0.8-3.5-1.6-5.3-2.3C332.9,869.8,331.8,868.2,330.4,866.7L330.4,866.7z M328.4,873.8c0.1,0.4,0.2,0.8,0.3,1.1
	c-1.2-0.5-2.5-1-3.8-1.4c-0.4-0.7-0.8-1.5-1.3-2.2C325.2,872,326.8,872.9,328.4,873.8L328.4,873.8z M311.5,876.2h-0.3
	c0-0.2-0.1-0.4-0.2-0.6L311.5,876.2z M296.4,875c0.4,0.4,0.9,0.8,1.4,1.2h-2.2c-0.1-0.7-0.2-1.5-0.4-2.2L296.4,875z M285.4,865.6
	c1.3,0.9,2.6,2,3.9,3.1c-0.1,1-0.3,2-0.4,3c-2.6-1.4-5.3-2.7-8-3.7c0-1.1,0-2.2,0.1-3.2c0-0.7,0.1-1.4,0.1-2
	C282.4,863.6,283.9,864.5,285.4,865.6L285.4,865.6z M275.2,869l0.6,0.4c-0.5,1.5-0.8,3-1.1,4.6c-1-0.6-1.9-1.2-2.9-1.8
	c-0.6-2.2-1.3-4.5-1.9-6.8C271.2,866.3,273.1,867.5,275.2,869z M265.1,860.5c0.2-1.9,0.6-3.8,1.2-5.6c-0.3,1.4-0.6,3-0.9,4.9
	c-0.4,2.9-0.5,5.7-0.4,8.6h-0.1C264.7,865.7,264.7,863,265.1,860.5L265.1,860.5z M226.4,865.9c0,0.1,0,0.2,0,0.3l-0.2-0.4
	L226.4,865.9z M221.5,869.8c0.5,1.6,1,3.2,1.4,4.6c0.1,0.4,0.2,0.8,0.4,1.1h-0.1c-0.7-2.1-1.5-4.1-2.6-6L221.5,869.8z M210.4,865.8
	l0.9,0.3c0.9,0.3,1.9,0.6,3,1c0.5,2.1,1,4.2,1.5,6.3c-1.7-0.4-3.3-0.9-4.9-1.2C210.8,870.1,210.6,868,210.4,865.8L210.4,865.8z
	 M204.2,872.1c0,0.1,0,0.2,0,0.3C204.2,872.3,204.2,872.2,204.2,872.1L204.2,872.1z M154.9,868.5l-0.8-0.8l-0.2-0.5l0.5,0.3l0.2,0.2
	C154.7,867.9,154.8,868.2,154.9,868.5L154.9,868.5z M110.9,867.2c-1-1.3-2-2.5-3.2-3.6c1.2,0.5,2.4,1,3.7,1.7
	c0.8,0.4,1.7,0.8,2.6,1.3c0.2,0.7,0.5,1.4,0.7,2.2c0.6,2.4,1.1,4.9,1.4,7.3c0,0.1,0,0.2,0.1,0.3h-2.2c0-0.4,0.1-0.8,0.1-1.2
	C113.8,872.2,112.7,869.4,110.9,867.2L110.9,867.2z"/>
</svg>
